<?xml version="1.0" standalone="no"?>
<!DOCTYPE svg PUBLIC "-//W3C//DTD SVG 1.1//EN" "http://www.w3.org/Graphics/SVG/1.1/DTD/svg11.dtd" >
<svg xmlns="http://www.w3.org/2000/svg" xmlns:xlink="http://www.w3.org/1999/xlink" version="1.1">
<metadata>
Created by FontForge 20170731 at Fri Jan 16 02:57:46 2015
 By Aleksey,,,
(c) 2014-2015, Robert Jablonski/Cannot Into Space Fonts, all rights reserved.
</metadata>
<defs>
<font id="HussarBoldWeb" horiz-adv-x="1406" >
  <font-face 
    font-family="Hussar"
    font-weight="700"
    font-stretch="normal"
    units-per-em="1000"
    panose-1="0 0 8 0 0 0 0 0 0 0"
    ascent="750"
    descent="-250"
    x-height="513"
    cap-height="825"
    bbox="-167 -351 1554 1227"
    underline-thickness="50"
    underline-position="-150"
    unicode-range="U+0020-10FFFD"
  />
<missing-glyph horiz-adv-x="500" 
d="M50 0v500h400v-500h-400zM100 50h300v400h-300v-400z" />
    <glyph glyph-name="Polandball" unicode="polan" horiz-adv-x="921" 
d="M208 502q0 -28 17 -48t40 -20q16 0 29 9t20 25t7 34q0 28 -16 47.5t-39.5 19.5t-40.5 -19.5t-17 -47.5zM565 507.5q0 -30.5 16.5 -52t38 -21.5t37.5 21.5t16 52t-16 52t-37.5 21.5t-38 -21.5t-16.5 -52zM70 413q0 83 31.5 157.5t84 128t124.5 84.5t150 31q80 0 152 -31
t124.5 -84.5t83 -128t30.5 -157.5q0 -112 -50.5 -204t-140 -145t-199.5 -53q-112 0 -201.5 53t-139 145t-49.5 204zM96 413q1 -68 30 -136.5t76.5 -123t116 -87t141.5 -28.5q67 4 125.5 28.5t100.5 62.5t72 86t45 98.5t14 99.5l-722 2l0.5 -1z" />
    <glyph glyph-name="Kotwica" unicode="Pw" horiz-adv-x="895" 
d="M519 664h15q56 0 92 38t36 96q0 28 -9.5 52.5t-26 42.5t-40.5 28.5t-52 10.5h-15v-268zM215 338v-110q0 -61 18 -86.5t63 -25.5q42 0 60.5 23t20.5 76v148v61v148h-87v92h87v268h-87v92h87h38v1l68 -1h36h27q94 0 160.5 -65t66.5 -162t-66.5 -161t-160.5 -64h-27v-149
v-60v-135q0 -61 18 -86.5t62.5 -25.5t62.5 25.5t18 86.5v110l142 85v-229q0 -103 -53 -148t-169 -45q-100 0 -152 32q-53 -32 -152 -32q-78 0 -126.5 19.5t-72.5 62t-24 111.5v229z" />
    <glyph glyph-name="uniE002" unicode="polan&#x32;" horiz-adv-x="936" 
d="M235 290q-24 3 -58 13.5t-49 14.5q-13 2 -14.5 1.5t-0.5 -8.5q2 -8 15 -35.5t28 -55.5t23 -39q16 -20 27 -25t21 -14q8 -8 30.5 -27t27.5 -23q34 -30 76 -34q24 -3 40 -7t116 -4.5t121 5.5q33 10 33 24q0 6 30 24.5t46 39.5q3 3 9.5 11.5t11 14t11 14.5t11 15.5t9 14
t6.5 13t2 9.5q0 11 7 23q17 32 17 52q0 8 -2 9t-11 -3q-13 -4 -19 -9t-32 -17l-27 -13l-211 2q-212 1 -240 5.5t-54 8.5zM559 745q-16 6 -103 5.5t-103 -7t-33 -8.5t-17 -5t-16 -8q-11 -4 -28.5 -17t-25.5 -16q-13 -6 -43 -43q-1 -1 -9.5 -12t-16 -20.5t-9.5 -11.5
q-4 -3 -16 -29.5t-12 -32.5q0 -9 -8.5 -28.5t-10.5 -88.5l-2 -68l17 -5q74 -17 96 -26q10 -4 24.5 -6.5t35 -4.5t28.5 -3q22 -4 211 -6.5t203 0.5q13 2 38.5 17.5t48.5 23.5l24 7l-2 48q-3 81 -40 153q-11 22 -11 26q0 12 -47.5 57.5t-59.5 45.5q-3 0 -31 19q-49 32 -82 44z
M335 778q11 4 20.5 5.5t34.5 2t69 -0.5q102 -1 118 -5.5t34 -16.5q19 -12 50.5 -30.5t54.5 -34.5t46 -39q23 -22 32.5 -35t20.5 -36q27 -57 41 -106q6 -20 7.5 -39.5t1.5 -78.5q0 -67 -3.5 -92.5t-12.5 -30.5q-6 -3 -6 -18q0 -9 -7 -24t-16 -24q-5 -5 -5 -8.5t-7 -11.5
q-3 -3 -12 -15.5t-16 -18.5q-9 -8 -13 -20q-3 -8 -14.5 -19.5t-27.5 -24.5t-19 -16q-11 -11 -17 -11t-11 -12q-1 -5 -5 -9t-8 -5q-9 -2 -152 -1l-144 2l-47 16q-40 14 -62 27t-46 37q-48 49 -60 67q-16 24 -19 26q-2 2 -15 28.5t-26.5 56.5t-16.5 40q-8 25 -6 110t11 107
q8 20 10 33q3 11 21.5 50t21.5 39t13 15q12 21 49 51.5t64 42.5q3 1 15.5 10t23.5 9q13 1 35 8zM333 494q-3 3 -39 5.5t-45 0.5q-7 -2 -14.5 -16.5t-7.5 -26.5q0 -10 15 -26l15 -16l44 -3q31 -2 39.5 -1t18.5 8q13 9 20.5 22.5t11.5 18t4 15.5q0 8 -9 11.5t-33 3.5
q-16 0 -20 4zM227 527q10 3 66 1t60 -6t23 -4t21 4q3 5 12.5 3.5t16.5 -8.5q8 -8 9 -17.5t-6 -11.5q-6 -3 -6 -24.5t-6 -24t-6 -10.5q0 -4 -6.5 -12.5t-16.5 -17t-18 -13.5q-11 -5 -70 -2l-59 2q-21 22 -42 43v34q0 34 4 38q1 1 9 12.5t15 13.5zM571 434q0 -3 -1.5 -7.5
t-0.5 -5.5t5 -2t16 -1q23 1 31 6.5t51 5.5t43 4.5t-7.5 15t-13.5 21.5q-4 6 -7 8t-8.5 2.5t-20.5 0.5q-18 0 -29.5 -2.5t-19.5 -8.5t-14 -16q-8 -14 -16 -16t-8 -5zM591 501q12 6 23 7.5t44 1.5h49l14 -22q14 -21 18 -24t4 -27.5t-5 -29.5t-47 -5t-50 -5.5t-66 -6.5l-58 -2
l-1 11q-1 12 11 26t12 17t8 12.5t16 19.5t9 12q1 5 19 15z" />
    <glyph glyph-name="uniE006" unicode="ffj" horiz-adv-x="1072" 
d="M1012 513v-592q0 -29 -6 -55.5t-19.5 -52.5t-34 -45t-53 -31t-73.5 -12q-20 0 -38 2t-29.5 4t-25 6t-19 6.5t-16 7.5t-12.5 6l54 143q24 -15 46 -15q48 0 48 70v423h-168v-378h-176v378h-178v-378h-178v378h-74v135h74v109q1 115 54 184t148 69q39 0 76 -11.5t53 -23.5
l17 -11l-62 -125q-25 14 -54 14q-32 0 -43 -22.5t-11 -78.5v-104h178v109q0 116 54 184.5t156 68.5q29 0 57 -4.5t50 -12t42.5 -16t35 -17.5t25.5 -16.5t16 -11.5l6 -5l-62 -125q-2 1 -4.5 3t-10 7.5t-15.5 10t-19.5 10.5t-22 10.5t-23 7.5t-23.5 3q-50 0 -68 -23t-18 -79
v-104h346z" />
    <glyph glyph-name="uniE007" unicode="fft" horiz-adv-x="1186" 
d="M128 513v109q0 115 53 184t147 69q40 0 77 -11.5t53 -23.5l16 -11l-62 -125q-24 14 -52 14q-33 0 -44.5 -22.5t-11.5 -78.5v-104h178v109q1 75 24 132t69 89t109 32q39 0 75.5 -11.5t53.5 -23.5l17 -11l-62 -125q-25 14 -54 14q-32 0 -43 -22.5t-11 -78.5v-104h168v191
h176v-191h108v-135h-108v-163q0 -71 40 -71q7 0 14 1.5t12 4t9.5 5t6.5 3.5l2 2l44 -143q-6 -4 -17.5 -9t-45.5 -14t-67 -9q-50 0 -86 17.5t-54.5 47t-26 62t-7.5 69.5v197h-168v-378h-178v378h-178v-378h-176v378h-74v135h74z" />
    <glyph glyph-name="uniE008" unicode="fj" horiz-adv-x="717" 
d="M656 513v-592q0 -29 -5.5 -55.5t-19 -52.5t-34 -45t-53 -31t-72.5 -12q-21 0 -39 2t-29.5 4t-25 6t-19 6.5t-16 7.5t-13.5 6l56 143q23 -15 44 -15q50 0 50 70v423h-168v-378h-178v378h-74v135h74v109q1 116 55 184.5t157 68.5q28 0 56 -4.5t50 -12t42.5 -16t35 -17.5
t25.5 -16.5t16 -11.5l5 -5l-62 -125q-2 2 -6.5 5.5t-18.5 12.5t-27.5 16t-31.5 12.5t-32 5.5q-51 0 -68.5 -23t-17.5 -79v-104h344z" />
    <glyph glyph-name="uniE009" unicode="ft" horiz-adv-x="831" 
d="M128 513v109q0 115 53 184t147 69q40 0 77 -11.5t53 -23.5l16 -11l-62 -125q-24 14 -52 14q-33 0 -44.5 -22.5t-11.5 -78.5v-104h168v191h178v-191h108v-135h-108v-163q0 -71 40 -71q10 0 21 4t17 8l6 4l44 -143q-7 -4 -18.5 -9t-45.5 -14t-66 -9q-51 0 -87 17.5
t-54.5 47t-26.5 62t-8 69.5v197h-168v-378h-176v378h-74v135h74z" />
    <glyph glyph-name="uniE06C" unicode="&#x39;&#x39;" horiz-adv-x="1255" 
d="M494 560q0 54 -35 89.5t-90 35.5q-26 0 -50 -9.5t-40.5 -26t-26.5 -39.5t-10 -50q0 -55 37 -91.5t90 -36.5t89 36.5t36 91.5zM644 0l243 283q-21 -12 -59 -12q-47 0 -97 22t-89 63q-23 -44 -82 -125l-194 -231h-232l242 283q-21 -12 -58 -12q-44 0 -89.5 18.5t-85 53
t-64.5 91.5t-25 126q0 57 18 104t47.5 79t69 54.5t83 32.5t88.5 10q80 0 148 -28.5t114 -78.5q42 53 109 80t141 27q91 0 166.5 -37t118.5 -101t43 -142q0 -43 -5.5 -79.5t-14.5 -64.5t-27.5 -61t-35 -58t-47.5 -66l-194 -231h-232zM1006 560q0 54 -35.5 89.5t-90.5 35.5
q-26 0 -50 -9.5t-40.5 -26t-26 -39.5t-9.5 -50q0 -55 36.5 -91.5t89.5 -36.5t89.5 36.5t36.5 91.5z" />
    <glyph glyph-name="uniE094" unicode="bwahh" horiz-adv-x="1629" 
d="M75 580h103q103 0 103 -85q0 -51 -41 -72q71 -13 71 -84q0 -42 -29 -68t-80 -26h-127v335zM151 449h6q51 0 51 38q0 34 -51 34h-6v-72zM151 304h24q56 0 56 37q0 42 -56 42h-24v-79zM563 245l-54 188l-53 -188h-85l-95 335h85l57 -230h2l61 230h57l61 -230h2l57 230h84
l-95 -335h-84zM866 580l135 -335h-82l-25 67h-127l-25 -67h-82l135 335h71zM868 379l-37 97h-1l-37 -97h75zM1090 379v-134h-76v335h76v-134h108v134h76v-335h-76v134h-108zM1370 379v-134h-76v335h76v-134h108v134h76v-335h-76v134h-108z" />
    <glyph glyph-name="AnarchySymbol" unicode="anarchy" horiz-adv-x="1026" 
d="M70 434q0 92 35 176.5t94.5 145.5t141.5 97t172 36t172 -36t141.5 -97t94.5 -145.5t35 -176.5q0 -74 -22.5 -143.5t-63.5 -125.5t-95.5 -98t-122 -65t-139.5 -23t-139.5 23t-122 65t-95.5 98t-63.5 125.5t-22.5 143.5zM580 414l-71 226l-69 -226h140zM208 202l233 615
q-133 -26 -220.5 -134t-87.5 -249q0 -129 75 -232zM331 92q85 -48 182 -48q94 0 176 45l-62 201h-235zM814 196q79 105 79 238q0 143 -90 251.5t-225 132.5z" />
    <glyph glyph-name="ChristianAnarchySymbol" unicode="alphaomega" horiz-adv-x="1122" 
d="M343 314v-18q0 -35 16 -71l37 94zM796 325l-29 -59l-6 81l-80 -6l63 -168q53 63 53 123q0 15 -1 29zM766 450q-30 66 -80 106.5t-103 45.5l63 -166zM357 402l76 9l71 177q-48 -22 -88 -70.5t-59 -115.5zM590 429l-33 78l-54 -88zM629 337l-185 -15l-74 -121
q13 -22 30 -42.5t27 -30.5l11 -10h-1l-1 -116h-364v117h134q-37 92 -37 205q0 116 53 219t146 166t200 63q109 0 202 -63t146.5 -166t53.5 -219q0 -113 -36 -205h116l-1 -117h-364v117h5l-1 1q10 7 23 20z" />
    <glyph glyph-name="AnarchySymbol90s" unicode="&#x39;&#x30;sanarchy" horiz-adv-x="703" 
d="M430 337l-185 -15l-54 -89q26 -32 39 -53q153 -54 263 7zM391 429l-33 78l-54 -88zM172 256l25 63l-67 -6q14 -23 42 -57zM103 395l131 16l80 198q-94 -11 -190 -108q-25 -57 -21 -106zM383 605l64 -169l102 12q-20 86 -118 141q-24 11 -48 16zM553 346l-71 -5l49 -129
q5 4 10 9q1 24 6 69t6 56zM545 175l17 -46l-24 -48l-31 72q-119 -61 -279 3q-30 24 -54 49l-65 -106l49 123q-117 132 -85 297q83 67 143 102t118 38l15 37l14 -38q41 -6 77 -32q142 -65 162 -172l35 4l-9 -69l-28 -57q-13 -95 -13 -122q-21 -20 -42 -35z" />
    <glyph glyph-name="uniF8FF" unicode="cannotintospace" horiz-adv-x="876" 
d="M216 798h-19v93h19v-93zM98 870q-9 4 -12.5 2t-3.5 -12q0 -8 1.5 -10t5.5 -2q11 0 14.5 8.5t-5.5 13.5zM61 798v90h23q17 0 21.5 -1t11.5 -8q9 -9 9 -19q0 -11 -9.5 -19.5t-21.5 -8.5h-13v-34h-21zM403 852q4 18 24 29.5t43 3.5q8 -3 8.5 -4.5t-3 -9.5t-10.5 -5
q-12 4 -24.5 -0.5t-15.5 -14.5q-5 -16 8.5 -26t31.5 -4q7 2 10.5 -5.5t3 -9t-8.5 -4.5q-27 -10 -50.5 7.5t-16.5 42.5zM777 865q0 7 1.5 9t7.5 2q5 0 6.5 -1t2 -3t0.5 -7q0 -11 6.5 -11t6.5 -7.5t-6.5 -7.5t-6.5 -11t5 -11q3 0 5.5 -6t0.5 -10q-2 -3 -11 -3q-18 0 -18 27
q0 13 -5 14.5t-5 8t5 6.5t5 11zM163 835q-7 4 -13 0q-12 -7 -2 -16q7 -5 15 -2q6 3 6 9t-6 9zM136 848q10 6 21 6q24 0 32 -19t-11 -31q-10 -6 -21 -6q-24 0 -32 19t11 31zM266 835q-7 4 -14 0q-6 -3 -5 -9.5t6 -9t12 0.5q6 3 6 9t-5 9zM225 826q0 14 14 23t27 2q5 -3 5 0
t10 3h9v-56h-9q-10 0 -10 3.5t-5 0.5q-13 -7 -27 1.5t-14 22.5zM302 798v56h10q9 0 9 -3t7.5 0.5t15.5 1.5q10 -3 13.5 -9.5t3.5 -23.5v-22h-9q-7 0 -8 2t-1 14q0 25 -9 25q-13 0 -13 -24q0 -12 -1 -14.5t-8 -2.5h-10zM523 835q-7 4 -13 0q-12 -7 -3 -16q7 -7 16 -2
q5 3 5.5 9t-5.5 9zM482 826q0 14 14 23t27 2q6 -3 6 0t9 3h9v-56h-9q-9 0 -9 3.5t-6 0.5q-7 -4 -14 -3t-13 4.5t-10 9.5t-4 13zM560 798v56h9q9 0 9 -3t8 0.5t15 1.5q11 -3 14.5 -9.5t3.5 -23.5v-22h-10q-4 0 -5.5 0.5t-2.5 2t-1 4v9.5q0 25 -9 25q-13 0 -13 -24v-9.5
t-1 -4.5t-2.5 -2.5t-5.5 -0.5h-9zM631 798v56h9q10 0 10 -3t7.5 0.5t15.5 1.5q10 -3 13.5 -9.5t3.5 -23.5v-22h-9q-7 0 -8.5 2t-1.5 14q0 25 -9 25q-12 0 -12 -24q0 -7 -0.5 -9.5t-1.5 -4.5t-2.5 -2.5t-5.5 -0.5h-9zM740 835q-7 4 -13 0q-12 -7 -3 -16q7 -7 16 -2q5 3 5.5 9
t-5.5 9zM713 848q9 6 20 6q24 0 32 -19t-11 -31q-10 -6 -21 -6q-24 0 -32 19t12 31zM61 659v90h21v-90h-21zM324 740q14 13 37 5q8 -3 9 -4t-3 -9q-2 -5 -4.5 -5.5t-10.5 1.5q-12 3 -16 0q-6 -7 16 -18q34 -17 15 -40q-7 -8 -20.5 -10t-26.5 3q-16 7 -7 19q3 4 4.5 4t8.5 -4
q8 -5 17 -3.5t9 6.5t-15 13q-37 18 -13 42zM169 726q0 7 1.5 8.5t7.5 1.5q5 0 6.5 -0.5t2.5 -2.5t1 -7q0 -11 6 -11t6 -8t-6 -8t-6 -11t4 -11t6.5 -5.5t0.5 -9.5q-2 -3 -11 -3q-19 0 -19 27q0 13 -4.5 14.5t-4.5 8t4.5 6.5t4.5 11zM95 659v56h9q9 0 9 -3.5t8 0.5t15 2
q11 -3 14.5 -9.5t3.5 -24.5v-21h-10h-5.5t-2.5 2t-1 4.5v8.5q0 25 -9 25q-13 0 -13 -24v-9.5t-1 -4.5t-2.5 -2h-5.5h-9zM247 696q-7 3 -13 0q-12 -7 -2 -16q7 -6 15 -3q5 4 5.5 10t-5.5 9zM220 709q10 6 20 6q24 0 32 -19t-11 -31q-10 -6 -21 -6q-24 0 -31.5 19t11.5 31z
M426 696q-8 4 -16 0q-11 -7 -2 -16q8 -8 18 -3q6 4 6 10t-6 9zM386 631v84h9q10 0 10 -3.5t6 -0.5q9 5 19 3t17 -9.5t7 -17.5q0 -15 -15 -23.5t-28 -1.5q-6 3 -6 -3v-10.5v-10.5t-1.5 -5t-3 -2h-5.5h-9zM498 696q-7 3 -13 0q-6 -4 -5.5 -10t6 -8.5t12.5 -0.5q6 4 6 10t-6 9z
M457 687q0 14 14 22.5t27 1.5q6 -3 6 0.5t9 3.5h10v-56h-10q-9 0 -9 3t-6 0q-13 -7 -27 1.5t-14 23.5zM549 711q5 3 14.5 3.5t14.5 -2.5q7 -5 -2 -11l-9 -3q-13 -1 -13 -11.5t13 -10.5q5 0 9 -3t4.5 -6t-2.5 -5q-8 -6 -23 -1.5t-20 13.5q-5 10 -1 20.5t15 16.5zM616 693
q9 0 8 3q-1 5 -10 6q-4 0 -6 -2q-7 -7 8 -7zM601 712q16 6 29 -1t13 -21q0 -4 -3.5 -5t-16.5 -1q-18 0 -18 -3q0 -1 2 -2q2 -4 15 -3t18 -1q7 -5 -9 -12q-7 -2 -14 -3q-9 -1 -13 0t-10 8q-11 11 -8.5 24.5t15.5 19.5zM656 679q4 5 9 5q9 0 11.5 -9t-5.5 -14t-14.5 3t-0.5 15
zM693 679q4 5 9 5q10 0 12 -9t-6 -14t-14.5 3t-0.5 15zM730 679q4 5 10 5q9 0 11 -9t-6 -14t-14.5 3t-0.5 15zM788 247q-1 0 -19 -6.5t-21 -6.5q-7 0 -10 -3q-8 -7 -42.5 -8t-179.5 -1q-193 2 -221 7q-17 4 -25 7.5t-20 13.5q-19 15 -20 15q-4 -1 -1.5 -11.5t10.5 -29.5
t19 -39q31 -60 46 -64q6 -1 16 -10q5 -5 14 -12.5l18 -15t14 -12.5q26 -23 59 -26q18 -2 30.5 -5.5t90 -4t93.5 4.5q26 8 26 19q0 4 23.5 18.5t35.5 30.5q2 3 7 9.5t8.5 11t9 11.5t8.5 12t6.5 10.5t5.5 10t2 7.5q0 8 5 18q13 24 13 40q0 9 -1 9zM681 306q0 3 -51.5 3
t-51.5 -4q0 -9 18 -15t44 -6q17 0 29 9.5t12 12.5zM415 309q-1 1 -27.5 2t-52.5 0.5t-26 -2.5t7 -7.5t16.5 -10.5t15.5 -7q12 -3 27 -3q9 0 14 2t14 10q14 13 12 16zM405 603q11 4 26.5 5t69.5 0q79 -1 91.5 -4t26.5 -12q13 -9 31 -20t29.5 -18t27 -18.5t29.5 -24.5
q12 -12 18.5 -19.5t11.5 -15.5t11 -20q21 -45 32 -82q6 -24 6 -92q0 -52 -2.5 -71.5t-9.5 -23.5q-5 -3 -5 -14q0 -19 -17 -37q-4 -4 -4 -7q0 -2 -2 -5t-4.5 -6t-5.5 -6.5t-4 -4.5q-1 -3 -10 -12.5t-11 -16.5q-2 -4 -6 -9t-10 -10.5t-12 -10t-11.5 -9.5t-8.5 -7
q-9 -9 -13.5 -9t-7.5 -9q-2 -4 -4.5 -7t-5.5 -4q-7 -2 -119 -1l-111 2l-36 12q-32 11 -49 21t-35 29q-37 38 -46 52q-13 19 -15 20q-3 3 -22.5 43.5t-22.5 53.5q-6 19 -4.5 85t8.5 83q6 16 8 25q0 5 5 16.5t10.5 23t11 21t6.5 9.5q2 0 9 11q5 8 15.5 19t23 21t26 19t24.5 14
q2 1 11.5 8t18.5 7q10 0 27 6z" />
    <glyph glyph-name=".notdef" horiz-adv-x="500" 
d="M50 0v500h400v-500h-400zM100 50h300v400h-300v-400z" />
    <glyph glyph-name=".null" horiz-adv-x="0" 
 />
    <glyph glyph-name="nonmarkingreturn" horiz-adv-x="333" 
 />
    <glyph glyph-name="space" unicode=" " horiz-adv-x="273" 
 />
    <glyph glyph-name="exclam" unicode="!" horiz-adv-x="317" 
d="M76 88q0 14 4 27.5t12 24.5t18.5 19t23.5 12.5t26 4.5q35 0 60.5 -26t25.5 -62t-25.5 -62t-60 -26t-59.5 26t-25 62zM92 235l-22 590h177l-23 -590h-132z" />
    <glyph glyph-name="quotedbl" unicode="&#x22;" horiz-adv-x="447" 
d="M244 860h132l-20 -279h-92zM71 860h132l-20 -279h-92z" />
    <glyph glyph-name="numbersign" unicode="#" horiz-adv-x="833" 
d="M294 219l-57 -219h-124l57 219h-102l32 121h102l38 146h-107l32 121h107l57 218h124l-57 -218h108l57 218h124l-57 -218h102l-32 -121h-102l-38 -146h107l-32 -121h-107l-57 -219h-124l57 219h-108zM434 340l38 146h-108l-38 -146h108z" />
    <glyph glyph-name="dollar" unicode="$" horiz-adv-x="721" 
d="M333 932l120 -42v-54q24 -4 47.5 -10t42 -12.5t35.5 -14t29.5 -14t21.5 -12t13 -8.5l5 -3l-76 -150q-9 6 -25 15.5t-60 25.5t-82 16q-47 0 -72.5 -20t-25.5 -54q0 -17 12 -31.5t41 -31t51 -26.5t68 -30q80 -34 136.5 -92.5t56.5 -132.5q0 -112 -59.5 -175t-158.5 -82
v-103l-120 31v64q-50 2 -97 14.5t-79.5 27.5t-57.5 30.5t-37 25.5l-12 10l94 158q12 -10 33 -25.5t74.5 -41.5t94.5 -26q119 0 119 81q0 17 -8.5 31.5t-30 29t-38 23t-54 26t-55.5 26.5q-75 37 -116 92.5t-41 119.5q0 94 61 160.5t150 85.5v98z" />
    <glyph glyph-name="percent" unicode="%" horiz-adv-x="981" 
d="M23 643q0 86 64 141.5t159 55.5q93 0 156 -55.5t63 -141.5t-61.5 -141.5t-157.5 -55.5q-100 0 -161.5 55.5t-61.5 141.5zM791 825l-480 -825h-118l480 825h118zM152 643q0 -40 25.5 -65.5t66.5 -25.5q39 0 64.5 25.5t25.5 65.5t-26 66.5t-64 26.5q-39 0 -65.5 -26.5
t-26.5 -66.5zM516 182q0 86 61.5 141.5t161.5 55.5q96 0 157.5 -55.5t61.5 -141.5t-63 -141.5t-156 -55.5q-95 0 -159 55.5t-64 141.5zM645 182q0 -40 26.5 -66.5t65.5 -26.5q38 0 64 26.5t26 66.5t-25.5 65.5t-64.5 25.5q-41 0 -66.5 -25.5t-25.5 -65.5z" />
    <glyph glyph-name="ampersand" unicode="&#x26;" horiz-adv-x="973" 
d="M861 376q-6 -15 -17 -39t-42 -76t-58 -76l178 -185h-237l-82 85q-38 -27 -56 -38.5t-53.5 -29.5t-73 -25t-82.5 -7q-39 0 -77 6.5t-76.5 23t-67.5 41.5t-47.5 66.5t-18.5 94.5q0 37 17 71t48 62t63 49t73 43q-83 104 -83 183q0 98 68.5 156.5t194.5 58.5q116 0 180.5 -65
t64.5 -150q0 -35 -17 -68.5t-40.5 -57t-47.5 -41.5t-41 -27l-17 -9l110 -114zM432 707q-36 0 -54 -23t-18 -59q0 -21 15 -46.5t30 -40.5l15 -14q92 50 92 101q0 82 -80 82zM481 210l-131 129q-3 -1 -9 -3.5t-21 -12t-26 -21t-20.5 -30.5t-9.5 -40q0 -33 28 -51t65 -18
q30 0 61 11.5t47 23.5z" />
    <glyph glyph-name="quotesingle" unicode="'" horiz-adv-x="276" 
d="M72 860h132l-20 -279h-92z" />
    <glyph glyph-name="parenleft" unicode="(" horiz-adv-x="403" 
d="M345 -211l-115 -49q-7 9 -19 25t-42 71t-53 115.5t-42 154.5t-19 191q0 100 19.5 196t47.5 162t55.5 118t46.5 77l20 25l115 -49q-6 -7 -15.5 -20.5t-33.5 -62.5t-43 -105t-34 -148.5t-15 -192.5q0 -95 13 -182t32 -143.5t37.5 -100t31.5 -63.5z" />
    <glyph glyph-name="parenright" unicode=")" horiz-adv-x="403" 
d="M173 -260l-115 49q5 7 13.5 20.5t30.5 61t39 101.5t30.5 142t13.5 183q0 100 -14.5 191.5t-35.5 150.5t-41.5 103t-35.5 64l-14 20l115 49q8 -9 20.5 -26t45 -74.5t57.5 -120.5t45.5 -160t20.5 -197q0 -97 -18 -190t-44 -156.5t-51.5 -113t-43.5 -73.5z" />
    <glyph glyph-name="asterisk" unicode="*" horiz-adv-x="488" 
d="M402 778l26 -80l-114 -41l66 -99l-66 -45l-70 91l-70 -91l-66 45l66 99l-114 41l26 80l114 -35l1 117h86l1 -117z" />
    <glyph glyph-name="plus" unicode="+" horiz-adv-x="633" 
d="M393 158h-153v180h-180v153h180v180h153v-180h180v-153h-180v-180z" />
    <glyph glyph-name="comma" unicode="," horiz-adv-x="314" 
d="M157 166q36 0 61 -25t25 -61q0 -111 -126 -216l-38 32q5 5 12.5 13.5t23 36t21.5 55.5q-19 4 -33.5 15t-23 27.5t-8.5 36.5q0 35 25 60.5t61 25.5z" />
    <glyph glyph-name="hyphen" unicode="-" horiz-adv-x="442" 
d="M60 366h322v-153h-322v153z" />
    <glyph glyph-name="period" unicode="." horiz-adv-x="314" 
d="M72 88q0 36 25 62t60 26t60 -26t25 -62t-25 -62t-60 -26t-60 26t-25 62z" />
    <glyph glyph-name="slash" unicode="/" horiz-adv-x="611" 
d="M588 860l-412 -980h-153l412 980h153z" />
    <glyph glyph-name="zero" unicode="0" horiz-adv-x="813" 
d="M71 412q0 204 97 316t239 112t238.5 -112t96.5 -316q0 -111 -27 -195t-74.5 -133.5t-106 -74t-127.5 -24.5t-127.5 24.5t-106.5 74t-75 133.5t-27 195zM261 412q0 -131 38 -196.5t108 -65.5q69 0 107 65.5t38 196.5q0 125 -38.5 194t-106.5 69t-107 -69.5t-39 -193.5z
" />
    <glyph glyph-name="one" unicode="1" horiz-adv-x="413" 
d="M29 487v186l235 152h89v-825h-188v575z" />
    <glyph glyph-name="two" unicode="2" horiz-adv-x="753" 
d="M363 681q-40 0 -76.5 -39.5t-53.5 -78.5l-17 -39l-157 76q3 10 10 26t33 57.5t57.5 73t86 57.5t117.5 26q81 0 141.5 -20.5t93.5 -51t53.5 -72t26 -75.5t5.5 -71q0 -54 -30 -113.5t-72.5 -106t-85.5 -85t-73 -59.5l-30 -21h306v-165h-643v47q17 14 46 38.5t102 93.5
t129 129.5t102 129.5t46 112q0 17 -3.5 34t-13.5 41.5t-36 40t-64 15.5z" />
    <glyph glyph-name="three" unicode="3" horiz-adv-x="665" 
d="M205 587l-148 72q2 7 6 19.5t24 43.5t47 55t79 43.5t117 19.5q118 0 194.5 -67.5t76.5 -172.5q0 -98 -73 -155q105 -64 105 -189q0 -118 -86.5 -194.5t-219.5 -76.5q-71 0 -129 21t-90.5 50.5t-54 59.5t-29.5 51l-7 21l174 85q0 -5 1.5 -13.5t10.5 -30.5t22 -38.5
t39.5 -30t61.5 -13.5q53 0 86 29t33 80q0 53 -34.5 87t-84.5 34l-36 -6v123h41q39 0 69 30t30 74q0 39 -30.5 65t-71.5 26q-29 0 -52.5 -10.5t-36 -25.5t-21 -30t-10.5 -25z" />
    <glyph glyph-name="four" unicode="4" horiz-adv-x="812" 
d="M646 825v-486h96v-165h-96v-174h-176v174h-400v56l329 595h247zM470 574h-40l-109 -235h149v235z" />
    <glyph glyph-name="five" unicode="5" horiz-adv-x="641" 
d="M18 164l149 72q28 -94 145 -94q51 0 84.5 34t33.5 86t-32.5 85.5t-78 46.5t-103.5 13q-82 0 -141 -26l69 444h421v-165h-260l-18 -115q3 0 11 0.5t12 0.5q63 0 114.5 -14t97 -45t71 -90t25.5 -141q0 -118 -86.5 -194.5t-219.5 -76.5q-121 0 -194 52.5t-100 126.5z" />
    <glyph glyph-name="six" unicode="6" horiz-adv-x="689" 
d="M580 825l-243 -283q21 12 59 12q44 0 89 -18.5t84.5 -53t64.5 -91.5t25 -126q0 -70 -26.5 -125.5t-71 -88t-97.5 -49.5t-111 -17q-139 0 -234 81t-95 199q0 100 28 164.5t102 164.5l194 231h232zM219 265q0 -54 35 -89.5t90 -35.5t91 35.5t36 89.5q0 55 -36.5 91.5
t-90.5 36.5q-52 0 -88.5 -36.5t-36.5 -91.5z" />
    <glyph glyph-name="seven" unicode="7" horiz-adv-x="765" 
d="M712 825v-55q-156 -215 -265.5 -403t-170.5 -367h-222q15 34 49 111.5t52.5 118t53 108t64 114t72 103.5t89.5 105h-356v165h634z" />
    <glyph glyph-name="eight" unicode="8" horiz-adv-x="687" 
d="M613 632q0 -125 -106 -187q66 -30 105.5 -86t39.5 -137q0 -101 -93.5 -169t-214.5 -68q-124 0 -216.5 67.5t-92.5 169.5q0 157 144 223q-109 62 -109 187q0 88 83.5 148t189.5 60q109 0 189.5 -59.5t80.5 -148.5zM435 605q0 40 -25.5 66.5t-65.5 26.5t-66.5 -26.5
t-26.5 -66.5t27 -66t66 -26q40 0 65.5 25.5t25.5 66.5zM239 252q0 -46 29 -75.5t75 -29.5q45 0 75 29.5t30 75.5t-30.5 75.5t-74.5 29.5q-45 0 -74.5 -29.5t-29.5 -75.5z" />
    <glyph glyph-name="nine" unicode="9" horiz-adv-x="689" 
d="M109 0l243 283q-21 -12 -59 -12q-44 0 -89 18.5t-84.5 53t-64.5 91.5t-25 126q0 70 26.5 125.5t71 88t97.5 49.5t111 17q139 0 234 -81t95 -199q0 -100 -28 -164.5t-102 -164.5l-194 -231h-232zM470 560q0 54 -35 89.5t-90 35.5t-91 -35.5t-36 -89.5q0 -55 36.5 -91.5
t90.5 -36.5q52 0 88.5 36.5t36.5 91.5z" />
    <glyph glyph-name="colon" unicode=":" horiz-adv-x="314" 
d="M72 386q0 36 25 62t60 26t60 -26t25 -62t-25 -62t-60 -26t-60 26t-25 62zM72 88q0 36 25 62t60 26t60 -26t25 -62t-25 -62t-60 -26t-60 26t-25 62z" />
    <glyph glyph-name="semicolon" unicode=";" horiz-adv-x="314" 
d="M157 166q36 0 61 -25t25 -61q0 -111 -126 -216l-38 32q5 5 13 13.5t23.5 36t20.5 55.5q-28 7 -46 28t-18 51q0 35 25 60.5t60 25.5zM71 386q0 36 25 62t59.5 26t60 -26t25.5 -62t-25.5 -62t-60 -26t-59.5 26t-25 62z" />
    <glyph glyph-name="less" unicode="&#x3c;" horiz-adv-x="662" 
d="M60 475l547 222v-142l-358 -140l358 -138v-142l-547 222v118z" />
    <glyph glyph-name="equal" unicode="=" horiz-adv-x="633" 
d="M60 611h513v-153h-513v153zM60 371h513v-153h-513v153z" />
    <glyph glyph-name="greater" unicode="&#x3e;" horiz-adv-x="662" 
d="M55 277l358 138l-358 140v142l547 -222v-118l-547 -222v142z" />
    <glyph glyph-name="question" unicode="?" horiz-adv-x="670" 
d="M241 88q0 36 25 62t60 26t60 -26t25 -62t-25 -62t-60 -26t-60 26t-25 62zM207 540l-147 71q0 4 6 21.5t24 47t45.5 55.5t77.5 45.5t113 19.5q116 0 200 -68t84 -171q0 -127 -169 -199q-23 -10 -29 -27.5t-6 -48.5v-56h-165v109q0 27 2 42.5t13 34t32 32.5q16 10 43 23.5
t40 21.5t24 25.5t11 42.5q0 36 -23.5 59t-57.5 23q-49 0 -78.5 -31.5t-39.5 -71.5z" />
    <glyph glyph-name="at" unicode="@" horiz-adv-x="921" 
d="M718 344q33 0 47.5 22t14.5 76q0 117 -87.5 192t-219.5 75q-127 0 -215.5 -86.5t-88.5 -209.5q0 -121 89 -203.5t215 -82.5q59 0 105.5 17t63.5 34l18 17l116 -77q-4 -5 -11 -14t-33.5 -32t-58.5 -40.5t-86 -32t-114 -14.5q-122 0 -224.5 53.5t-164 152t-61.5 222.5
t61.5 222.5t164 151.5t224.5 53q179 0 302.5 -112t123.5 -286q0 -109 -60 -164t-143 -55q-85 0 -139 46l-9 -13q-49 -54 -126 -54q-82 0 -135.5 58t-53.5 143q0 86 53.5 144.5t135.5 58.5q76 0 126 -48v37h119v-209q0 -5 2 -12t15 -18.5t34 -11.5zM388 405q0 -35 22.5 -57.5
t58.5 -22.5q34 0 56.5 23t22.5 57q0 35 -23 58.5t-56 23.5q-34 0 -57.5 -23.5t-23.5 -58.5z" />
    <glyph glyph-name="A" unicode="A" horiz-adv-x="784" 
d="M479 825l333 -825h-202l-61 165h-314l-61 -165h-202l333 825h174zM485 330l-94 240l-92 -240h186z" />
    <glyph glyph-name="B" unicode="B" horiz-adv-x="666" 
d="M60 825h256q116 0 185 -49.5t69 -160.5q0 -124 -103 -177q176 -31 176 -208q0 -104 -72 -167t-198 -63h-313v825zM248 502h15q63 0 94 22t31 72q0 84 -125 84h-15v-178zM248 145h59q138 0 138 92q0 55 -34.5 79t-103.5 24h-59v-195z" />
    <glyph glyph-name="C" unicode="C" horiz-adv-x="753" 
d="M499 170q43 0 83.5 13t59.5 25l19 13l80 -160q-4 -3 -11 -8t-32.5 -18.5t-54.5 -23.5t-76 -18t-97 -8q-115 0 -218 56.5t-166 155.5t-63 214q0 87 37 167t98.5 137t143.5 91t168 34q80 0 147.5 -19t95.5 -38l28 -19l-80 -160q-7 6 -21 14.5t-56 22.5t-85 14
q-68 0 -122 -22t-85.5 -58t-48 -77.5t-16.5 -84.5q0 -94 70.5 -168.5t201.5 -74.5z" />
    <glyph glyph-name="D" unicode="D" horiz-adv-x="750" 
d="M60 825h239q172 0 294 -117.5t122 -294.5q0 -178 -121.5 -295.5t-294.5 -117.5h-239v825zM248 168h29q103 0 168.5 69.5t66.5 174.5q0 105 -65.5 175t-169.5 70h-29v-489z" />
    <glyph glyph-name="E" unicode="E" horiz-adv-x="580" 
d="M532 825v-165h-284v-164h272v-165h-272v-166h284v-165h-472v825h472z" />
    <glyph glyph-name="F" unicode="F" horiz-adv-x="567" 
d="M537 825v-165h-289v-164h267v-165h-267v-331h-188v825h477z" />
    <glyph glyph-name="G" unicode="G" horiz-adv-x="926" 
d="M762 94q-99 -109 -288 -109q-110 0 -202.5 57t-146 155.5t-53.5 214.5q0 117 51.5 215t144 155.5t206.5 57.5q201 0 318 -141l-124 -135q-66 106 -184 106q-87 0 -148.5 -75.5t-61.5 -182.5q0 -105 62 -179.5t148 -74.5q72 0 126 43.5t54 115.5h-170l-34 145h394v-145
l-32 -317l-64 34z" />
    <glyph glyph-name="H" unicode="H" horiz-adv-x="762" 
d="M248 331v-331h-188v825h188v-329h266v329h188v-825h-188v331h-266z" />
    <glyph glyph-name="I" unicode="I" horiz-adv-x="308" 
d="M248 825v-825h-188v825h188z" />
    <glyph glyph-name="J" unicode="J" horiz-adv-x="469" 
d="M419 825v-592q0 -121 -66.5 -184.5t-190.5 -63.5q-33 0 -65 8t-54 19.5t-39.5 23.5t-25.5 20l-9 8l60 157q59 -56 107 -56q43 0 69 28.5t26 87.5v544h188z" />
    <glyph glyph-name="K" unicode="K" horiz-adv-x="787" 
d="M811 0h-259l-304 350v-350h-188v825h188v-337l283 337h228l-332 -391z" />
    <glyph glyph-name="L" unicode="L" horiz-adv-x="565" 
d="M248 825v-660h284v-165h-472v825h188z" />
    <glyph glyph-name="M" unicode="M" horiz-adv-x="1048" 
d="M573 5h-98l-211 518l-2 -523h-187v825h266l183 -476l183 476h266v-825h-187l-2 523z" />
    <glyph glyph-name="N" unicode="N" horiz-adv-x="826" 
d="M248 512v-512h-188v825h188l328 -512h2v512h188v-825h-188l-328 512h-2z" />
    <glyph glyph-name="O" unicode="O" horiz-adv-x="877" 
d="M23 413q0 179 122 303t294 124q173 0 294 -123.5t121 -303.5q0 -181 -119 -304.5t-296 -123.5q-181 0 -298.5 122.5t-117.5 305.5zM226 413q0 -65 20 -118.5t70 -90.5t123 -37q105 0 158.5 72t53.5 174q0 101 -54.5 173.5t-157.5 72.5q-102 0 -157.5 -72.5t-55.5 -173.5z
" />
    <glyph glyph-name="P" unicode="P" horiz-adv-x="666" 
d="M60 825h301q126 0 204 -65t78 -189t-79 -194.5t-203 -70.5h-113v-306h-188v825zM248 456h53q63 0 103.5 25.5t40.5 83.5q0 59 -40.5 84.5t-103.5 25.5h-53v-219z" />
    <glyph glyph-name="Q" unicode="Q" horiz-adv-x="974" 
d="M458 651q-68 0 -115 -34.5t-68 -87t-21 -116.5q0 -48 11 -89.5t34.5 -75.5t64 -53.5t94.5 -19.5q52 0 93 19.5t65.5 53.5t37 76t12.5 89q0 48 -11.5 89.5t-35 75.5t-65 53.5t-96.5 19.5zM924 115l-84 -141q-53 29 -150 79q-99 -68 -228 -68q-120 0 -214.5 56.5t-146 154
t-51.5 217.5q0 118 55.5 216.5t149.5 154.5t207 56q112 0 206.5 -56t149 -154t54.5 -217q0 -128 -62 -231q30 -14 114 -67z" />
    <glyph glyph-name="R" unicode="R" horiz-adv-x="716" 
d="M60 825h295q119 0 194 -63.5t75 -181.5q0 -91 -45.5 -152.5t-123.5 -86.5l284 -341h-239l-252 326v-326h-188v825zM248 459h22q26 0 44 1t41 7t37 17t24 32t10 51t-10 51t-24 32t-37 17t-41 7t-44 1h-22v-216z" />
    <glyph glyph-name="S" unicode="S" horiz-adv-x="672" 
d="M364 840q67 0 131 -19.5t95 -38.5l30 -20l-76 -150q-9 6 -25 15.5t-60 25.5t-82 16q-47 0 -72.5 -20t-25.5 -54q0 -17 12 -31.5t41 -31t51 -26.5t68 -30q80 -34 136.5 -92.5t56.5 -132.5q0 -71 -25.5 -124t-70 -83t-98.5 -44.5t-117 -14.5q-54 0 -106 11t-87 27.5
t-63 32.5t-41 27l-13 11l94 158q12 -10 33 -25.5t74.5 -41.5t94.5 -26q119 0 119 81q0 17 -8.5 31.5t-30 29t-38 23t-54 26t-55.5 26.5q-75 37 -116 92.5t-41 119.5q0 111 82 181.5t187 70.5z" />
    <glyph glyph-name="T" unicode="T" horiz-adv-x="596" 
d="M8 660v165h580v-165h-196v-660h-188v660h-196z" />
    <glyph glyph-name="U" unicode="U" horiz-adv-x="793" 
d="M718 825v-532q0 -152 -81.5 -230t-240 -78t-240.5 78t-82 230v532h188v-477q0 -68 15 -107.5t43.5 -55t76 -15.5t76 15.5t43 55t14.5 107.5v477h188z" />
    <glyph glyph-name="V" unicode="V" horiz-adv-x="784" 
d="M318 0l-346 825h212l208 -542l208 542h212l-346 -825h-148z" />
    <glyph glyph-name="W" unicode="W" horiz-adv-x="1121" 
d="M693 0l-132 463l-132 -463h-209l-235 825h209l141 -566h5l150 566h142l150 -566h5l141 566h208l-235 -825h-208z" />
    <glyph glyph-name="X" unicode="X" horiz-adv-x="798" 
d="M832 0h-243l-195 281l-195 -281h-233l312 444l-260 381h224l152 -225l152 225h234l-270 -381z" />
    <glyph glyph-name="Y" unicode="Y" horiz-adv-x="736" 
d="M-30 825h226l172 -264l172 264h226l-304 -455v-370h-188v370z" />
    <glyph glyph-name="Z" unicode="Z" horiz-adv-x="838" 
d="M788 825l-410 -660h334l48 -165h-710l408 660h-301l-49 165h680z" />
    <glyph glyph-name="bracketleft" unicode="[" horiz-adv-x="442" 
d="M60 860h322v-117h-169v-886h169v-117h-322v1120z" />
    <glyph glyph-name="backslash" unicode="\" horiz-adv-x="665" 
d="M50 860l412 -980h153l-412 980h-153z" />
    <glyph glyph-name="bracketright" unicode="]" horiz-adv-x="442" 
d="M60 -143h169v886h-169v117h322v-1120h-322v117z" />
    <glyph glyph-name="asciicircum" unicode="^" horiz-adv-x="496" 
d="M340 605l-92 109l-92 -109h-161l207 235h92l207 -235h-161z" />
    <glyph glyph-name="underscore" unicode="_" horiz-adv-x="513" 
d="M0 -15h513v-85h-513v85z" />
    <glyph glyph-name="grave" unicode="`" horiz-adv-x="388" 
d="M138 840l203 -176l-56 -77l-238 138z" />
    <glyph glyph-name="a" unicode="a" horiz-adv-x="743" 
d="M72 256q0 114 72 193t182 79q103 0 168 -64v49h178v-513h-176v58h-2q-29 -33 -73 -53t-95 -20q-110 0 -182 78.5t-72 192.5zM260 256q0 -53 33 -86.5t87 -33.5q34 0 61 15.5t42 42.5t15 62q0 53 -34 87t-84 34q-51 0 -85.5 -34t-34.5 -87z" />
    <glyph glyph-name="b" unicode="b" horiz-adv-x="683" 
d="M660 256q0 -114 -72 -192.5t-183 -78.5q-102 0 -168 73h-2v-58h-175v860h177v-396q66 64 168 64q111 0 183 -79t72 -193zM472 256q0 53 -34.5 87t-85.5 34q-50 0 -84.5 -34t-34.5 -87q0 -52 33.5 -86t85.5 -34q54 0 87 33.5t33 86.5z" />
    <glyph glyph-name="c" unicode="c" horiz-adv-x="491" 
d="M333 383q-50 0 -86 -37t-36 -89q0 -53 36 -90t86 -37q24 0 45.5 6t31.5 12l9 6l60 -123q-7 -5 -19.5 -12.5t-57 -20.5t-95.5 -13q-113 0 -198.5 79.5t-85.5 190.5q0 112 85.5 192.5t198.5 80.5q51 0 94 -12t61 -24l17 -12l-60 -121q-33 24 -86 24z" />
    <glyph glyph-name="d" unicode="d" horiz-adv-x="683" 
d="M23 256q0 114 72 193t183 79q102 0 168 -64v396h177v-860h-175v58h-2q-66 -73 -168 -73q-111 0 -183 78.5t-72 192.5zM211 256q0 -53 33 -86.5t87 -33.5q52 0 85.5 34t33.5 86q0 53 -34.5 87t-84.5 34q-51 0 -85.5 -34t-34.5 -87z" />
    <glyph glyph-name="e" unicode="e" horiz-adv-x="603" 
d="M579 232h-372q0 -54 35 -80t76 -26q43 0 68 11.5t57 45.5l128 -64q-80 -134 -266 -134q-116 0 -199 79.5t-83 191.5t83 192t199 80q122 0 198.5 -70.5t76.5 -201.5q0 -18 -1 -24zM212 330h195q-6 40 -31.5 61.5t-65.5 21.5q-44 0 -70 -23t-28 -60z" />
    <glyph glyph-name="f" unicode="f" horiz-adv-x="523" 
d="M125 585v37q0 115 53.5 184t147.5 69q40 0 76.5 -11.5t53.5 -23.5l16 -11l-62 -125q-24 14 -53 14q-33 0 -44 -22.5t-11 -78.5v-32h118v-135h-118v-450h-177v450h-74v135h74z" />
    <glyph glyph-name="g" unicode="g" horiz-adv-x="683" 
d="M37 -126l145 71q40 -66 139 -66q46 0 85.5 29.5t39.5 90.5v38q-47 -52 -168 -52q-111 0 -183 78.5t-72 192.5t72 193t183 79q99 0 165 -61h3v46h177v-527q0 -125 -83 -193t-219 -68q-220 0 -284 149zM211 256q0 -53 33 -86.5t87 -33.5q52 0 85.5 34t33.5 86
q0 53 -34.5 87t-84.5 34q-51 0 -85.5 -34t-34.5 -87z" />
    <glyph glyph-name="h" unicode="h" horiz-adv-x="661" 
d="M60 0v860h177v-401h2q69 69 147 69q38 0 75.5 -10t72 -31t56 -59.5t21.5 -89.5v-338h-177v290q0 40 -25.5 70t-66.5 30q-40 0 -72.5 -31t-32.5 -69v-290h-177z" />
    <glyph glyph-name="i" unicode="i" horiz-adv-x="328" 
d="M74 0v526h180v-526h-180zM81 690q0 36 25 62t60 26t60 -26t25 -62t-25 -62t-60 -26t-60 26t-25 62z" />
    <glyph glyph-name="j" unicode="j" horiz-adv-x="427" 
d="M200 513h176v-592q0 -29 -5.5 -55.5t-19 -52.5t-34 -45t-53 -31t-72.5 -12q-16 0 -30 1t-24.5 2.5t-21 4t-17.5 4.5t-15 5t-12.5 5t-11 5.5t-10.5 4.5l56 143q23 -15 44 -15q50 0 50 70v558zM206 682q0 36 25 62t59.5 26t60 -26t25.5 -62t-25.5 -62t-60 -26t-59.5 26
t-25 62z" />
    <glyph glyph-name="k" unicode="k" horiz-adv-x="646" 
d="M646 513l-244 -245l268 -268h-228l-205 205v-205h-177v860h177v-526l179 179h230z" />
    <glyph glyph-name="l" unicode="l" horiz-adv-x="440" 
d="M101 825h177l4 -585v-9t3.5 -21.5t8.5 -27.5t17 -23t28 -14q10 -3 24 -7q20 -6 23.5 -8t1.5 -9q-1 -4 -1 -6l-2.5 -12.5t-7.5 -27.5t-13.5 -35t-21.5 -27.5t-30 -12.5h-20t-21.5 -0.5t-18.5 0t-17 1t-10 2.5q-58 27 -90 96.5t-31 140.5z" />
    <glyph glyph-name="m" unicode="m" horiz-adv-x="985" 
d="M60 0v513h177v-54h2q69 69 147 69q56 0 105 -23t74 -71q78 94 170 94q82 0 141 -46t59 -144v-338h-177v290q0 41 -22.5 68.5t-67.5 27.5q-39 0 -59.5 -23.5t-22.5 -56.5v-306h-177v290q0 41 -22.5 68.5t-67.5 27.5q-41 0 -61.5 -25.5t-20.5 -60.5v-300h-177z" />
    <glyph glyph-name="n" unicode="n" horiz-adv-x="661" 
d="M60 0v513h177v-54h2q69 69 147 69q38 0 75.5 -10t72 -31t56 -59.5t21.5 -89.5v-338h-177v290q0 40 -25.5 70t-66.5 30q-40 0 -72.5 -31t-32.5 -69v-290h-177z" />
    <glyph glyph-name="o" unicode="o" horiz-adv-x="661" 
d="M23 256q0 119 89 195.5t220 76.5q129 0 217.5 -77t88.5 -195t-86.5 -194.5t-219.5 -76.5q-138 0 -223.5 76t-85.5 195zM211 256q0 -53 33 -86.5t87 -33.5q52 0 85.5 34t33.5 86q0 53 -34.5 87t-84.5 34q-51 0 -85.5 -34t-34.5 -87z" />
    <glyph glyph-name="p" unicode="p" horiz-adv-x="683" 
d="M660 257q0 -114 -72 -193t-183 -79q-102 0 -168 64v-309h-177v773h175v-58h2q66 73 168 73q111 0 183 -78.5t72 -192.5zM472 257q0 53 -33 86.5t-87 33.5q-52 0 -85.5 -34t-33.5 -86q0 -53 34.5 -87t84.5 -34q51 0 85.5 34t34.5 87z" />
    <glyph glyph-name="q" unicode="q" horiz-adv-x="683" 
d="M23 257q0 114 72 192.5t183 78.5q102 0 168 -73h2v58h175v-773h-177v309q-66 -64 -168 -64q-111 0 -183 79t-72 193zM211 257q0 -53 34.5 -87t85.5 -34q50 0 84.5 34t34.5 87q0 52 -33.5 86t-85.5 34q-54 0 -87 -33.5t-33 -86.5z" />
    <glyph glyph-name="r" unicode="r" horiz-adv-x="498" 
d="M60 0v513h177v-74h2q2 4 6.5 10t19.5 21t32 27t44 21.5t55 9.5q29 0 57 -8t41 -16l14 -8l-74 -150q-33 28 -92 28q-32 0 -55 -14t-32.5 -34t-13.5 -34t-4 -22v-270h-177z" />
    <glyph glyph-name="s" unicode="s" horiz-adv-x="492" 
d="M283 528q44 0 87 -10t64 -20l21 -10l-58 -116q-60 32 -114 32q-30 0 -42.5 -6.5t-12.5 -24.5q0 -4 1 -8t4 -7.5t5.5 -6t8.5 -5.5t9.5 -4.5t11.5 -4.5l12 -4.5t13.5 -4.5t14.5 -4q31 -9 54 -20t48.5 -30t39.5 -48t14 -66q0 -175 -243 -175q-55 0 -104.5 17t-71.5 34
l-22 18l72 121q8 -7 21 -16.5t47 -26t59 -16.5q55 0 55 37q0 17 -14 26.5t-47.5 21.5t-52.5 22q-48 25 -76 56.5t-28 83.5q0 78 60.5 121.5t163.5 43.5z" />
    <glyph glyph-name="t" unicode="t" horiz-adv-x="395" 
d="M90 513v191h177v-191h108v-135h-108v-163q0 -71 40 -71q10 0 21 4t17 8l6 4l44 -143q-57 -32 -130 -32q-50 0 -86 17.5t-54.5 47t-26.5 62t-8 69.5v197h-74v135h74z" />
    <glyph glyph-name="u" unicode="u" horiz-adv-x="656" 
d="M227 513v-244q0 -76 23 -108t78 -32t78 32t23 108v244h177v-287q0 -128 -66.5 -184.5t-211.5 -56.5t-211.5 56.5t-66.5 184.5v287h177z" />
    <glyph glyph-name="v" unicode="v" horiz-adv-x="630" 
d="M190 513l125 -279l125 279h210l-275 -513h-120l-275 513h210z" />
    <glyph glyph-name="w" unicode="w" horiz-adv-x="986" 
d="M375 0h-120l-275 513h204l125 -277l123 277h122l123 -277l125 277h204l-275 -513h-120l-118 265z" />
    <glyph glyph-name="x" unicode="x" horiz-adv-x="654" 
d="M654 0h-214l-113 145l-113 -145h-214l219 268l-188 245h207l89 -119l89 119h207l-188 -245z" />
    <glyph glyph-name="y" unicode="y" horiz-adv-x="633" 
d="M449 513h204l-403 -773h-204l177 340l-243 433h204l143 -263z" />
    <glyph glyph-name="z" unicode="z" horiz-adv-x="561" 
d="M556 513l-254 -378h234v-135h-531l254 378h-212v135h509z" />
    <glyph glyph-name="braceleft" unicode="{" horiz-adv-x="446" 
d="M60 253v94q70 0 70 65v267q0 34 7 63.5t24 57.5t49.5 44t78.5 16h97v-128h-40q-27 0 -45 -19t-18 -49v-257q0 -75 -61 -107q61 -32 61 -107v-257q0 -30 18 -49t45 -19h40v-128h-97q-46 0 -78.5 16t-49.5 44t-24 57.5t-7 63.5v267q0 65 -70 65z" />
    <glyph glyph-name="bar" unicode="|" horiz-adv-x="273" 
d="M60 0v860h153v-860h-153z" />
    <glyph glyph-name="braceright" unicode="}" horiz-adv-x="446" 
d="M386 347v-94q-70 0 -70 -65v-267q0 -34 -7 -63.5t-24 -57.5t-49.5 -44t-78.5 -16h-97v128h40q27 0 45 19t18 49v257q0 75 61 107q-61 32 -61 107v257q0 30 -18 49t-45 19h-40v128h97q46 0 78.5 -16t49.5 -44t24 -57.5t7 -63.5v-267q0 -65 70 -65z" />
    <glyph glyph-name="asciitilde" unicode="~" horiz-adv-x="694" 
d="M541 521l93 -81q-3 -6 -8 -15t-22 -32.5t-36 -41.5t-49.5 -33t-61.5 -15q-67 0 -147 53q-48 32 -73 32q-26 0 -47 -19.5t-29 -38.5l-8 -20l-93 81q3 6 8 15t22 32.5t36 41.5t49.5 33t61.5 15t61 -9.5t44 -17.5t44 -27q46 -31 71 -31q26 0 47 19.5t29 39.5z" />
    <glyph glyph-name="exclamdown" unicode="&#xa1;" horiz-adv-x="317" 
d="M76 468q0 36 25 62t60 26t60 -26t25 -62t-25 -62t-60 -26t-60 26t-25 62zM70 -260l24 590h129l24 -590h-177z" />
    <glyph glyph-name="cent" unicode="&#xa2;" horiz-adv-x="491" 
d="M248 -129v121q-95 20 -160 94t-65 169q0 88 55.5 159t139.5 99v123h108v-109q45 -2 83 -14t54 -23l16 -10l-60 -121q-33 24 -86 24q-50 0 -86 -37t-36 -89q0 -53 36 -90t86 -37q24 0 45.5 6t31.5 12l9 6l60 -123q-43 -32 -123 -43v-117h-108z" />
    <glyph glyph-name="sterling" unicode="&#xa3;" horiz-adv-x="749" 
d="M55 387h102q-52 82 -52 171q0 123 73.5 203t207.5 80q66 0 118 -19.5t80 -47.5t46.5 -56t23.5 -48l6 -19l-158 -77l-2.5 12.5t-10.5 27.5t-20.5 35t-33.5 27.5t-49 12.5q-45 0 -70 -36t-25 -95q0 -24 2.5 -43.5t9 -39t10 -29t14 -32t12.5 -27.5h173v-98h-137q3 -21 3 -46
q0 -21 -7 -41t-14 -30l-7 -10q1 0 57 -16.5t100 -16.5q25 0 42 18t21 36l4 18l137 -68q-1 -6 -3.5 -16t-15 -35.5t-30.5 -45t-53.5 -35.5t-80.5 -16q-66 0 -167 29t-144 29q-18 0 -30 -10.5t-15 -21.5l-2 -11h-115q0 30 17 70t52 74t77 34q16 23 16 58q0 24 -12 53h-150v98z
" />
    <glyph glyph-name="currency" unicode="&#xa4;" horiz-adv-x="895" 
d="M841 121l-85 -97l-96 90q-91 -66 -206 -66q-111 0 -197 57l-85 -91l-97 84l90 97q-65 94 -65 217q0 104 52 190l-99 92l85 97l99 -92q95 76 217 76q113 0 205 -66l86 92l97 -85l-95 -101q59 -91 59 -203q0 -114 -58 -205zM272 412q0 -39 11 -75.5t32 -67t57 -48.5t82 -18
t81.5 18t56.5 48t31.5 66.5t10.5 76.5t-11 77t-32.5 67t-57 47.5t-79.5 17.5q-59 0 -101.5 -31t-61.5 -77t-19 -101z" />
    <glyph glyph-name="yen" unicode="&#xa5;" horiz-adv-x="764" 
d="M75 110v133h213v60h-213v133h169l-260 389h226l172 -264l172 264h226l-260 -389h168v-133h-212v-60h212v-133h-212v-110h-188v110h-213z" />
    <glyph glyph-name="brokenbar" unicode="&#xa6;" horiz-adv-x="273" 
d="M60 528v332h153v-332h-153zM60 0v332h153v-332h-153z" />
    <glyph glyph-name="section" unicode="&#xa7;" horiz-adv-x="640" 
d="M288 -275q-65 0 -116.5 19.5t-78 48t-44 56.5t-21.5 47l-5 20l160 34q1 -3 3 -8.5t10.5 -18.5t19 -23t30 -18.5t42.5 -8.5q82 0 82 55q0 15 -9.5 28t-34.5 28t-44.5 25t-61.5 29q-98 46 -147.5 101.5t-49.5 136.5q3 57 38 105t96 75q-46 33 -67.5 74t-21.5 101
q0 88 65.5 148.5t192.5 60.5q43 0 80 -10t61 -25.5t43 -35t29.5 -38.5t17 -34.5t8.5 -25.5l2 -10l-160 -34q0 3 -1 7t-6 15.5t-12.5 20t-24 15.5t-37.5 7q-30 0 -46.5 -15.5t-16.5 -39.5q0 -27 35.5 -50t116.5 -60q98 -46 147.5 -101.5t49.5 -136.5q-3 -57 -38 -105t-96 -75
q46 -34 67.5 -75t21.5 -100q0 -36 -13.5 -69.5t-43 -66.5t-87 -53t-135.5 -20zM299 378l-24 11q-84 -24 -88 -84q1 -23 24 -45t45.5 -34t62.5 -31q2 -1 8 -3.5t9 -4.5l23 -11q85 22 89 84q-1 23 -24 45t-45.5 34t-62.5 31q-2 1 -8 3.5t-9 4.5z" />
    <glyph glyph-name="dieresis" unicode="&#xa8;" horiz-adv-x="564" 
d="M163.5 791q38.5 0 65.5 -27t27 -65t-27 -65t-65.5 -27t-65 27t-26.5 65t26.5 65t65 27zM400.5 791q38.5 0 65 -27t26.5 -65t-26.5 -65t-65 -27t-65.5 27t-27 65t27 65t65.5 27z" />
    <glyph glyph-name="copyright" unicode="&#xa9;" horiz-adv-x="901" 
d="M23 412q0 177 125.5 302.5t301.5 125.5q177 0 302.5 -125.5t125.5 -302.5q0 -176 -125.5 -301.5t-302.5 -125.5q-176 0 -301.5 125.5t-125.5 301.5zM137 412q0 -129 92 -221t221 -92q130 0 222 92t92 221q0 130 -92 222t-222 92q-129 0 -221 -92t-92 -222zM490 516
q-41 0 -69.5 -29.5t-28.5 -71.5q0 -43 28.5 -72.5t69.5 -29.5q39 0 66 16q7 -16 22 -45t22 -45q-54 -33 -131 -33q-86 0 -152 61t-66 146q0 86 66 148.5t152 62.5q38 0 70.5 -8.5t44.5 -15.5t16 -11l-43 -89q-34 16 -67 16z" />
    <glyph glyph-name="ordfeminine" unicode="&#xaa;" horiz-adv-x="512" 
d="M70 671q0 71 44.5 120t113.5 49q62 0 105 -40v30h109v-317h-108v36h-1q-42 -45 -105 -45q-69 0 -113.5 48.5t-44.5 118.5zM187 671q0 -32 20.5 -53t53.5 -21q32 0 53 21t21 53q0 33 -21.5 54t-52.5 21t-52.5 -21t-21.5 -54z" />
    <glyph glyph-name="guillemotleft" unicode="&#xab;" horiz-adv-x="625" 
d="M228 28l-195 250l195 250l93 -73l-138 -177l138 -177zM478 28l-195 250l195 250l93 -73l-138 -177l138 -177z" />
    <glyph glyph-name="logicalnot" unicode="&#xac;" horiz-adv-x="662" 
d="M512 288h-438v85h438h76v-85v-91h-76v91z" />
    <glyph glyph-name="uni00AD" unicode="&#xad;" horiz-adv-x="408" 
d="M75 385h258v-153h-258v153z" />
    <glyph glyph-name="registered" unicode="&#xae;" horiz-adv-x="494" 
d="M23 615q0 93 65.5 159t157.5 66q94 0 159.5 -66t65.5 -159q0 -92 -65.5 -157.5t-159.5 -65.5q-92 0 -157.5 65.5t-65.5 157.5zM83 615q0 -67 48 -115t115 -48q69 0 117 47.5t48 115.5t-48 116.5t-117 48.5q-67 0 -115 -48.5t-48 -116.5zM178 720h73q30 0 49 -16t19 -45
q0 -45 -42 -60l73 -86h-62l-63 82v-82h-47v207zM225 628h6q37 0 37 27q0 28 -37 28h-6v-55z" />
    <glyph glyph-name="macron" unicode="&#xaf;" horiz-adv-x="548" 
d="M70 754h408v-120h-408v120z" />
    <glyph glyph-name="degree" unicode="&#xb0;" horiz-adv-x="372" 
d="M70 772q0 45 33.5 74t82.5 29t82.5 -29t33.5 -74t-32.5 -74t-83.5 -29t-83.5 29t-32.5 74zM143 772q0 -19 12 -32.5t31 -13.5t31.5 13.5t12.5 32.5t-12.5 32t-31.5 13q-18 0 -30.5 -13t-12.5 -32z" />
    <glyph glyph-name="plusminus" unicode="&#xb1;" horiz-adv-x="633" 
d="M393 208h-153v155h-180v153h180v155h153v-155h180v-153h-180v-155zM60 153h513v-153h-513v153z" />
    <glyph glyph-name="uni00B2" unicode="&#xb2;" horiz-adv-x="267" 
d="M152 778q-16 0 -30 -15t-20 -31l-7 -15l-61 30q1 4 3.5 10t13 22t22.5 28.5t33.5 22.5t45.5 10q39 0 66 -11.5t38.5 -30.5t16 -35.5t4.5 -35.5q0 -33 -28.5 -70.5t-56.5 -58.5l-28 -21h119v-64h-251v18q7 6 18 15.5t39.5 36t50.5 50.5t40 50.5t18 43.5q0 51 -46 51z" />
    <glyph glyph-name="uni00B3" unicode="&#xb3;" horiz-adv-x="253" 
d="M81 744l-56 27l2.5 7.5t9 16.5t18 21t30 16.5t44.5 7.5q45 0 74 -26t29 -66q0 -37 -28 -59q40 -24 40 -72q0 -46 -33 -75t-83 -29q-27 0 -49.5 8t-34.5 19.5t-20.5 23t-11.5 19.5l-3 8l67 32q0 -5 2 -13t15 -21.5t34 -13.5t33.5 11t12.5 31t-13 33t-33 13l-13 -2v47h15
q15 0 26.5 11.5t11.5 28.5q0 15 -12 25t-27 10q-18 0 -29.5 -9.5t-14.5 -19.5z" />
    <glyph glyph-name="acute" unicode="&#xb4;" horiz-adv-x="566" 
d="M136 664l203 176l91 -115l-238 -138z" />
    <glyph glyph-name="mu" unicode="&#xb5;" horiz-adv-x="705" 
d="M252 269q0 -76 22.5 -108t78 -32t78.5 32t23 108v244h176v-287q0 -128 -66 -184.5t-212 -56.5q-57 0 -100 8v-126h-178v359v287h178v-244z" />
    <glyph glyph-name="paragraph" unicode="&#xb6;" horiz-adv-x="708" 
d="M545 0v721h-61v-721h-103v306h-96q-117 0 -189.5 78t-72.5 187q0 108 72 181t190 73h363v-825h-103z" />
    <glyph glyph-name="periodcentered" unicode="&#xb7;" horiz-adv-x="314" 
d="M72 339q0 36 25 62t60 26t60 -26t25 -62t-25 -62t-60 -26t-60 26t-25 62z" />
    <glyph glyph-name="cedilla" unicode="&#xb8;" horiz-adv-x="446" 
d="M269 4l-22 -67q47 0 88 -27t41 -75q0 -53 -37.5 -91t-114.5 -38q-40 0 -78.5 21t-57.5 41l-18 21l72 54q4 -5 11.5 -13t29 -21t41.5 -13q26 0 38 11.5t12 27.5q0 22 -19 33.5t-43 11.5q-16 0 -29 -2t-17 -4l-5 -3l-10 8l48 147z" />
    <glyph glyph-name="uni00B9" unicode="&#xb9;" horiz-adv-x="140" 
d="M9 697v71l88 57h34v-312h-71v217z" />
    <glyph glyph-name="ordmasculine" unicode="&#xba;" horiz-adv-x="521" 
d="M70 671q0 73 55.5 121t136.5 48q80 0 134.5 -48t54.5 -121t-53.5 -120t-135.5 -47q-86 0 -139 47t-53 120zM187 671q0 -33 20.5 -53.5t53.5 -20.5q32 0 53 21t21 53q0 33 -21.5 54t-52.5 21t-52.5 -21t-21.5 -54z" />
    <glyph glyph-name="guillemotright" unicode="&#xbb;" horiz-adv-x="625" 
d="M147 528l195 -250l-195 -250l-93 73l138 177l-138 177zM304 101l138 177l-138 177l93 73l195 -250l-195 -250z" />
    <glyph glyph-name="onequarter" unicode="&#xbc;" horiz-adv-x="876" 
d="M60 628v109l136 88h52v-480h-109v335zM699 825l-480 -825h-118l480 825h118zM787 197h55v-96h-55v-101h-103v101h-236v33l231 346h108v-283zM684 334h-1l-85 -137h86v137z" />
    <glyph glyph-name="onehalf" unicode="&#xbd;" horiz-adv-x="945" 
d="M60 628v109l136 88h52v-480h-109v335zM699 825l-480 -825h-118l480 825h118zM710 391q-23 0 -44 -22.5t-30 -44.5l-10 -23l-90 43q2 6 6 15t18.5 33t32.5 42t49.5 33t67.5 15q57 0 96.5 -17t57 -45t24 -52.5t6.5 -51.5q0 -31 -17 -65t-41.5 -61t-49.5 -49t-42 -34
l-17 -12h176v-95h-369v27q10 8 26.5 22t58.5 53.5t74 74.5t58.5 74.5t26.5 64.5q0 14 -3 28t-19.5 30.5t-45.5 16.5z" />
    <glyph glyph-name="threequarters" unicode="&#xbe;" horiz-adv-x="977" 
d="M142 685l-84 41q1 4 3.5 11t13.5 24.5t26.5 31t45.5 24.5t67 11q67 0 110 -38t43 -98q0 -56 -41 -88q60 -37 60 -107q0 -67 -49.5 -111t-124.5 -44q-41 0 -74 12t-51 29t-30.5 34t-16.5 29l-4 12l99 48q0 -3 1 -7.5t6 -17t12 -22t22 -17t35 -7.5q30 0 49 16.5t19 45.5
q0 30 -19.5 49t-48.5 19l-20 -3v70h23q22 0 39 17t17 42q0 22 -17.5 37t-40.5 15q-26 0 -43.5 -14.5t-22.5 -28.5zM800 825l-480 -825h-118l480 825h118zM888 197h55v-96h-55v-101h-103v101h-236v33l231 346h108v-283zM785 334h-1l-85 -137h86v137z" />
    <glyph glyph-name="questiondown" unicode="&#xbf;" horiz-adv-x="672" 
d="M265 427q0 36 25 62t60 26t60 -26t25 -62t-25 -62t-60 -26t-60 26t-25 62zM611 -86q0 -4 -6 -21.5t-24 -47t-45.5 -55.5t-77.5 -45.5t-113 -19.5q-116 0 -200 68t-84 171q0 127 169 199q23 10 29 27.5t6 48.5v56h165v-109q0 -27 -2 -42.5t-13 -34t-32 -32.5
q-16 -10 -43 -23.5t-40 -21.5t-24 -25.5t-11 -42.5q0 -36 23.5 -59t57.5 -23q49 0 78.5 31.5t39.5 71.5z" />
    <glyph glyph-name="Agrave" unicode="&#xc0;" horiz-adv-x="784" 
d="M247 1152l203 -176l-56 -77l-238 138zM479 825l333 -825h-202l-61 165h-314l-61 -165h-202l333 825h174zM485 330l-92 240h-2l-92 -240h186z" />
    <glyph glyph-name="Aacute" unicode="&#xc1;" horiz-adv-x="784" 
d="M333 976l203 176l91 -115l-238 -138zM479 825l333 -825h-202l-61 165h-314l-61 -165h-202l333 825h174zM485 330l-92 240h-2l-92 -240h186z" />
    <glyph glyph-name="Acircumflex" unicode="&#xc2;" horiz-adv-x="784" 
d="M171 990l221 162l221 -162l-68 -91l-153 112l-153 -112zM479 825l333 -825h-202l-61 165h-314l-61 -165h-202l333 825h174zM485 330l-92 240h-2l-92 -240h186z" />
    <glyph glyph-name="Atilde" unicode="&#xc3;" horiz-adv-x="784" 
d="M383 954q-40 19 -76 19q-14 0 -25.5 -11.5t-15.5 -23.5l-4 -11h-101q1 7 3.5 18.5t13 41t24 52.5t39 41.5t56.5 18.5q17 0 43 -6.5t44 -13.5l17 -7q40 -19 76 -19q14 0 25.5 11.5t15.5 23.5l4 11h101q-1 -7 -3.5 -18.5t-13 -41t-24 -52.5t-39 -41.5t-56.5 -18.5
q-17 0 -43 6.5t-44 13.5zM479 825l333 -825h-202l-61 165h-314l-61 -165h-202l333 825h174zM485 330l-92 240h-2l-92 -240h186z" />
    <glyph glyph-name="Adieresis" unicode="&#xc4;" horiz-adv-x="784" 
d="M273 1103q38 0 65 -27t27 -65t-27 -65t-65 -27t-65 27t-27 65t27 65t65 27zM510 1103q38 0 65 -27t27 -65t-27 -65t-65 -27t-65 27t-27 65t27 65t65 27zM479 825l333 -825h-202l-61 165h-314l-61 -165h-202l333 825h174zM485 330l-92 240h-2l-92 -240h186z" />
    <glyph glyph-name="Aring" unicode="&#xc5;" horiz-adv-x="784" 
d="M231 1045q0 62 46.5 102t114.5 40q69 0 115 -40t46 -102q0 -63 -45 -103t-116 -40q-72 0 -116.5 40t-44.5 103zM331 1045q0 -27 17 -45.5t44 -18.5q26 0 43.5 18.5t17.5 45.5q0 26 -18 44t-43 18t-43 -18.5t-18 -43.5zM479 825l333 -825h-202l-61 165h-314l-61 -165h-202
l333 825h174zM485 330l-92 240h-2l-92 -240h186z" />
    <glyph glyph-name="AE" unicode="&#xc6;" horiz-adv-x="1296" 
d="M402 165l-87 -165h-253l472 825h700v-165h-355v-164h340v-165h-340v-166h355v-165h-590v165h-242zM644 330v302h-3l-156 -302h159z" />
    <glyph glyph-name="Ccedilla" unicode="&#xc7;" horiz-adv-x="753" 
d="M499 170q43 0 83.5 13t59.5 25l19 13l80 -160q-4 -3 -11 -8t-32.5 -18.5t-54.5 -23.5t-76 -18t-97 -8q-33 0 -60 4l-17 -52q47 0 88 -27t41 -75q0 -53 -37.5 -91t-114.5 -38q-40 0 -78.5 21t-57.5 41l-18 21l72 54q4 -5 11.5 -13t29 -21t41.5 -13q26 0 38 11.5t12 27.5
q0 22 -19 33.5t-43 11.5q-16 0 -29 -2t-17 -4l-5 -3l-10 8l41 126q-136 42 -225.5 154t-89.5 252q0 87 37 167t98.5 137t143.5 91t168 34q80 0 147.5 -19t95.5 -38l28 -19l-80 -160q-7 6 -21 14.5t-56 22.5t-85 14q-68 0 -122 -22t-85.5 -58t-48 -77.5t-16.5 -84.5
q0 -94 70.5 -168.5t201.5 -74.5z" />
    <glyph glyph-name="Egrave" unicode="&#xc8;" horiz-adv-x="580" 
d="M145 1152l203 -176l-56 -77l-238 138zM532 825v-165h-284v-164h272v-165h-272v-166h284v-165h-472v825h472z" />
    <glyph glyph-name="Eacute" unicode="&#xc9;" horiz-adv-x="580" 
d="M172 976l203 176l91 -115l-238 -138zM532 825v-165h-284v-164h272v-165h-272v-166h284v-165h-472v825h472z" />
    <glyph glyph-name="Ecircumflex" unicode="&#xca;" horiz-adv-x="580" 
d="M69 990l221 162l221 -162l-68 -91l-153 112l-153 -112zM532 825v-165h-284v-164h272v-165h-272v-166h284v-165h-472v825h472z" />
    <glyph glyph-name="Edieresis" unicode="&#xcb;" horiz-adv-x="580" 
d="M171 1103q38 0 65 -27t27 -65t-27 -65t-65 -27t-65 27t-27 65t27 65t65 27zM408 1103q38 0 65 -27t27 -65t-27 -65t-65 -27t-65 27t-27 65t27 65t65 27zM532 825v-165h-284v-164h272v-165h-272v-166h284v-165h-472v825h472z" />
    <glyph glyph-name="Igrave" unicode="&#xcc;" horiz-adv-x="308" 
d="M9 1152l203 -176l-56 -77l-238 138zM248 825v-825h-188v825h188z" />
    <glyph glyph-name="Iacute" unicode="&#xcd;" horiz-adv-x="308" 
d="M56 976l203 176l91 -115l-238 -138zM248 825v-825h-188v825h188z" />
    <glyph glyph-name="Icircumflex" unicode="&#xce;" horiz-adv-x="308" 
d="M-67 990l221 162l221 -162l-68 -91l-153 112l-153 -112zM248 825v-825h-188v825h188z" />
    <glyph glyph-name="Idieresis" unicode="&#xcf;" horiz-adv-x="308" 
d="M36 1103q38 0 65 -27t27 -65t-27 -65t-65 -27t-65 27t-27 65t27 65t65 27zM273 1103q38 0 65 -27t27 -65t-27 -65t-65 -27t-65 27t-27 65t27 65t65 27zM248 825v-825h-188v825h188z" />
    <glyph glyph-name="Eth" unicode="&#xd0;" horiz-adv-x="876" 
d="M152 489v336h238q113 0 208 -52.5t151.5 -147.5t56.5 -212q0 -118 -56.5 -213t-151.5 -147.5t-208 -52.5h-238v336l-82 36v89zM340 489l114 -28v-89l-114 -36v-168h28q104 0 169.5 69.5t66.5 174.5q0 105 -66 175t-170 70h-28v-168z" />
    <glyph glyph-name="Ntilde" unicode="&#xd1;" horiz-adv-x="826" 
d="M404 954q-40 19 -76 19q-14 0 -25.5 -11.5t-15.5 -23.5l-4 -11h-101q1 7 3.5 18.5t13 41t24 52.5t39 41.5t56.5 18.5q17 0 43 -6.5t43 -13.5l18 -7q40 -19 76 -19q14 0 25.5 11.5t15.5 23.5l4 11h101q-1 -7 -3.5 -18.5t-13 -41t-24 -52.5t-39 -41.5t-56.5 -18.5
q-17 0 -43 6.5t-43 13.5zM248 512v-512h-188v825h188l328 -512h2v512h188v-825h-188l-328 512h-2z" />
    <glyph glyph-name="Ograve" unicode="&#xd2;" horiz-adv-x="877" 
d="M293 1152l203 -176l-56 -77l-238 138zM23 413q0 179 122 303t294 124q173 0 294 -123.5t121 -303.5q0 -181 -119 -304.5t-296 -123.5q-181 0 -298.5 122.5t-117.5 305.5zM226 413q0 -65 20 -118.5t70 -90.5t123 -37q105 0 158.5 72t53.5 174q0 101 -54.5 173.5
t-157.5 72.5q-102 0 -157.5 -72.5t-55.5 -173.5z" />
    <glyph glyph-name="Oacute" unicode="&#xd3;" horiz-adv-x="877" 
d="M340 976l203 176l91 -115l-238 -138zM23 413q0 179 122 303t294 124q173 0 294 -123.5t121 -303.5q0 -181 -119 -304.5t-296 -123.5q-181 0 -298.5 122.5t-117.5 305.5zM226 413q0 -65 20 -118.5t70 -90.5t123 -37q105 0 158.5 72t53.5 174q0 101 -54.5 173.5
t-157.5 72.5q-102 0 -157.5 -72.5t-55.5 -173.5z" />
    <glyph glyph-name="Ocircumflex" unicode="&#xd4;" horiz-adv-x="877" 
d="M217 990l221 162l221 -162l-68 -91l-153 112l-153 -112zM23 413q0 179 122 303t294 124q173 0 294 -123.5t121 -303.5q0 -181 -119 -304.5t-296 -123.5q-181 0 -298.5 122.5t-117.5 305.5zM226 413q0 -65 20 -118.5t70 -90.5t123 -37q105 0 158.5 72t53.5 174
q0 101 -54.5 173.5t-157.5 72.5q-102 0 -157.5 -72.5t-55.5 -173.5z" />
    <glyph glyph-name="Otilde" unicode="&#xd5;" horiz-adv-x="877" 
d="M429 954q-40 19 -76 19q-14 0 -25.5 -11.5t-15.5 -23.5l-4 -11h-101q1 7 3.5 18.5t13 41t24 52.5t39 41.5t56.5 18.5q17 0 43 -6.5t44 -13.5l17 -7q40 -19 76 -19q14 0 25.5 11.5t15.5 23.5l4 11h101q-1 -7 -3.5 -18.5t-13 -41t-24 -52.5t-39 -41.5t-56.5 -18.5
q-17 0 -43 6.5t-44 13.5zM23 413q0 179 122 303t294 124q173 0 294 -123.5t121 -303.5q0 -181 -119 -304.5t-296 -123.5q-181 0 -298.5 122.5t-117.5 305.5zM226 413q0 -65 20 -118.5t70 -90.5t123 -37q105 0 158.5 72t53.5 174q0 101 -54.5 173.5t-157.5 72.5
q-102 0 -157.5 -72.5t-55.5 -173.5z" />
    <glyph glyph-name="Odieresis" unicode="&#xd6;" horiz-adv-x="877" 
d="M320 1103q38 0 65 -27t27 -65t-27 -65t-65 -27t-65 27t-27 65t27 65t65 27zM557 1103q38 0 65 -27t27 -65t-27 -65t-65 -27t-65 27t-27 65t27 65t65 27zM23 413q0 179 122 303t294 124q173 0 294 -123.5t121 -303.5q0 -181 -119 -304.5t-296 -123.5q-181 0 -298.5 122.5
t-117.5 305.5zM226 413q0 -65 20 -118.5t70 -90.5t123 -37q105 0 158.5 72t53.5 174q0 101 -54.5 173.5t-157.5 72.5q-102 0 -157.5 -72.5t-55.5 -173.5z" />
    <glyph glyph-name="multiply" unicode="&#xd7;" horiz-adv-x="633" 
d="M577 262l-107 -108l-153 153l-153 -153l-108 109l152 152l-152 153l108 107l152 -152l153 152l108 -108l-153 -153z" />
    <glyph glyph-name="Oslash" unicode="&#xd8;" horiz-adv-x="877" 
d="M67 59l55 69q-99 118 -99 285q0 179 122 303t294 124q109 0 205 -55l54 68l112 -86l-58 -73q102 -120 102 -281q0 -181 -119 -304.5t-296 -123.5q-115 0 -209 53l-51 -65zM226 413q0 -70 23 -125l279 352q-40 19 -89 19q-102 0 -157.5 -72.5t-55.5 -173.5zM651 413
q0 67 -25 123l-279 -351q39 -18 92 -18q105 0 158.5 72t53.5 174z" />
    <glyph glyph-name="Ugrave" unicode="&#xd9;" horiz-adv-x="744" 
d="M227 1152l203 -176l-56 -77l-238 138zM506 825v-477q0 -100 -31.5 -139t-102.5 -39t-102.5 39t-31.5 139v477h-188v-532q0 -152 82 -230t240 -78t240 78t82 230v532h-188z" />
    <glyph glyph-name="Uacute" unicode="&#xda;" horiz-adv-x="744" 
d="M254 976l203 176l91 -115l-238 -138zM506 825v-477q0 -100 -31.5 -139t-102.5 -39t-102.5 39t-31.5 139v477h-188v-532q0 -152 82 -230t240 -78t240 78t82 230v532h-188z" />
    <glyph glyph-name="Ucircumflex" unicode="&#xdb;" horiz-adv-x="744" 
d="M151 990l221 162l221 -162l-68 -91l-153 112l-153 -112zM506 825v-477q0 -100 -31.5 -139t-102.5 -39t-102.5 39t-31.5 139v477h-188v-532q0 -152 82 -230t240 -78t240 78t82 230v532h-188z" />
    <glyph glyph-name="Udieresis" unicode="&#xdc;" horiz-adv-x="744" 
d="M253 1103q38 0 65 -27t27 -65t-27 -65t-65 -27t-65 27t-27 65t27 65t65 27zM490 1103q38 0 65 -27t27 -65t-27 -65t-65 -27t-65 27t-27 65t27 65t65 27zM506 825v-477q0 -100 -31.5 -139t-102.5 -39t-102.5 39t-31.5 139v477h-188v-532q0 -152 82 -230t240 -78t240 78
t82 230v532h-188z" />
    <glyph glyph-name="Yacute" unicode="&#xdd;" horiz-adv-x="736" 
d="M251 976l203 176l91 -115l-238 -138zM-30 825h226l172 -264l172 264h226l-304 -455v-370h-188v370z" />
    <glyph glyph-name="Thorn" unicode="&#xde;" horiz-adv-x="666" 
d="M248 825v-153h113q126 0 204 -65t78 -189t-79 -194.5t-203 -70.5h-113v-153h-188v825h188zM248 303h53q139 0 139 109q0 110 -139 110h-53v-219z" />
    <glyph glyph-name="germandbls" unicode="&#xdf;" horiz-adv-x="656" 
d="M326 -15v162q52 0 85.5 32.5t33.5 84.5q0 57 -31.5 91t-87.5 34v135q45 0 76.5 30t31.5 76q0 45 -24 70.5t-67 25.5q-28 0 -52 -24.5t-24 -65.5v-636h-177v325v135v162q0 110 75 181.5t178 71.5q115 -2 186.5 -71.5t71.5 -173.5q0 -114 -100 -170q132 -61 132 -205
q0 -118 -86.5 -194t-220.5 -76z" />
    <glyph glyph-name="agrave" unicode="&#xe0;" horiz-adv-x="683" 
d="M196 840l203 -176l-56 -77l-238 138zM23 256q0 -114 72 -192.5t183 -78.5q102 0 168 73h2v-58h175v513h-177v-49q-66 64 -168 64q-111 0 -183 -79t-72 -193zM211 256q0 53 34.5 87t85.5 34q50 0 84.5 -34t34.5 -87q0 -52 -33.5 -86t-85.5 -34q-54 0 -87 33.5t-33 86.5z
" />
    <glyph glyph-name="aacute" unicode="&#xe1;" horiz-adv-x="683" 
d="M283 664l203 176l91 -115l-238 -138zM23 256q0 -114 72 -192.5t183 -78.5q102 0 168 73h2v-58h175v513h-177v-49q-66 64 -168 64q-111 0 -183 -79t-72 -193zM211 256q0 53 34.5 87t85.5 34q50 0 84.5 -34t34.5 -87q0 -52 -33.5 -86t-85.5 -34q-54 0 -87 33.5t-33 86.5z
" />
    <glyph glyph-name="acircumflex" unicode="&#xe2;" horiz-adv-x="683" 
d="M120 678l221 162l221 -162l-68 -91l-153 112l-153 -112zM23 256q0 -114 72 -192.5t183 -78.5q102 0 168 73h2v-58h175v513h-177v-49q-66 64 -168 64q-111 0 -183 -79t-72 -193zM211 256q0 53 34.5 87t85.5 34q50 0 84.5 -34t34.5 -87q0 -52 -33.5 -86t-85.5 -34
q-54 0 -87 33.5t-33 86.5z" />
    <glyph glyph-name="atilde" unicode="&#xe3;" horiz-adv-x="683" 
d="M332 642q-40 19 -76 19q-14 0 -25.5 -11.5t-15.5 -23.5l-4 -11h-101q1 7 3.5 18.5t13 41t24 52.5t39 41.5t56.5 18.5q17 0 43 -6.5t43 -13.5l18 -7q40 -19 76 -19q14 0 25.5 11.5t15.5 23.5l4 11h101q-1 -7 -3.5 -18.5t-13 -41t-24 -52.5t-39 -41.5t-56.5 -18.5
q-17 0 -43 6.5t-43 13.5zM23 256q0 -114 72 -192.5t183 -78.5q102 0 168 73h2v-58h175v513h-177v-49q-66 64 -168 64q-111 0 -183 -79t-72 -193zM211 256q0 53 34.5 87t85.5 34q50 0 84.5 -34t34.5 -87q0 -52 -33.5 -86t-85.5 -34q-54 0 -87 33.5t-33 86.5z" />
    <glyph glyph-name="adieresis" unicode="&#xe4;" horiz-adv-x="683" 
d="M223 791q38 0 65 -27t27 -65t-27 -65t-65 -27t-65 27t-27 65t27 65t65 27zM460 791q38 0 65 -27t27 -65t-27 -65t-65 -27t-65 27t-27 65t27 65t65 27zM23 256q0 -114 72 -192.5t183 -78.5q102 0 168 73h2v-58h175v513h-177v-49q-66 64 -168 64q-111 0 -183 -79t-72 -193z
M211 256q0 53 34.5 87t85.5 34q50 0 84.5 -34t34.5 -87q0 -52 -33.5 -86t-85.5 -34q-54 0 -87 33.5t-33 86.5z" />
    <glyph glyph-name="aring" unicode="&#xe5;" horiz-adv-x="683" 
d="M180 733q0 62 46.5 102t114.5 40q69 0 115 -40t46 -102q0 -63 -45 -103t-116 -40q-72 0 -116.5 40t-44.5 103zM280 733q0 -27 17 -45.5t44 -18.5q26 0 43.5 18.5t17.5 45.5q0 26 -18 44t-43 18t-43 -18.5t-18 -43.5zM23 256q0 114 72 193t183 79q102 0 168 -64v49h177
v-513h-175v58h-2q-66 -73 -168 -73q-111 0 -183 78.5t-72 192.5zM211 256q0 -53 33 -86.5t87 -33.5q52 0 85.5 34t33.5 86q0 53 -34.5 87t-84.5 34q-51 0 -85.5 -34t-34.5 -87z" />
    <glyph glyph-name="ae" unicode="&#xe6;" horiz-adv-x="1013" 
d="M147 357l-56 121q7 6 21.5 14t65 22t108.5 14q131 0 212 -64q78 64 182 64q122 0 198.5 -70.5t76.5 -201.5q0 -18 -1 -24h-372q0 -54 35 -80t76 -26q43 0 68 11.5t57 45.5l128 -64q-80 -134 -266 -134q-129 0 -213 94q-3 -4 -8 -10t-24 -22.5t-42 -29t-62 -22.5t-83 -10
q-82 0 -136 41.5t-54 109.5q0 71 49 118t134 47q101 0 157 -39v37q0 39 -35 63.5t-77 24.5q-41 0 -75.5 -7.5t-48.5 -15.5zM587 330h195q-6 40 -31.5 61.5t-65.5 21.5q-44 0 -70 -23t-28 -60zM234 151q0 -27 22 -43.5t57 -16.5t60 18.5t25 41.5t-25 39.5t-60 16.5
q-36 0 -57.5 -14.5t-21.5 -41.5z" />
    <glyph glyph-name="ccedilla" unicode="&#xe7;" horiz-adv-x="491" 
d="M177 -121l39 121q-83 28 -138 98t-55 157q0 112 85.5 192.5t198.5 80.5q51 0 94 -12t61 -24l17 -12l-60 -121q-33 24 -86 24q-50 0 -86 -37t-36 -89q0 -53 36 -90t86 -37q24 0 45.5 6t31.5 12l9 6l60 -123q-7 -5 -19.5 -12.5t-57 -20.5t-95.5 -13q-12 0 -18 1l-16 -49
q47 0 88 -27t41 -75q0 -53 -37.5 -91t-114.5 -38q-40 0 -78.5 21t-57.5 41l-18 21l72 54q4 -5 11.5 -13t29 -21t41.5 -13q26 0 38 11.5t12 27.5q0 22 -19 33.5t-43 11.5q-16 0 -29 -2t-17 -4l-5 -3z" />
    <glyph glyph-name="egrave" unicode="&#xe8;" horiz-adv-x="603" 
d="M156 840l203 -176l-56 -77l-238 138zM579 232h-372q0 -54 35 -80t76 -26q43 0 68 11.5t57 45.5l128 -64q-80 -134 -266 -134q-116 0 -199 79.5t-83 191.5t83 192t199 80q122 0 198.5 -70.5t76.5 -201.5q0 -18 -1 -24zM212 330h195q-6 40 -31.5 61.5t-65.5 21.5
q-44 0 -70 -23t-28 -60z" />
    <glyph glyph-name="eacute" unicode="&#xe9;" horiz-adv-x="603" 
d="M243 664l203 176l91 -115l-238 -138zM579 232h-372q0 -54 35 -80t76 -26q43 0 68 11.5t57 45.5l128 -64q-80 -134 -266 -134q-116 0 -199 79.5t-83 191.5t83 192t199 80q122 0 198.5 -70.5t76.5 -201.5q0 -18 -1 -24zM212 330h195q-6 40 -31.5 61.5t-65.5 21.5
q-44 0 -70 -23t-28 -60z" />
    <glyph glyph-name="ecircumflex" unicode="&#xea;" horiz-adv-x="603" 
d="M80 678l221 162l221 -162l-68 -91l-153 112l-153 -112zM579 232h-372q0 -54 35 -80t76 -26q43 0 68 11.5t57 45.5l128 -64q-80 -134 -266 -134q-116 0 -199 79.5t-83 191.5t83 192t199 80q122 0 198.5 -70.5t76.5 -201.5q0 -18 -1 -24zM212 330h195q-6 40 -31.5 61.5
t-65.5 21.5q-44 0 -70 -23t-28 -60z" />
    <glyph glyph-name="edieresis" unicode="&#xeb;" horiz-adv-x="603" 
d="M183 791q38 0 65 -27t27 -65t-27 -65t-65 -27t-65 27t-27 65t27 65t65 27zM420 791q38 0 65 -27t27 -65t-27 -65t-65 -27t-65 27t-27 65t27 65t65 27zM579 232h-372q0 -54 35 -80t76 -26q43 0 68 11.5t57 45.5l128 -64q-80 -134 -266 -134q-116 0 -199 79.5t-83 191.5
t83 192t199 80q122 0 198.5 -70.5t76.5 -201.5q0 -18 -1 -24zM212 330h195q-6 40 -31.5 61.5t-65.5 21.5q-44 0 -70 -23t-28 -60z" />
    <glyph glyph-name="igrave" unicode="&#xec;" horiz-adv-x="297" 
d="M4 840l203 -176l-56 -77l-238 138zM60 513v-513h177v513h-177z" />
    <glyph glyph-name="iacute" unicode="&#xed;" horiz-adv-x="297" 
d="M90 664l203 176l91 -115l-238 -138zM60 513v-513h177v513h-177z" />
    <glyph glyph-name="icircumflex" unicode="&#xee;" horiz-adv-x="297" 
d="M-72 678l221 162l221 -162l-68 -91l-153 112l-153 -112zM60 513v-513h177v513h-177z" />
    <glyph glyph-name="idieresis" unicode="&#xef;" horiz-adv-x="297" 
d="M30 791q38 0 65 -27t27 -65t-27 -65t-65 -27t-65 27t-27 65t27 65t65 27zM267 791q38 0 65 -27t27 -65t-27 -65t-65 -27t-65 27t-27 65t27 65t65 27zM60 513v-513h177v513h-177z" />
    <glyph glyph-name="eth" unicode="&#xf0;" horiz-adv-x="684" 
d="M41 256q0 79 42 143.5t100.5 96.5t115.5 32q61 0 90 -16q-44 63 -117 115l-83 -82l-77 77l62 62q-28 13 -56 23.5t-42 14.5l-13 3l42 150q85 -19 188 -72l73 72l76 -78l-52 -52q266 -187 266 -489q0 -118 -86.5 -194.5t-219.5 -76.5q-138 0 -223.5 76t-85.5 195zM229 256
q0 -53 33 -86.5t87 -33.5q52 0 85.5 34t33.5 86v5q-2 51 -36.5 83.5t-82.5 32.5q-51 0 -85.5 -34t-34.5 -87z" />
    <glyph glyph-name="ntilde" unicode="&#xf1;" horiz-adv-x="661" 
d="M321 642q-40 19 -76 19q-14 0 -25.5 -11.5t-15.5 -23.5l-4 -11h-101q1 7 3.5 18.5t13 41t24 52.5t39 41.5t56.5 18.5q17 0 43 -6.5t44 -13.5l17 -7q40 -19 76 -19q14 0 25.5 11.5t15.5 23.5l4 11h101q-1 -7 -3.5 -18.5t-13 -41t-24 -52.5t-39 -41.5t-56.5 -18.5
q-17 0 -43 6.5t-44 13.5zM237 0v290q0 38 32.5 69t72.5 31q41 0 66.5 -30t25.5 -70v-290h177v338q0 51 -21.5 89.5t-56 59.5t-72 31t-75.5 10q-78 0 -147 -69h-2v54h-177v-513h177z" />
    <glyph glyph-name="ograve" unicode="&#xf2;" horiz-adv-x="661" 
d="M185 840l203 -176l-56 -77l-238 138zM23 256q0 -119 85.5 -195t223.5 -76q133 0 219.5 76.5t86.5 194.5t-88.5 195t-217.5 77q-131 0 -220 -76.5t-89 -195.5zM211 256q0 53 34.5 87t85.5 34q50 0 84.5 -34t34.5 -87q0 -52 -33.5 -86t-85.5 -34q-54 0 -87 33.5t-33 86.5z
" />
    <glyph glyph-name="oacute" unicode="&#xf3;" horiz-adv-x="661" 
d="M232 664l203 176l91 -115l-238 -138zM23 256q0 -119 85.5 -195t223.5 -76q133 0 219.5 76.5t86.5 194.5t-88.5 195t-217.5 77q-131 0 -220 -76.5t-89 -195.5zM211 256q0 53 34.5 87t85.5 34q50 0 84.5 -34t34.5 -87q0 -52 -33.5 -86t-85.5 -34q-54 0 -87 33.5t-33 86.5z
" />
    <glyph glyph-name="ocircumflex" unicode="&#xf4;" horiz-adv-x="661" 
d="M109 678l221 162l221 -162l-68 -91l-153 112l-153 -112zM23 256q0 -119 85.5 -195t223.5 -76q133 0 219.5 76.5t86.5 194.5t-88.5 195t-217.5 77q-131 0 -220 -76.5t-89 -195.5zM211 256q0 53 34.5 87t85.5 34q50 0 84.5 -34t34.5 -87q0 -52 -33.5 -86t-85.5 -34
q-54 0 -87 33.5t-33 86.5z" />
    <glyph glyph-name="otilde" unicode="&#xf5;" horiz-adv-x="661" 
d="M321 642q-40 19 -76 19q-14 0 -25.5 -11.5t-15.5 -23.5l-4 -11h-101q1 7 3.5 18.5t13 41t24 52.5t39 41.5t56.5 18.5q17 0 43 -6.5t44 -13.5l17 -7q40 -19 76 -19q14 0 25.5 11.5t15.5 23.5l4 11h101q-1 -7 -3.5 -18.5t-13 -41t-24 -52.5t-39 -41.5t-56.5 -18.5
q-17 0 -43 6.5t-44 13.5zM23 256q0 -119 85.5 -195t223.5 -76q133 0 219.5 76.5t86.5 194.5t-88.5 195t-217.5 77q-131 0 -220 -76.5t-89 -195.5zM211 256q0 53 34.5 87t85.5 34q50 0 84.5 -34t34.5 -87q0 -52 -33.5 -86t-85.5 -34q-54 0 -87 33.5t-33 86.5z" />
    <glyph glyph-name="odieresis" unicode="&#xf6;" horiz-adv-x="661" 
d="M212 791q38 0 65 -27t27 -65t-27 -65t-65 -27t-65 27t-27 65t27 65t65 27zM449 791q38 0 65 -27t27 -65t-27 -65t-65 -27t-65 27t-27 65t27 65t65 27zM23 256q0 -119 85.5 -195t223.5 -76q133 0 219.5 76.5t86.5 194.5t-88.5 195t-217.5 77q-131 0 -220 -76.5t-89 -195.5
zM211 256q0 53 34.5 87t85.5 34q50 0 84.5 -34t34.5 -87q0 -52 -33.5 -86t-85.5 -34q-54 0 -87 33.5t-33 86.5z" />
    <glyph glyph-name="divide" unicode="&#xf7;" horiz-adv-x="633" 
d="M315 720q35 0 58.5 -24t23.5 -58q0 -33 -24 -56.5t-58 -23.5q-33 0 -56.5 23.5t-23.5 56.5q0 34 23.5 58t56.5 24zM60 491h513v-153h-513v153zM315 271q35 0 58.5 -23.5t23.5 -58.5q0 -33 -24 -56.5t-58 -23.5q-33 0 -56.5 23.5t-23.5 56.5q0 34 23.5 58t56.5 24z" />
    <glyph glyph-name="oslash" unicode="&#xf8;" horiz-adv-x="661" 
d="M668 484l-85 -69q55 -68 55 -159q0 -118 -86.5 -194.5t-219.5 -76.5q-124 0 -205 61l-89 -72l-45 54l83 67q-53 69 -53 161q0 119 89 195.5t220 76.5q116 0 201 -63l90 73zM211 256q0 -26 7 -46l181 146q-31 21 -68 21q-51 0 -85.5 -34t-34.5 -87zM331 136q52 0 85.5 34
t33.5 86q0 23 -8 45l-180 -146q30 -19 69 -19z" />
    <glyph glyph-name="ugrave" unicode="&#xf9;" horiz-adv-x="656" 
d="M183 840l203 -176l-56 -77l-238 138zM50 513v-287q0 -128 66.5 -184.5t211.5 -56.5t211.5 56.5t66.5 184.5v287h-177v-244q0 -76 -23 -108t-78 -32t-78 32t-23 108v244h-177z" />
    <glyph glyph-name="uacute" unicode="&#xfa;" horiz-adv-x="656" 
d="M269 664l203 176l91 -115l-238 -138zM50 513v-287q0 -128 66.5 -184.5t211.5 -56.5t211.5 56.5t66.5 184.5v287h-177v-244q0 -76 -23 -108t-78 -32t-78 32t-23 108v244h-177z" />
    <glyph glyph-name="ucircumflex" unicode="&#xfb;" horiz-adv-x="656" 
d="M107 678l221 162l221 -162l-68 -91l-153 112l-153 -112zM50 513v-287q0 -128 66.5 -184.5t211.5 -56.5t211.5 56.5t66.5 184.5v287h-177v-244q0 -76 -23 -108t-78 -32t-78 32t-23 108v244h-177z" />
    <glyph glyph-name="udieresis" unicode="&#xfc;" horiz-adv-x="656" 
d="M209 791q38 0 65 -27t27 -65t-27 -65t-65 -27t-65 27t-27 65t27 65t65 27zM446 791q38 0 65 -27t27 -65t-27 -65t-65 -27t-65 27t-27 65t27 65t65 27zM50 513v-287q0 -128 66.5 -184.5t211.5 -56.5t211.5 56.5t66.5 184.5v287h-177v-244q0 -76 -23 -108t-78 -32t-78 32
t-23 108v244h-177z" />
    <glyph glyph-name="yacute" unicode="&#xfd;" horiz-adv-x="633" 
d="M219 664l203 176l91 -115l-238 -138zM449 513h204l-403 -773h-204l177 340l-243 433h204l143 -263z" />
    <glyph glyph-name="thorn" unicode="&#xfe;" horiz-adv-x="683" 
d="M660 256q0 -114 -72 -192.5t-183 -78.5q-102 0 -168 73h-2v-318h-175v1120h177v-396q66 64 168 64q111 0 183 -79t72 -193zM472 256q0 53 -34.5 87t-85.5 34q-50 0 -84.5 -34t-34.5 -87q0 -52 33.5 -86t85.5 -34q54 0 87 33.5t33 86.5z" />
    <glyph glyph-name="ydieresis" unicode="&#xff;" horiz-adv-x="633" 
d="M198 791q38 0 65 -27t27 -65t-27 -65t-65 -27t-65 27t-27 65t27 65t65 27zM435 791q38 0 65 -27t27 -65t-27 -65t-65 -27t-65 27t-27 65t27 65t65 27zM449 513h204l-403 -773h-204l177 340l-243 433h204l143 -263z" />
    <glyph glyph-name="Amacron" unicode="&#x100;" horiz-adv-x="784" 
d="M188 1066h408v-120h-408v120zM479 825l333 -825h-202l-61 165h-314l-61 -165h-202l333 825h174zM485 330l-92 240h-2l-92 -240h186z" />
    <glyph glyph-name="amacron" unicode="&#x101;" horiz-adv-x="683" 
d="M137 754h408v-120h-408v120zM23 256q0 -114 72 -192.5t183 -78.5q102 0 168 73h2v-58h175v513h-177v-49q-66 64 -168 64q-111 0 -183 -79t-72 -193zM211 256q0 53 34.5 87t85.5 34q50 0 84.5 -34t34.5 -87q0 -52 -33.5 -86t-85.5 -34q-54 0 -87 33.5t-33 86.5z" />
    <glyph glyph-name="Abreve" unicode="&#x102;" horiz-adv-x="784" 
d="M497 1152l126 -31q-9 -81 -72 -131t-159 -50t-159 50t-72 131l126 31q0 -4 1.5 -11t8.5 -25t17.5 -31.5t31 -24.5t46.5 -11t46.5 10.5t31 25.5t17.5 30.5t9 26.5zM479 825l333 -825h-202l-61 165h-314l-61 -165h-202l333 825h174zM485 330l-92 240h-2l-92 -240h186z" />
    <glyph glyph-name="abreve" unicode="&#x103;" horiz-adv-x="683" 
d="M446 840l126 -31q-9 -81 -72 -131t-159 -50t-159 50t-72 131l126 31q0 -4 1.5 -11t8.5 -25t17.5 -31.5t31 -24.5t46.5 -11t46.5 10.5t31 25.5t17.5 30.5t8 26.5zM23 256q0 114 72 193t183 79q102 0 168 -64v49h177v-513h-175v58h-2q-66 -73 -168 -73q-111 0 -183 78.5
t-72 192.5zM211 256q0 -53 33 -86.5t87 -33.5q52 0 85.5 34t33.5 86q0 53 -34.5 87t-84.5 34q-51 0 -85.5 -34t-34.5 -87z" />
    <glyph glyph-name="Aogonek" unicode="&#x104;" horiz-adv-x="784" 
d="M549 -158q0 62 80 158h-19l-61 165h-314l-61 -165h-202l333 825h174l333 -825h-101q-7 -8 -16.5 -21.5t-26 -50.5t-16.5 -68q0 -18 11.5 -28.5t25.5 -10.5t26.5 7.5t18.5 15.5l6 7l72 -54q-2 -3 -5.5 -8t-16 -17t-27.5 -21.5t-38.5 -17.5t-49.5 -8q-47 0 -86.5 29
t-39.5 88zM485 330l-92 240h-2l-92 -240h186z" />
    <glyph glyph-name="aogonek" unicode="&#x105;" horiz-adv-x="683" 
d="M368 -158q0 65 80 158v58h-2q-66 -73 -168 -73q-111 0 -183 78.5t-72 192.5t72 193t183 79q102 0 168 -64v49h177v-513h-93q-7 -8 -16.5 -21.5t-26 -50.5t-16.5 -68q0 -18 11.5 -28.5t25.5 -10.5t26.5 7.5t18.5 15.5l6 7l72 -54q-2 -3 -5.5 -8t-16 -17t-27.5 -21.5
t-38.5 -17.5t-49.5 -8q-47 0 -86.5 29t-39.5 88zM211 256q0 -53 33 -86.5t87 -33.5q52 0 85.5 34t33.5 86q0 53 -34.5 87t-84.5 34q-51 0 -85.5 -34t-34.5 -87z" />
    <glyph glyph-name="Cacute" unicode="&#x106;" horiz-adv-x="753" 
d="M271 976l203 176l91 -115l-238 -138zM499 170q-131 0 -201.5 74.5t-70.5 168.5q0 43 16.5 84.5t48 77.5t85.5 58t122 22q43 0 83.5 -12.5t59.5 -25.5l19 -13l80 160q-4 3 -11 8t-32.5 18.5t-54.5 23.5t-76 18t-97 8q-86 0 -168 -34t-143.5 -91t-98.5 -137t-37 -167
q0 -115 63 -214t166 -155.5t218 -56.5q80 0 147.5 19t95.5 38l28 19l-80 160q-7 -6 -21 -14.5t-56 -22.5t-85 -14z" />
    <glyph glyph-name="cacute" unicode="&#x107;" horiz-adv-x="491" 
d="M191 664l203 176l91 -115l-238 -138zM333 383q-50 0 -86 -37t-36 -89q0 -53 36 -90t86 -37q24 0 45.5 6t31.5 12l9 6l60 -123q-7 -5 -19.5 -12.5t-57 -20.5t-95.5 -13q-113 0 -198.5 79.5t-85.5 190.5q0 112 85.5 192.5t198.5 80.5q51 0 94 -12t61 -24l17 -12l-60 -121
q-33 24 -86 24z" />
    <glyph glyph-name="Ccircumflex" unicode="&#x108;" horiz-adv-x="811" 
d="M224 976l220 162l222 -162l-68 -91l-154 112l-152 -112zM522 170q-67 0 -121 22t-86 58t-48.5 78t-16.5 85t16.5 84.5t48.5 77.5t86 58t121 22q43 0 83.5 -12.5t59.5 -25.5l19 -13l80 160q-3 3 -10.5 8t-33 18.5t-54.5 23.5t-75.5 18t-96.5 8q-87 0 -169 -34t-143 -91
t-98.5 -137t-37.5 -167q0 -86 37.5 -165.5t99 -136.5t143 -90.5t168.5 -33.5q50 0 96 8t76.5 19t53.5 22t34 19l10 8l-80 160q-7 -6 -20.5 -14.5t-56 -22.5t-85.5 -14z" />
    <glyph glyph-name="ccircumflex" unicode="&#x109;" horiz-adv-x="553" 
d="M66 658l221 162l221 -162l-68 -91l-153 112l-153 -112zM355 383q-50 0 -86 -37t-36 -89q0 -53 36 -90t86 -37q24 0 45.5 6t31.5 12l9 6l60 -123q-7 -5 -19.5 -12.5t-57 -20.5t-95.5 -13q-113 0 -198.5 79.5t-85.5 190.5q0 112 85.5 192.5t198.5 80.5q51 0 94 -12t61 -24
l17 -12l-60 -121q-33 24 -86 24z" />
    <glyph glyph-name="Cdotaccent" unicode="&#x10a;" horiz-adv-x="811" 
d="M441.5 1103q38.5 0 65.5 -27t27 -65t-27 -65t-65.5 -27t-65 27t-26.5 65t26.5 65t65 27zM522 170q-67 0 -121 22t-86 58t-48.5 78t-16.5 85t16.5 84.5t48.5 77.5t86 58t121 22q43 0 83.5 -12.5t59.5 -25.5l19 -13l80 160q-3 3 -10.5 8t-33 18.5t-54.5 23.5t-75.5 18
t-96.5 8q-87 0 -169 -34t-143 -91t-98.5 -137t-37.5 -167q0 -86 37.5 -165.5t99 -136.5t143 -90.5t168.5 -33.5q50 0 96 8t76.5 19t53.5 22t34 19l10 8l-80 160q-7 -6 -20.5 -14.5t-56 -22.5t-85.5 -14z" />
    <glyph glyph-name="cdotaccent" unicode="&#x10b;" horiz-adv-x="552" 
d="M290 781q38 0 65 -27t27 -65t-27 -65t-65 -27t-65 27t-27 65t27 65t65 27zM358 383q-50 0 -86 -37t-36 -89q0 -53 36 -90t86 -37q24 0 45.5 6t30.5 12l10 6l60 -123q-7 -5 -19.5 -12.5t-57 -20.5t-95.5 -13q-113 0 -198.5 79.5t-85.5 190.5q0 112 85.5 192.5t198.5 80.5
q51 0 94 -12t60 -24l18 -12l-60 -121q-33 24 -86 24z" />
    <glyph glyph-name="Ccaron" unicode="&#x10c;" horiz-adv-x="753" 
d="M288 1152l153 -112l153 112l68 -91l-221 -162l-221 162zM499 170q-131 0 -201.5 74.5t-70.5 168.5q0 43 16.5 84.5t48 77.5t85.5 58t122 22q43 0 83.5 -12.5t59.5 -25.5l19 -13l80 160q-4 3 -11 8t-32.5 18.5t-54.5 23.5t-76 18t-97 8q-86 0 -168 -34t-143.5 -91
t-98.5 -137t-37 -167q0 -115 63 -214t166 -155.5t218 -56.5q80 0 147.5 19t95.5 38l28 19l-80 160q-7 -6 -21 -14.5t-56 -22.5t-85 -14z" />
    <glyph glyph-name="ccaron" unicode="&#x10d;" horiz-adv-x="491" 
d="M104 840l153 -112l153 112l68 -91l-221 -162l-221 162zM333 383q-50 0 -86 -37t-36 -89q0 -53 36 -90t86 -37q24 0 45.5 6t31.5 12l9 6l60 -123q-7 -5 -19.5 -12.5t-57 -20.5t-95.5 -13q-113 0 -198.5 79.5t-85.5 190.5q0 112 85.5 192.5t198.5 80.5q51 0 94 -12t61 -24
l17 -12l-60 -121q-33 24 -86 24z" />
    <glyph glyph-name="Dcaron" unicode="&#x10e;" horiz-adv-x="738" 
d="M207 1152l153 -112l153 112l68 -91l-221 -162l-221 162zM60 825h239q172 0 294 -117.5t122 -294.5q0 -178 -121.5 -295.5t-294.5 -117.5h-239v825zM248 168h29q103 0 168.5 69.5t66.5 174.5q0 105 -65.5 175t-169.5 70h-29v-489z" />
    <glyph glyph-name="dcaron" unicode="&#x10f;" horiz-adv-x="683" 
d="M23 256q0 114 72 193t183 79q102 0 168 -64v396h177v-860h-175v58h-2q-66 -73 -168 -73q-111 0 -183 78.5t-72 192.5zM756 824q38 0 64 -26t26 -64q0 -114 -130 -221l-40 31q47 45 59 110q-29 7 -48 29t-19 51q0 37 26 63.5t62 26.5zM211 256q0 -53 33 -86.5t87 -33.5
q52 0 85.5 34t33.5 86q0 53 -34.5 87t-84.5 34q-51 0 -85.5 -34t-34.5 -87z" />
    <glyph glyph-name="Dcroat" unicode="&#x110;" horiz-adv-x="876" 
d="M152 489v336h238q113 0 208 -52.5t151.5 -147.5t56.5 -212q0 -118 -56.5 -213t-151.5 -147.5t-208 -52.5h-238v336l-82 36v89zM340 489l114 -28v-89l-114 -36v-168h28q104 0 169.5 69.5t66.5 174.5q0 105 -66 175t-170 70h-28v-168z" />
    <glyph glyph-name="dcroat" unicode="&#x111;" horiz-adv-x="683" 
d="M321 742h125v118h177v-118h60v-114h-60v-628h-175v58h-2q-66 -73 -168 -73q-111 0 -183 78.5t-72 192.5t72 193t183 79q102 0 168 -64v164h-125v114zM211 256q0 -53 33 -86.5t87 -33.5q52 0 85.5 34t33.5 86q0 53 -34.5 87t-84.5 34q-51 0 -85.5 -34t-34.5 -87z" />
    <glyph glyph-name="Emacron" unicode="&#x112;" horiz-adv-x="580" 
d="M86 1066h408v-120h-408v120zM532 825v-165h-284v-164h272v-165h-272v-166h284v-165h-472v825h472z" />
    <glyph glyph-name="emacron" unicode="&#x113;" horiz-adv-x="603" 
d="M97 754h408v-120h-408v120zM579 232h-372q0 -54 35 -80t76 -26q43 0 68 11.5t57 45.5l128 -64q-80 -134 -266 -134q-116 0 -199 79.5t-83 191.5t83 192t199 80q122 0 198.5 -70.5t76.5 -201.5q0 -18 -1 -24zM212 330h195q-6 40 -31.5 61.5t-65.5 21.5q-44 0 -70 -23
t-28 -60z" />
    <glyph glyph-name="Ebreve" unicode="&#x114;" horiz-adv-x="611" 
d="M416 1125l126 -31q-9 -81 -72 -131t-159 -50t-159 50t-72 131l126 31q0 -4 1.5 -11t8.5 -25t17.5 -31.5t31 -24.5t46.5 -11q42 0 68 26t31 52zM541 825v-165h-284v-164h272v-165h-272v-166h284v-165h-472v825h472z" />
    <glyph glyph-name="ebreve" unicode="&#x115;" horiz-adv-x="682" 
d="M458 807l126 -31q-9 -81 -72 -131t-158.5 -50t-158.5 50t-73 131l126 31q1 -4 2.5 -11t8.5 -25t17 -31.5t30.5 -24.5t47 -11t47 10.5t31 26t17 30.5t8.5 25zM618 232h-372q0 -54 35 -80t77 -26q29 0 48.5 5t36.5 16.5t39 35.5l128 -64q-80 -134 -266 -134
q-116 0 -199 79.5t-83 191.5t83 192t199 80q80 0 141 -30t98 -92.5t37 -149.5q0 -18 -2 -24zM252 330h194q-5 40 -31 61.5t-65 21.5q-45 0 -70.5 -23t-27.5 -60z" />
    <glyph glyph-name="Edotaccent" unicode="&#x116;" horiz-adv-x="580" 
d="M290 1103q38 0 65 -27t27 -65t-27 -65t-65 -27t-65 27t-27 65t27 65t65 27zM532 825v-165h-284v-164h272v-165h-272v-166h284v-165h-472v825h472z" />
    <glyph glyph-name="edotaccent" unicode="&#x117;" horiz-adv-x="603" 
d="M301 791q38 0 65 -27t27 -65t-27 -65t-65 -27t-65 27t-27 65t27 65t65 27zM579 232h-372q0 -54 35 -80t76 -26q43 0 68 11.5t57 45.5l128 -64q-80 -134 -266 -134q-116 0 -199 79.5t-83 191.5t83 192t199 80q122 0 198.5 -70.5t76.5 -201.5q0 -18 -1 -24zM212 330h195
q-6 40 -31.5 61.5t-65.5 21.5q-44 0 -70 -23t-28 -60z" />
    <glyph glyph-name="Eogonek" unicode="&#x118;" horiz-adv-x="580" 
d="M532 825v-165h-284v-164h272v-165h-272v-166h284v-165h-97q-7 -8 -16.5 -21.5t-26 -50.5t-16.5 -68q0 -18 11.5 -28.5t25.5 -10.5t26.5 7.5t18.5 15.5l6 7l72 -54q-2 -3 -5.5 -8t-16 -17t-27.5 -21.5t-38.5 -17.5t-49.5 -8q-47 0 -86.5 29t-39.5 88q0 62 80 158h-293v825
h472z" />
    <glyph glyph-name="eogonek" unicode="&#x119;" horiz-adv-x="603" 
d="M579 232h-372q0 -54 35 -80t76 -26q43 0 68 11.5t57 45.5l128 -64q-54 -89 -153 -119q-7 -8 -16.5 -21.5t-26 -50.5t-16.5 -68q0 -18 11.5 -28.5t25.5 -10.5t26.5 7.5t18.5 15.5l6 7l72 -54q-2 -3 -5.5 -8t-16 -17t-27.5 -21.5t-38.5 -17.5t-49.5 -8q-47 0 -86.5 29
t-39.5 88q0 58 68 144q-3 0 -9.5 -0.5t-9.5 -0.5q-116 0 -199 79.5t-83 191.5t83 192t199 80q122 0 198.5 -70.5t76.5 -201.5q0 -18 -1 -24zM212 330h195q-6 40 -31.5 61.5t-65.5 21.5q-44 0 -70 -23t-28 -60z" />
    <glyph glyph-name="Ecaron" unicode="&#x11a;" horiz-adv-x="580" 
d="M137 1152l153 -112l153 112l68 -91l-221 -162l-221 162zM532 825v-165h-284v-164h272v-165h-272v-166h284v-165h-472v825h472z" />
    <glyph glyph-name="ecaron" unicode="&#x11b;" horiz-adv-x="603" 
d="M148 840l153 -112l153 112l68 -91l-221 -162l-221 162zM579 232h-372q0 -54 35 -80t76 -26q43 0 68 11.5t57 45.5l128 -64q-80 -134 -266 -134q-116 0 -199 79.5t-83 191.5t83 192t199 80q122 0 198.5 -70.5t76.5 -201.5q0 -18 -1 -24zM212 330h195q-6 40 -31.5 61.5
t-65.5 21.5q-44 0 -70 -23t-28 -60z" />
    <glyph glyph-name="Gcircumflex" unicode="&#x11c;" horiz-adv-x="925" 
d="M242 974l220 162l222 -162l-68 -91l-154 112l-152 -112zM854 462v-179q-32 -147 -140 -222.5t-241 -75.5q-167 0 -284.5 125t-117.5 302q0 180 115 304t287 124q201 0 318 -141l-123 -135q-66 106 -184 106q-87 0 -148.5 -75.5t-61.5 -182.5q0 -105 61.5 -179.5
t148.5 -74.5q72 0 125.5 43.5t53.5 115.5h-190v145h381z" />
    <glyph glyph-name="gcircumflex" unicode="&#x11d;" horiz-adv-x="742" 
d="M184 688l222 162l220 -162l-68 -91l-152 112l-154 -112zM85 -126l145 71q40 -66 139 -66q46 0 85.5 29.5t39.5 90.5v38q-47 -52 -168 -52q-111 0 -183 78.5t-72 192.5t72 193t183 79q99 0 165 -61h3v46h177v-527q0 -125 -83 -193t-219 -68q-220 0 -284 149zM259 256
q0 -53 33 -86.5t87 -33.5q52 0 85.5 34t33.5 86q0 53 -34.5 87t-84.5 34q-51 0 -85.5 -34t-34.5 -87z" />
    <glyph glyph-name="Gbreve" unicode="&#x11e;" horiz-adv-x="927" 
d="M579 1123l126 -31q-9 -81 -72 -131t-159 -50t-159 50t-72 131l126 31q0 -4 1.5 -11t8.5 -25t17.5 -31.5t31 -24.5t46.5 -11q42 0 68 26t32 52zM855 462v-179q-32 -147 -140 -222.5t-241 -75.5q-167 0 -284.5 125t-117.5 302q0 180 115 304t287 124q201 0 318 -141
l-123 -135q-66 106 -184 106q-87 0 -148.5 -75.5t-61.5 -182.5q0 -105 61.5 -179.5t148.5 -74.5q72 0 125.5 43.5t53.5 115.5h-190v145h381z" />
    <glyph glyph-name="gbreve" unicode="&#x11f;" horiz-adv-x="743" 
d="M480 810l126 -31q-10 -81 -73 -131t-158.5 -50t-158.5 50t-72 131l126 31q0 -4 1.5 -11t8.5 -25t17 -31.5t30.5 -24.5t47 -11t47 10.5t31 25.5t17 30.5t8.5 25.5zM86 -126l144 71q11 -17 27.5 -31t46 -24.5t66.5 -10.5q20 0 40 6.5t40 19.5t32 37.5t12 56.5v38
q-47 -52 -168 -52q-110 0 -182 78.5t-72 192.5t72 193t182 79q100 0 166 -61h2v46h178v-527q0 -125 -83.5 -193t-218.5 -68q-220 0 -284 149zM260 256q0 -53 33 -86.5t87 -33.5q34 0 61 15.5t42 42.5t15 62q0 53 -34 87t-84 34q-51 0 -85.5 -34t-34.5 -87z" />
    <glyph glyph-name="Gdotaccent" unicode="&#x120;" horiz-adv-x="927" 
d="M469.5 1103q38.5 0 65.5 -27t27 -65t-27 -65t-65.5 -27t-65 27t-26.5 65t26.5 65t65 27zM855 462v-179q-32 -147 -140 -222.5t-241 -75.5q-167 0 -284.5 125t-117.5 302q0 180 115 304t287 124q201 0 318 -141l-123 -135q-66 106 -184 106q-87 0 -148.5 -75.5
t-61.5 -182.5q0 -105 61.5 -179.5t148.5 -74.5q72 0 125.5 43.5t53.5 115.5h-190v145h381z" />
    <glyph glyph-name="gdotaccent" unicode="&#x121;" horiz-adv-x="743" 
d="M378 784q38 0 65 -27t27 -65t-27 -65t-65 -27t-65 27t-27 65t27 65t65 27zM86 -126l144 71q11 -17 27.5 -31t46 -24.5t66.5 -10.5q20 0 40 6.5t40 19.5t32 37.5t12 56.5v38q-47 -52 -168 -52q-110 0 -182 78.5t-72 192.5t72 193t182 79q100 0 166 -61h2v46h178v-527
q0 -125 -83.5 -193t-218.5 -68q-220 0 -284 149zM260 256q0 -53 33 -86.5t87 -33.5q34 0 61 15.5t42 42.5t15 62q0 53 -34 87t-84 34q-51 0 -85.5 -34t-34.5 -87z" />
    <glyph glyph-name="Gcommaaccent" unicode="&#x122;" horiz-adv-x="926" 
d="M854 462v-179q-16 -76 -55 -134.5t-91.5 -93.5t-112 -52.5t-121.5 -17.5q-110 0 -202.5 57t-146 155.5t-53.5 214.5q0 117 51.5 215t144 155.5t206.5 57.5q201 0 318 -141l-124 -135q-66 106 -184 106q-87 0 -148.5 -75.5t-61.5 -182.5q0 -105 62 -179.5t148 -74.5
q72 0 126 43.5t54 115.5h-190v145h380zM462 -40q-37 0 -62.5 -26.5t-25.5 -63.5q0 -20 8.5 -36.5t23.5 -27.5t34 -16q-3 -18 -10 -36t-15.5 -31t-16 -23t-12.5 -15l-4 -5l40 -31q130 107 130 221q0 38 -26.5 64t-63.5 26z" />
    <glyph glyph-name="gcommaaccent" unicode="&#x123;" horiz-adv-x="743" 
d="M390 607q-37 0 -63.5 26.5t-26.5 63.5q0 114 130 221l40 -31q-1 -2 -4.5 -5.5t-12 -14.5t-16 -23t-15 -30.5t-10.5 -36.5q29 -7 47.5 -29t18.5 -51q0 -37 -25.5 -63.5t-62.5 -26.5zM86 -126l144 71q11 -17 27.5 -31t46 -24.5t66.5 -10.5q20 0 40 6.5t40 19.5t32 37.5
t12 56.5v38q-47 -52 -168 -52q-110 0 -182 78.5t-72 192.5t72 193t182 79q100 0 166 -61h2v46h178v-527q0 -125 -83.5 -193t-218.5 -68q-220 0 -284 149zM260 256q0 -53 33 -86.5t87 -33.5q34 0 61 15.5t42 42.5t15 62q0 53 -34 87t-84 34q-51 0 -85.5 -34t-34.5 -87z" />
    <glyph glyph-name="Hcircumflex" unicode="&#x124;" horiz-adv-x="794" 
d="M182 976l220 162l222 -162l-68 -91l-154 112l-152 -112zM266 331v-331h-188v825h188v-329h266v329h188v-825h-188v331h-266z" />
    <glyph glyph-name="hcircumflex" unicode="&#x125;" horiz-adv-x="701" 
d="M126 1018l220 162l222 -162l-68 -91l-154 112l-152 -112zM75 0v860h177v-401h2q69 69 147 69q38 0 75.5 -10t72 -31t56 -59.5t21.5 -89.5v-338h-177v290q0 40 -25.5 70t-66.5 30q-40 0 -72.5 -31t-32.5 -69v-290h-177z" />
    <glyph glyph-name="Hbar" unicode="&#x126;" horiz-adv-x="993" 
d="M372 542v-67h266v67h-266zM372 310v-310h-188v542h-118v176h118v107h188v-107h266v107h188v-107h100v-176h-100v-542h-188v310h-266z" />
    <glyph glyph-name="hbar" unicode="&#x127;" horiz-adv-x="770" 
d="M167 760v100h177v-100h309v-176h-309v-125h2q69 69 147 69q30 0 59.5 -6t60 -20t53.5 -35t37.5 -54.5t14.5 -74.5v-338h-177v290q0 40 -25.5 70t-66.5 30q-40 0 -72.5 -31t-32.5 -69v-290h-177v584h-115v176h115z" />
    <glyph glyph-name="Itilde" unicode="&#x128;" horiz-adv-x="561" 
d="M272 912q-41 19 -76 19q-15 0 -26 -11.5t-15 -23.5l-5 -11h-100q0 4 1 10t6 24t11.5 34t17.5 36t24.5 34t33 24t42.5 10q17 0 43 -6.5t43 -13.5l18 -7q40 -19 76 -19q14 0 25 11.5t15 23.5l4 11h102q-1 -4 -2 -10t-6 -24t-11.5 -34t-17.5 -36t-24.5 -34t-33 -24
t-41.5 -10q-11 0 -26 3t-28 6.5t-25 7.5t-19 7zM374 825v-825h-188v825h188z" />
    <glyph glyph-name="itilde" unicode="&#x129;" horiz-adv-x="564" 
d="M273 605q-40 19 -76 19q-14 0 -25.5 -11.5t-15.5 -22.5l-4 -12h-101q1 7 3.5 18.5t13 41t24 52.5t39 41.5t56.5 18.5q17 0 43 -7t44 -13l17 -7q40 -19 76 -19q14 0 25.5 11.5t15.5 22.5l4 12h101q-1 -7 -3.5 -18.5t-13 -41t-24 -52.5t-39 -41.5t-56.5 -18.5q-17 0 -43 7
t-44 13zM194 513v-513h177v513h-177z" />
    <glyph glyph-name="Imacron" unicode="&#x12a;" horiz-adv-x="308" 
d="M-50 1066h408v-120h-408v120zM248 825v-825h-188v825h188z" />
    <glyph glyph-name="imacron" unicode="&#x12b;" horiz-adv-x="297" 
d="M-55 754h408v-120h-408v120zM60 513v-513h177v513h-177z" />
    <glyph glyph-name="Ibreve" unicode="&#x12c;" horiz-adv-x="556" 
d="M383 1131l126 -31q-9 -81 -72 -131t-159 -50t-159 50t-72 131l126 31q0 -4 1.5 -11t8.5 -25t17.5 -31.5t31 -24.5t46.5 -11q42 0 68 26t32 52zM368 825v-825h-188v825h188z" />
    <glyph glyph-name="ibreve" unicode="&#x12d;" horiz-adv-x="576" 
d="M393 816l126 -31q-9 -81 -72 -131t-159 -50t-159 50t-72 131l126 31q0 -4 1.5 -11t8.5 -25t17.5 -31.5t31 -24.5t46.5 -11t46.5 10.5t31 25.5t17.5 30.5t9 26.5zM194 513v-513h177v513h-177z" />
    <glyph glyph-name="Iogonek" unicode="&#x12e;" horiz-adv-x="308" 
d="M248 825v-825h-53q-7 -8 -16.5 -21.5t-26 -50.5t-16.5 -68q0 -18 11.5 -28.5t25.5 -10.5t26.5 7.5t18.5 15.5l6 7l72 -54q-2 -3 -5.5 -8t-16 -17t-27.5 -21.5t-38.5 -17.5t-49.5 -8q-47 0 -86.5 29t-39.5 88q0 62 80 158h-53v825h188z" />
    <glyph glyph-name="iogonek" unicode="&#x12f;" horiz-adv-x="297" 
d="M151 830q43 0 74 -31t31 -74t-31 -74t-74 -31t-74 31t-31 74t31 74t74 31zM29 -158q0 -59 39.5 -88t86.5 -29q41 0 75 18t48 36l14 18l-72 54q-20 -30 -51 -30q-14 0 -25.5 10.5t-11.5 28.5q0 31 15 66t29 54l15 20h46v513h-177v-513h49q-80 -93 -80 -158z" />
    <glyph glyph-name="Idotaccent" unicode="&#x130;" horiz-adv-x="336" 
d="M168 1115q44 0 74.5 -30.5t30.5 -74.5t-30.5 -74.5t-74.5 -30.5t-74.5 30.5t-30.5 74.5t30.5 74.5t74.5 30.5zM262 825v-825h-188v825h188z" />
    <glyph glyph-name="dotlessi" unicode="&#x131;" horiz-adv-x="269" 
d="M46 0v513h177v-513h-177z" />
    <glyph glyph-name="IJ" unicode="&#x132;" horiz-adv-x="785" 
d="M258 825v-840h-188v840h188zM715 825v-592q0 -121 -66.5 -184.5t-190.5 -63.5q-33 0 -65 8t-54 19.5t-39.5 23.5t-25.5 20l-9 8l60 157q59 -56 107 -56q43 0 69 28.5t26 87.5v544h188z" />
    <glyph glyph-name="ij" unicode="&#x133;" horiz-adv-x="603" 
d="M67 725q0 43 30.5 74t74.5 31t74.5 -31t30.5 -74t-30.5 -74t-74.5 -31t-74.5 31t-30.5 74zM258 513h-177v-513h177v513zM431 830q43 0 74 -31t31 -74t-31 -74t-74 -31t-74 31t-31 74t31 74t74 31zM340 513v-558q0 -70 -49 -70q-10 0 -21 3.5t-18 7.5l-6 4l-55 -143
q2 -1 13 -6l16.5 -7.5t18.5 -6.5t25 -6t30 -4t38 -2q50 0 88 17.5t58 47t29.5 62t9.5 69.5v592h-177z" />
    <glyph glyph-name="Jcircumflex" unicode="&#x134;" horiz-adv-x="681" 
d="M186 975l221 162l221 -162l-68 -91l-153 112l-153 -112zM503 825v-592q0 -121 -66.5 -184.5t-190.5 -63.5q-33 0 -65 8t-54.5 19.5t-39.5 23.5t-26 20l-8 8l60 157q2 -2 6.5 -6t17 -13.5t25 -17t28.5 -13.5t30 -6q43 0 69 28.5t26 87.5v544h188z" />
    <glyph glyph-name="jcircumflex" unicode="&#x135;" horiz-adv-x="565" 
d="M70 673l221 162l221 -162l-68 -91l-153 112l-153 -112zM202 513v-558q0 -70 -49 -70q-10 0 -21.5 3.5t-17.5 7.5l-6 4l-55 -143q3 -1 11 -5t13.5 -6.5t14.5 -6t19 -5.5l22.5 -4.5t27.5 -3.5t33 -1q50 0 87.5 17.5t58 47t30 62t9.5 69.5v592h-177z" />
    <glyph glyph-name="Kcommaaccent" unicode="&#x136;" horiz-adv-x="787" 
d="M811 0h-259l-304 350v-350h-188v825h188v-337l283 337h228l-332 -391zM392 -40q-36 0 -62 -26.5t-26 -63.5q0 -29 19 -51t48 -29q-5 -29 -20 -56.5t-27 -40.5l-12 -13l40 -31q130 107 130 221q0 38 -26 64t-64 26z" />
    <glyph glyph-name="kcommaaccent" unicode="&#x137;" horiz-adv-x="646" 
d="M646 513l-244 -245l268 -268h-228l-205 205v-205h-177v860h177v-526l179 179h230zM322 -40q38 0 64 -26t26 -64q0 -114 -130 -221l-40 31q47 45 59 110q-29 7 -48 29t-19 51q0 37 26 63.5t62 26.5z" />
    <glyph glyph-name="kgreenlandic" unicode="&#x138;" horiz-adv-x="718" 
d="M659 2h-207l-243 280v-280h-150v660h150v-270l226 270h183l-266 -313z" />
    <glyph glyph-name="Lacute" unicode="&#x139;" horiz-adv-x="565" 
d="M136 976l203 176l91 -115l-238 -138zM248 825v-660h284v-165h-472v825h188z" />
    <glyph glyph-name="lacute" unicode="&#x13a;" horiz-adv-x="297" 
d="M60 1011l203 176l91 -115l-238 -138zM60 860v-860h177v860h-177z" />
    <glyph glyph-name="Lcommaaccent" unicode="&#x13b;" horiz-adv-x="565" 
d="M248 825v-660h284v-165h-472v825h188zM281 -40q-36 0 -62 -26.5t-26 -63.5q0 -29 19 -51t48 -29q-5 -29 -20 -56.5t-27 -40.5l-12 -13l40 -31q130 107 130 221q0 38 -26.5 64t-63.5 26z" />
    <glyph glyph-name="lcommaaccent" unicode="&#x13c;" horiz-adv-x="297" 
d="M60 0v860h177v-860h-177zM147 -40q37 0 63.5 -26t26.5 -64q0 -114 -130 -221l-40 31q47 45 59 110q-29 7 -48 29t-19 51q0 37 26 63.5t62 26.5z" />
    <glyph glyph-name="Lcaron" unicode="&#x13d;" horiz-adv-x="565" 
d="M248 825v-660h284v-165h-472v825h188zM417 824q-36 0 -62 -26.5t-26 -63.5q0 -29 19 -51t48 -29q-5 -29 -20 -56.5t-27 -40.5l-12 -13l40 -31q130 107 130 221q0 38 -26.5 64t-63.5 26z" />
    <glyph glyph-name="lcaron" unicode="&#x13e;" horiz-adv-x="297" 
d="M60 0v860h177v-860h-177zM370 824q38 0 64 -26t26 -64q0 -114 -130 -221l-40 31q47 45 59 110q-29 7 -48 29t-19 51q0 37 26 63.5t62 26.5z" />
    <glyph glyph-name="Ldot" unicode="&#x13f;" horiz-adv-x="617" 
d="M435 567q38 0 65 -27t27 -65t-27 -65t-65 -27t-65 27t-27 65t27 65t65 27zM260 825v-660h284v-165h-472v825h188z" />
    <glyph glyph-name="ldot" unicode="&#x140;" horiz-adv-x="545" 
d="M384 567q38 0 65 -27t27 -65t-27 -65t-65 -27t-65 27t-27 65t27 65t65 27zM69 860v-860h177v860h-177z" />
    <glyph glyph-name="Lslash" unicode="&#x141;" horiz-adv-x="568" 
d="M20 250v153l76 59v363h188v-215l105 83v-153l-105 -83v-292h284v-165h-472v309z" />
    <glyph glyph-name="lslash" unicode="&#x142;" horiz-adv-x="369" 
d="M96 0v310l-76 -60v153l76 60v397h177v-258l76 60v-153l-76 -60v-449h-177z" />
    <glyph glyph-name="Nacute" unicode="&#x143;" horiz-adv-x="826" 
d="M266 976l203 176l91 -115l-238 -138zM248 512v-512h-188v825h188l328 -512h2v512h188v-825h-188l-328 512h-2z" />
    <glyph glyph-name="nacute" unicode="&#x144;" horiz-adv-x="661" 
d="M271 664l203 176l91 -115l-238 -138zM237 0v290q0 38 32.5 69t72.5 31q41 0 66.5 -30t25.5 -70v-290h177v338q0 51 -21.5 89.5t-56 59.5t-72 31t-75.5 10q-78 0 -147 -69h-2v54h-177v-513h177z" />
    <glyph glyph-name="Ncommaaccent" unicode="&#x145;" horiz-adv-x="826" 
d="M248 512v-512h-188v825h188l328 -512h2v512h188v-825h-188l-328 512h-2zM412 -40q-36 0 -62 -26.5t-26 -63.5q0 -29 19 -51t48 -29q-5 -29 -20 -56.5t-27 -40.5l-12 -13l40 -31q130 107 130 221q0 38 -26 64t-64 26z" />
    <glyph glyph-name="ncommaaccent" unicode="&#x146;" horiz-adv-x="661" 
d="M60 0v513h177v-54h2q69 69 147 69q38 0 75.5 -10t72 -31t56 -59.5t21.5 -89.5v-338h-177v290q0 40 -25.5 70t-66.5 30q-40 0 -72.5 -31t-32.5 -69v-290h-177zM329 -40q37 0 63.5 -26t26.5 -64q0 -114 -130 -221l-40 31q47 45 59 110q-29 7 -48 29t-19 51q0 37 26 63.5
t62 26.5z" />
    <glyph glyph-name="Ncaron" unicode="&#x147;" horiz-adv-x="826" 
d="M260 1152l153 -112l153 112l68 -91l-221 -162l-221 162zM248 512v-512h-188v825h188l328 -512h2v512h188v-825h-188l-328 512h-2z" />
    <glyph glyph-name="ncaron" unicode="&#x148;" horiz-adv-x="661" 
d="M177 840l153 -112l153 112l68 -91l-221 -162l-221 162zM237 0v290q0 38 32.5 69t72.5 31q41 0 66.5 -30t25.5 -70v-290h177v338q0 51 -21.5 89.5t-56 59.5t-72 31t-75.5 10q-78 0 -147 -69h-2v54h-177v-513h177z" />
    <glyph glyph-name="napostrophe" unicode="&#x149;" horiz-adv-x="751" 
d="M50 580l152 222l118 -88l-196 -194zM327 0v290q0 25 15 48.5t39.5 37.5t50.5 14q41 0 66.5 -30t25.5 -70v-290h177v338q0 41 -14.5 74.5t-37.5 54.5t-53.5 35t-60.5 20t-59 6q-78 0 -147 -69h-2v54h-177v-513h177z" />
    <glyph glyph-name="Eng" unicode="&#x14a;" horiz-adv-x="855" 
d="M262 512v-512h-188v825h188l328 -512h2v512h188v-825v-246l-338 -33l16 110l134 53v116l-328 512h-2z" />
    <glyph glyph-name="eng" unicode="&#x14b;" horiz-adv-x="699" 
d="M74 0v513h177v-54h2q69 69 147 69q38 0 75.5 -10t72 -31t56 -59.5t21.5 -89.5v-338v-240l-330 -39l16 110l134 53l3 116v290q0 40 -25.5 70t-66.5 30q-40 0 -72.5 -31t-32.5 -69v-290h-177z" />
    <glyph glyph-name="Omacron" unicode="&#x14c;" horiz-adv-x="877" 
d="M234 1066h408v-120h-408v120zM23 413q0 179 122 303t294 124q173 0 294 -123.5t121 -303.5q0 -181 -119 -304.5t-296 -123.5q-181 0 -298.5 122.5t-117.5 305.5zM226 413q0 -65 20 -118.5t70 -90.5t123 -37q105 0 158.5 72t53.5 174q0 101 -54.5 173.5t-157.5 72.5
q-102 0 -157.5 -72.5t-55.5 -173.5z" />
    <glyph glyph-name="omacron" unicode="&#x14d;" horiz-adv-x="661" 
d="M126 754h408v-120h-408v120zM23 256q0 -119 85.5 -195t223.5 -76q133 0 219.5 76.5t86.5 194.5t-88.5 195t-217.5 77q-131 0 -220 -76.5t-89 -195.5zM211 256q0 53 34.5 87t85.5 34q50 0 84.5 -34t34.5 -87q0 -52 -33.5 -86t-85.5 -34q-54 0 -87 33.5t-33 86.5z" />
    <glyph glyph-name="Obreve" unicode="&#x14e;" horiz-adv-x="961" 
d="M585 1116l126 -31q-9 -81 -72 -131t-159 -50t-159 50t-72 131l126 31q0 -4 1.5 -11t8.5 -25t17.5 -31.5t31 -24.5t46.5 -11t46.5 10.5t31 25.5t17.5 30.5t9 26.5zM65 413q0 179 122 303t294 124q173 0 294 -123.5t121 -303.5q0 -181 -119 -304.5t-296 -123.5
q-181 0 -298.5 122.5t-117.5 305.5zM268 413q0 -65 20 -118.5t70 -90.5t123 -37q105 0 158.5 72t53.5 174q0 101 -54.5 173.5t-157.5 72.5q-102 0 -157.5 -72.5t-55.5 -173.5z" />
    <glyph glyph-name="obreve" unicode="&#x14f;" horiz-adv-x="744" 
d="M478 806l126 -31q-9 -81 -72 -131t-158.5 -50t-158.5 50t-73 131l126 31q1 -4 2.5 -11t8.5 -25t17 -31.5t30.5 -24.5t47 -11t47 10.5t31 25.5t17 30.5t8.5 25.5zM64 256q0 -119 86 -195t224 -76q132 0 219 76.5t87 194.5t-88.5 195t-217.5 77q-132 0 -221 -76.5
t-89 -195.5zM252 256q0 53 35 87t85 34q25 0 47 -9t38 -25t25.5 -38.5t9.5 -48.5q0 -52 -34 -86t-86 -34q-53 0 -86.5 33.5t-33.5 86.5z" />
    <glyph glyph-name="Ohungarumlaut" unicode="&#x150;" horiz-adv-x="877" 
d="M231 976l173 196l82 -104l-199 -169zM442 976l173 196l82 -104l-199 -169zM23 413q0 179 122 303t294 124q173 0 294 -123.5t121 -303.5q0 -181 -119 -304.5t-296 -123.5q-181 0 -298.5 122.5t-117.5 305.5zM226 413q0 -65 20 -118.5t70 -90.5t123 -37q105 0 158.5 72
t53.5 174q0 101 -54.5 173.5t-157.5 72.5q-102 0 -157.5 -72.5t-55.5 -173.5z" />
    <glyph glyph-name="ohungarumlaut" unicode="&#x151;" horiz-adv-x="661" 
d="M123 664l173 196l82 -104l-199 -169zM334 664l173 196l82 -104l-199 -169zM23 256q0 -119 85.5 -195t223.5 -76q133 0 219.5 76.5t86.5 194.5t-88.5 195t-217.5 77q-131 0 -220 -76.5t-89 -195.5zM211 256q0 53 34.5 87t85.5 34q50 0 84.5 -34t34.5 -87q0 -52 -33.5 -86
t-85.5 -34q-54 0 -87 33.5t-33 86.5z" />
    <glyph glyph-name="OE" unicode="&#x152;" horiz-adv-x="1010" 
d="M678 660v-164h272v-165h-272v-166h284v-165h-523q-173 0 -294.5 117t-121.5 295t121.5 295.5t294.5 117.5h523v-165h-284zM490 657h-29q-104 0 -169.5 -70t-65.5 -174q0 -105 65.5 -175t169.5 -70h29v489z" />
    <glyph glyph-name="oe" unicode="&#x153;" horiz-adv-x="1021" 
d="M997 232h-372q0 -54 35 -80t76 -26q43 0 68 11.5t57 45.5l128 -64q-80 -134 -266 -134q-53 0 -103.5 20.5t-74.5 40.5l-24 20q-3 -3 -8 -8.5t-24 -19.5t-39.5 -24.5t-54 -19.5t-69.5 -9q-137 0 -220 75.5t-83 195.5q0 119 86 195.5t217 76.5q34 0 67 -8.5t55 -20.5
t39 -24t25 -21l8 -8q3 3 9 8.5t25.5 20t41.5 25t56.5 19.5t70.5 9q122 0 198.5 -70.5t76.5 -201.5q0 -18 -1 -24zM630 330h195q-6 40 -31.5 61.5t-65.5 21.5q-44 0 -70 -23t-28 -60zM208 256q0 -53 33 -86.5t87 -33.5q52 0 85.5 34t33.5 86q0 53 -34.5 87t-84.5 34
q-51 0 -85.5 -34t-34.5 -87z" />
    <glyph glyph-name="Racute" unicode="&#x154;" horiz-adv-x="716" 
d="M211 976l203 176l91 -115l-238 -138zM60 825h295q119 0 194 -63.5t75 -181.5q0 -91 -45.5 -152.5t-123.5 -86.5l284 -341h-239l-252 326v-326h-188v825zM248 459h22q26 0 44 1t41 7t37 17t24 32t10 51t-10 51t-24 32t-37 17t-41 7t-44 1h-22v-216z" />
    <glyph glyph-name="racute" unicode="&#x155;" horiz-adv-x="498" 
d="M150 664l203 176l91 -115l-238 -138zM237 0v270q0 8 4 22t13.5 34t32.5 34t55 14q26 0 49 -7t33 -14l10 -7l74 150q-46 32 -112 32q-28 0 -54.5 -9t-44.5 -22t-31.5 -26.5t-19.5 -22.5l-7 -9h-2v74h-177v-513h177z" />
    <glyph glyph-name="Rcommaaccent" unicode="&#x156;" horiz-adv-x="716" 
d="M60 825h295q119 0 194 -63.5t75 -181.5q0 -91 -45.5 -152.5t-123.5 -86.5l284 -341h-239l-252 326v-326h-188v825zM248 459h22q26 0 44 1t41 7t37 17t24 32t10 51t-10 51t-24 32t-37 17t-41 7t-44 1h-22v-216zM357 -40q-36 0 -62 -26.5t-26 -63.5q0 -29 19 -51t48 -29
q-5 -29 -20 -56.5t-27 -40.5l-12 -13l40 -31q130 107 130 221q0 38 -26.5 64t-63.5 26z" />
    <glyph glyph-name="rcommaaccent" unicode="&#x157;" horiz-adv-x="498" 
d="M60 0v513h177v-74h2q2 4 6.5 10t19.5 21t32 27t44 21.5t55 9.5q29 0 57 -8t41 -16l14 -8l-74 -150q-33 28 -92 28q-32 0 -55 -14t-32.5 -34t-13.5 -34t-4 -22v-270h-177zM148 -40q38 0 64 -26t26 -64q0 -114 -130 -221l-40 31q47 45 59 110q-29 7 -48 29t-19 51
q0 37 26 63.5t62 26.5z" />
    <glyph glyph-name="Rcaron" unicode="&#x158;" horiz-adv-x="716" 
d="M171 1152l153 -112l153 112l68 -91l-221 -162l-221 162zM60 825h295q119 0 194 -63.5t75 -181.5q0 -91 -45.5 -152.5t-123.5 -86.5l284 -341h-239l-252 326v-326h-188v825zM248 459h22q26 0 44 1t41 7t37 17t24 32t10 51t-10 51t-24 32t-37 17t-41 7t-44 1h-22v-216z" />
    <glyph glyph-name="rcaron" unicode="&#x159;" horiz-adv-x="498" 
d="M96 840l153 -112l153 112l68 -91l-221 -162l-221 162zM237 0v270q0 8 4 22t13.5 34t32.5 34t55 14q26 0 49 -7t33 -14l10 -7l74 150q-46 32 -112 32q-28 0 -54.5 -9t-44.5 -22t-31.5 -26.5t-19.5 -22.5l-7 -9h-2v74h-177v-513h177z" />
    <glyph glyph-name="Sacute" unicode="&#x15a;" horiz-adv-x="672" 
d="M189 976l203 176l91 -115l-238 -138zM364 840q67 0 131 -19.5t95 -38.5l30 -20l-76 -150q-9 6 -25 15.5t-60 25.5t-82 16q-47 0 -72.5 -20t-25.5 -54q0 -17 12 -31.5t41 -31t51 -26.5t68 -30q80 -34 136.5 -92.5t56.5 -132.5q0 -71 -25.5 -124t-70 -83t-98.5 -44.5
t-117 -14.5q-54 0 -106 11t-87 27.5t-63 32.5t-41 27l-13 11l94 158q12 -10 33 -25.5t74.5 -41.5t94.5 -26q119 0 119 81q0 17 -8.5 31.5t-30 29t-38 23t-54 26t-55.5 26.5q-75 37 -116 92.5t-41 119.5q0 111 82 181.5t187 70.5z" />
    <glyph glyph-name="sacute" unicode="&#x15b;" horiz-adv-x="492" 
d="M139 664l203 176l91 -115l-238 -138zM283 528q44 0 87 -10t64 -20l21 -10l-58 -116q-60 32 -114 32q-30 0 -42.5 -6.5t-12.5 -24.5q0 -4 1 -8t4 -7.5t5.5 -6t8.5 -5.5t9.5 -4.5t11.5 -4.5l12 -4.5t13.5 -4.5t14.5 -4q31 -9 54 -20t48.5 -30t39.5 -48t14 -66
q0 -175 -243 -175q-55 0 -104.5 17t-71.5 34l-22 18l72 121q8 -7 21 -16.5t47 -26t59 -16.5q55 0 55 37q0 17 -14 26.5t-47.5 21.5t-52.5 22q-48 25 -76 56.5t-28 83.5q0 78 60.5 121.5t163.5 43.5z" />
    <glyph glyph-name="Scircumflex" unicode="&#x15c;" horiz-adv-x="719" 
d="M164 975l221 162l221 -162l-68 -91l-153 112l-153 -112zM390 840q67 0 131 -19.5t95 -38.5l30 -20l-76 -150q-9 6 -25 15.5t-60 25.5t-82 16q-47 0 -72.5 -20t-25.5 -54q0 -17 12 -31.5t41 -31t51 -26.5t68 -30q80 -34 136.5 -92.5t56.5 -132.5q0 -71 -25.5 -124t-70 -83
t-98.5 -44.5t-117 -14.5q-54 0 -106 11t-87 27.5t-63 32.5t-41 27l-13 11l94 158q12 -10 33 -25.5t74.5 -41.5t94.5 -26q119 0 119 81q0 17 -8.5 31.5t-30 29t-38 23t-54 26t-55.5 26.5q-75 37 -116 92.5t-41 119.5q0 111 82 181.5t187 70.5z" />
    <glyph glyph-name="scircumflex" unicode="&#x15d;" horiz-adv-x="556" 
d="M58 654l222 162l220 -162l-68 -91l-152 112l-154 -112zM316 528q27 0 55 -4t48 -10t36 -12t24 -10l9 -4l-58 -116q-61 32 -114 32q-30 0 -43 -6.5t-13 -24.5q0 -4 1.5 -8t4.5 -7.5t5.5 -6t8 -5.5t9.5 -4.5t11.5 -4.5t12 -4.5t14 -4.5t13.5 -4q31 -9 54.5 -20t49 -30
t39 -48t13.5 -66q0 -175 -242 -175q-26 0 -50.5 4t-43.5 10t-36.5 13.5t-29.5 14.5t-21 13t-13 10l-4 4l72 121q7 -7 20.5 -16.5t47 -26t58.5 -16.5q16 0 26.5 2t20 10.5t9.5 24.5q0 17 -14 26.5t-48 21.5t-52 22q-31 16 -51.5 31.5t-36.5 44t-16 64.5q0 78 60.5 121.5
t163.5 43.5z" />
    <glyph glyph-name="Scedilla" unicode="&#x15e;" horiz-adv-x="723" 
d="M362 -40q-36 0 -62 -26.5t-26 -63.5q0 -29 19 -51t48 -29q-5 -29 -20 -56.5t-27 -40.5l-12 -13l40 -31q130 107 130 221q0 38 -26 64t-64 26zM392 840q67 0 131 -19.5t95 -38.5l30 -20l-76 -150q-9 6 -25 15.5t-60 25.5t-82 16q-47 0 -72.5 -20t-25.5 -54q0 -17 12 -31.5
t41 -31t51 -26.5t68 -30q80 -34 136.5 -92.5t56.5 -132.5q0 -71 -25.5 -124t-70 -83t-98.5 -44.5t-117 -14.5q-54 0 -106 11t-87 27.5t-63 32.5t-41 27l-13 11l94 158q12 -10 33 -25.5t74.5 -41.5t94.5 -26q119 0 119 81q0 17 -8.5 31.5t-30 29t-38 23t-54 26t-55.5 26.5
q-75 37 -116 92.5t-41 119.5q0 111 82 181.5t187 70.5z" />
    <glyph glyph-name="scedilla" unicode="&#x15f;" horiz-adv-x="546" 
d="M274 -40q-36 0 -62 -26.5t-26 -63.5q0 -29 19 -51t48 -29q-5 -29 -20 -56.5t-27 -40.5l-12 -13l40 -31q130 107 130 221q0 38 -26 64t-64 26zM312 528q28 0 56 -4t48 -10t36 -12t24 -10l8 -4l-58 -116q-60 32 -114 32q-29 0 -41.5 -6.5t-12.5 -24.5q0 -4 1 -8t4 -7.5
t5.5 -6t8 -5.5t9.5 -4.5t11.5 -4.5t12 -4.5t14 -4.5t14.5 -4q30 -9 53.5 -20t49 -30t39.5 -48t14 -66q0 -175 -244 -175q-34 0 -67.5 7t-56 17t-40 20.5t-25.5 17.5l-9 7l72 121q8 -7 21.5 -16.5t47 -26t59.5 -16.5q15 0 25.5 2t19.5 10.5t9 24.5q0 17 -13.5 26.5
t-47.5 21.5t-53 22q-48 25 -76 56.5t-28 83.5q0 78 61 121.5t163 43.5z" />
    <glyph glyph-name="Scaron" unicode="&#x160;" horiz-adv-x="672" 
d="M183 1152l153 -112l153 112l68 -91l-221 -162l-221 162zM364 840q67 0 131 -19.5t95 -38.5l30 -20l-76 -150q-9 6 -25 15.5t-60 25.5t-82 16q-47 0 -72.5 -20t-25.5 -54q0 -17 12 -31.5t41 -31t51 -26.5t68 -30q80 -34 136.5 -92.5t56.5 -132.5q0 -71 -25.5 -124t-70 -83
t-98.5 -44.5t-117 -14.5q-54 0 -106 11t-87 27.5t-63 32.5t-41 27l-13 11l94 158q12 -10 33 -25.5t74.5 -41.5t94.5 -26q119 0 119 81q0 17 -8.5 31.5t-30 29t-38 23t-54 26t-55.5 26.5q-75 37 -116 92.5t-41 119.5q0 111 82 181.5t187 70.5z" />
    <glyph glyph-name="scaron" unicode="&#x161;" horiz-adv-x="492" 
d="M93 840l153 -112l153 112l68 -91l-221 -162l-221 162zM283 528q44 0 87 -10t64 -20l21 -10l-58 -116q-60 32 -114 32q-30 0 -42.5 -6.5t-12.5 -24.5q0 -4 1 -8t4 -7.5t5.5 -6t8.5 -5.5t9.5 -4.5t11.5 -4.5l12 -4.5t13.5 -4.5t14.5 -4q31 -9 54 -20t48.5 -30t39.5 -48
t14 -66q0 -175 -243 -175q-55 0 -104.5 17t-71.5 34l-22 18l72 121q8 -7 21 -16.5t47 -26t59 -16.5q55 0 55 37q0 17 -14 26.5t-47.5 21.5t-52.5 22q-48 25 -76 56.5t-28 83.5q0 78 60.5 121.5t163.5 43.5z" />
    <glyph glyph-name="uni0162" unicode="&#x162;" horiz-adv-x="706" 
d="M353 -40q-36 0 -62 -26.5t-26 -63.5q0 -29 19 -51t48 -29q-5 -29 -20 -56.5t-27 -40.5l-12 -13l40 -31q130 107 130 221q0 38 -26.5 64t-63.5 26zM63 660v165h580v-165h-196v-660h-188v660h-196z" />
    <glyph glyph-name="uni0163" unicode="&#x163;" horiz-adv-x="476" 
d="M228 -40q-37 0 -62.5 -26.5t-25.5 -63.5q0 -29 18.5 -51t47.5 -29q-5 -29 -19.5 -56.5t-26.5 -40.5l-12 -13l40 -31q130 107 130 221q0 38 -26.5 64t-63.5 26zM122 513v191h178v-191h108v-135h-108v-163q0 -71 40 -71q10 0 21 4t17 8l6 4l44 -143q-7 -4 -18.5 -9
t-45.5 -14t-66 -9q-51 0 -87 17.5t-54.5 47t-26.5 62t-8 69.5v197h-74v135h74z" />
    <glyph glyph-name="Tcaron" unicode="&#x164;" horiz-adv-x="922" 
d="M766 938q-37 0 -62.5 -26.5t-25.5 -63.5q0 -29 18.5 -51t47.5 -29q-5 -29 -19.5 -56.5t-26.5 -40.5l-12 -13l40 -31q130 107 130 221q0 38 -26.5 64t-63.5 26zM66 660v165h580v-165h-196v-660h-188v660h-196z" />
    <glyph glyph-name="tcaron" unicode="&#x165;" horiz-adv-x="436" 
d="M476 824q38 0 64 -26t26 -64q0 -114 -130 -221l-40 31q47 45 59 110q-29 7 -48 29t-19 51q0 37 26 63.5t62 26.5zM90 513v191h177v-191h108v-135h-108v-163q0 -71 40 -71q10 0 21 4t17 8l6 4l44 -143q-57 -32 -130 -32q-50 0 -86 17.5t-54.5 47t-26.5 62t-8 69.5v197h-74
v135h74z" />
    <glyph glyph-name="Tbar" unicode="&#x166;" horiz-adv-x="702" 
d="M61 660v165h580v-165h-196v-146h136v-176h-136v-338h-188v338h-127v176h127v146h-196z" />
    <glyph glyph-name="tbar" unicode="&#x167;" horiz-adv-x="485" 
d="M127 546v158h177v-158h108v-135h-108v-61h108v-114h-108v-21q0 -71 40 -71q10 0 21 4t17 8l6 4l44 -143q-57 -32 -130 -32q-50 0 -86 17.5t-54.5 47t-26.5 62t-8 69.5v55h-73v114h73v61h-74v135h74z" />
    <glyph glyph-name="Utilde" unicode="&#x168;" horiz-adv-x="792" 
d="M387 932q-40 19 -76 19q-14 0 -25.5 -11.5t-15.5 -23.5l-4 -11h-101q1 7 3.5 18.5t13 41t24 52.5t39 41.5t56.5 18.5q17 0 43 -6.5t44 -13.5l17 -7q40 -19 76 -19q14 0 25.5 11.5t15.5 23.5l4 11h101q-1 -7 -3.5 -18.5t-13 -41t-24 -52.5t-39 -41.5t-56.5 -18.5
q-17 0 -43 6.5t-44 13.5zM530 825v-477q0 -100 -31.5 -139t-102.5 -39t-102.5 39t-31.5 139v477h-188v-532q0 -152 82 -230t240 -78t240 78t82 230v532h-188z" />
    <glyph glyph-name="utilde" unicode="&#x169;" horiz-adv-x="703" 
d="M344 632q-40 19 -76 19q-14 0 -25 -11.5t-15 -23.5l-4 -11h-102q1 4 2 10t6 24t11.5 34t17.5 36t24.5 34t33 24t41.5 10q18 0 44 -6.5t43 -13.5l17 -7q41 -19 76 -19q15 0 26 11.5t15 23.5l5 11h100q0 -4 -1 -10t-6 -24t-11.5 -34t-17.5 -36t-24.5 -34t-33 -24t-42.5 -10
q-17 0 -43 6.5t-43 13.5zM74 513v-287q0 -128 66 -184.5t211.5 -56.5t212 56.5t66.5 184.5v287h-178v-244q0 -76 -22.5 -108t-78 -32t-78.5 32t-23 108v244h-176z" />
    <glyph glyph-name="Umacron" unicode="&#x16a;" horiz-adv-x="744" 
d="M168 1066h408v-120h-408v120zM506 825v-477q0 -100 -31.5 -139t-102.5 -39t-102.5 39t-31.5 139v477h-188v-532q0 -152 82 -230t240 -78t240 78t82 230v532h-188z" />
    <glyph glyph-name="umacron" unicode="&#x16b;" horiz-adv-x="656" 
d="M124 754h408v-120h-408v120zM50 513v-287q0 -128 66.5 -184.5t211.5 -56.5t211.5 56.5t66.5 184.5v287h-177v-244q0 -76 -23 -108t-78 -32t-78 32t-23 108v244h-177z" />
    <glyph glyph-name="Ubreve" unicode="&#x16c;" horiz-adv-x="792" 
d="M501 1104l126 -31q-9 -81 -72 -131t-159 -50t-159 50t-72 131l126 31q0 -4 1.5 -11t8.5 -25t17.5 -31.5t31 -24.5t46.5 -11t46.5 10.5t31 25.5t17.5 30.5t9 26.5zM530 825v-477q0 -100 -31.5 -139t-102.5 -39t-102.5 39t-31.5 139v477h-188v-532q0 -152 82 -230t240 -78
t240 78t82 230v532h-188z" />
    <glyph glyph-name="ubreve" unicode="&#x16d;" horiz-adv-x="702" 
d="M455 788l126 -31q-9 -81 -72 -131t-159 -50t-159 50t-72 131l126 31q0 -4 1.5 -11t8.5 -25t17.5 -31.5t31 -24.5t46.5 -11t46.5 10.5t31 25.5t17.5 30.5t9 26.5zM73 513v-287q0 -128 66.5 -184.5t211.5 -56.5t211.5 56.5t66.5 184.5v287h-177v-244q0 -76 -23 -108
t-78 -32t-78 32t-23 108v244h-177z" />
    <glyph glyph-name="Uring" unicode="&#x16e;" horiz-adv-x="744" 
d="M211 1045q0 62 46.5 102t114.5 40q69 0 115 -40t46 -102q0 -63 -45 -103t-116 -40q-72 0 -116.5 40t-44.5 103zM311 1045q0 -27 17 -45.5t44 -18.5q26 0 43.5 18.5t17.5 45.5q0 26 -18 44t-43 18t-43 -18.5t-18 -43.5zM694 825v-532q0 -152 -82 -230t-240 -78t-240 78
t-82 230v532h188v-477q0 -100 31.5 -139t102.5 -39t102.5 39t31.5 139v477h188z" />
    <glyph glyph-name="uring" unicode="&#x16f;" horiz-adv-x="656" 
d="M167 733q0 62 46.5 102t114.5 40q69 0 115 -40t46 -102q0 -63 -45 -103t-116 -40q-72 0 -116.5 40t-44.5 103zM267 733q0 -27 17 -45.5t44 -18.5q26 0 43.5 18.5t17.5 45.5q0 26 -18 44t-43 18t-43 -18.5t-18 -43.5zM227 513v-244q0 -76 23 -108t78 -32t78 32t23 108v244
h177v-287q0 -128 -66.5 -184.5t-211.5 -56.5t-211.5 56.5t-66.5 184.5v287h177z" />
    <glyph glyph-name="Uhungarumlaut" unicode="&#x170;" horiz-adv-x="744" 
d="M165 976l173 196l82 -104l-199 -169zM376 976l173 196l82 -104l-199 -169zM506 825v-477q0 -100 -31.5 -139t-102.5 -39t-102.5 39t-31.5 139v477h-188v-532q0 -152 82 -230t240 -78t240 78t82 230v532h-188z" />
    <glyph glyph-name="uhungarumlaut" unicode="&#x171;" horiz-adv-x="656" 
d="M121 664l173 196l82 -104l-199 -169zM332 664l173 196l82 -104l-199 -169zM50 513v-287q0 -128 66.5 -184.5t211.5 -56.5t211.5 56.5t66.5 184.5v287h-177v-244q0 -76 -23 -108t-78 -32t-78 32t-23 108v244h-177z" />
    <glyph glyph-name="Uogonek" unicode="&#x172;" horiz-adv-x="744" 
d="M265 -158q0 58 69 145q-284 18 -284 306v532h188v-477q0 -100 31.5 -139t102.5 -39t102.5 39t31.5 139v477h188v-532q0 -141 -70.5 -218t-206.5 -88q-49 -66 -49 -127q0 -18 11.5 -28.5t25.5 -10.5t26.5 7.5t18.5 15.5l6 7l72 -54q-2 -3 -5.5 -8t-16 -17t-27.5 -21.5
t-38.5 -17.5t-49.5 -8q-47 0 -86.5 29t-39.5 88z" />
    <glyph glyph-name="uogonek" unicode="&#x173;" horiz-adv-x="656" 
d="M221 -158q0 62 69 144q-125 7 -182.5 64t-57.5 176v287h177v-244q0 -76 23 -108t78 -32t78 32t23 108v244h177v-287q0 -118 -56 -175t-178 -65q-48 -68 -48 -126q0 -18 11.5 -28.5t25.5 -10.5t26.5 7.5t18.5 15.5l6 7l72 -54q-2 -3 -5.5 -8t-16 -17t-27.5 -21.5
t-38.5 -17.5t-49.5 -8q-47 0 -86.5 29t-39.5 88z" />
    <glyph glyph-name="Wcircumflex" unicode="&#x174;" horiz-adv-x="1265" 
d="M407 941l221 162l221 -162l-68 -91l-153 112l-153 -112zM765 0l-132 463l-132 -463h-209l-235 825h209l141 -566h5l150 566h142l150 -566h5l141 566h208l-235 -825h-208z" />
    <glyph glyph-name="wcircumflex" unicode="&#x175;" horiz-adv-x="1144" 
d="M342 649l221 162l221 -162l-68 -91l-153 112l-153 -112zM454 0h-120l-275 513h204l125 -277l123 277h122l123 -277l125 277h204l-275 -513h-120l-118 265z" />
    <glyph glyph-name="Ycircumflex" unicode="&#x176;" horiz-adv-x="911" 
d="M238 962l220 162l222 -162l-68 -91l-154 112l-152 -112zM58 825h226l172 -264l172 264h226l-304 -455v-370h-188v370z" />
    <glyph glyph-name="ycircumflex" unicode="&#x177;" horiz-adv-x="794" 
d="M176 662l220 162l222 -162l-68 -91l-154 112l-152 -112zM530 513h204l-404 -773h-204l178 340l-244 433h204l144 -263z" />
    <glyph glyph-name="Ydieresis" unicode="&#x178;" horiz-adv-x="736" 
d="M249 1103q38 0 65 -27t27 -65t-27 -65t-65 -27t-65 27t-27 65t27 65t65 27zM486 1103q38 0 65 -27t27 -65t-27 -65t-65 -27t-65 27t-27 65t27 65t65 27zM-30 825h226l172 -264l172 264h226l-304 -455v-370h-188v370z" />
    <glyph glyph-name="Zacute" unicode="&#x179;" horiz-adv-x="769" 
d="M237 976l203 176l91 -115l-238 -138zM753 825l-409 -660h382v-165h-710l408 660h-350v165h679z" />
    <glyph glyph-name="zacute" unicode="&#x17a;" horiz-adv-x="561" 
d="M190 664l203 176l91 -115l-238 -138zM556 513l-254 -378h234v-135h-531l254 378h-212v135h509z" />
    <glyph glyph-name="Zdotaccent" unicode="&#x17b;" horiz-adv-x="769" 
d="M384 1103q38 0 65 -27t27 -65t-27 -65t-65 -27t-65 27t-27 65t27 65t65 27zM753 825l-409 -660h382v-165h-710l408 660h-350v165h679z" />
    <glyph glyph-name="zdotaccent" unicode="&#x17c;" horiz-adv-x="561" 
d="M280 791q38 0 65 -27t27 -65t-27 -65t-65 -27t-65 27t-27 65t27 65t65 27zM556 513l-254 -378h234v-135h-531l254 378h-212v135h509z" />
    <glyph glyph-name="Zcaron" unicode="&#x17d;" horiz-adv-x="769" 
d="M231 1152l153 -112l153 112l68 -91l-221 -162l-221 162zM753 825l-409 -660h382v-165h-710l408 660h-350v165h679z" />
    <glyph glyph-name="zcaron" unicode="&#x17e;" horiz-adv-x="561" 
d="M128 840l153 -112l153 112l68 -91l-221 -162l-221 162zM556 513l-254 -378h234v-135h-531l254 378h-212v135h509z" />
    <glyph glyph-name="longs" unicode="&#x17f;" horiz-adv-x="643" 
d="M184 740v120h177h231v-120h-231v-740h-177v468h-133v135h133v137z" />
    <glyph glyph-name="uni0180" unicode="&#x180;" horiz-adv-x="683" 
d="M660 256q0 -114 -72 -192.5t-183 -78.5q-102 0 -168 73h-2v-58h-175v860h177v-396q66 64 168 64q111 0 183 -79t72 -193zM472 256q0 53 -34.5 87t-85.5 34q-50 0 -84.5 -34t-34.5 -87q0 -52 33.5 -86t85.5 -34q54 0 87 33.5t33 86.5z" />
    <glyph glyph-name="uni0181" unicode="&#x181;" horiz-adv-x="753" 
d="M122 825h256q116 0 185 -49.5t69 -160.5q0 -124 -103 -177q176 -31 176 -208q0 -104 -72 -167t-198 -63h-313v510l-74 125zM310 502h15q63 0 94 22t31 72q0 84 -125 84h-15v-178zM310 145h59q138 0 138 92q0 55 -34.5 79t-103.5 24h-59v-195z" />
    <glyph glyph-name="uni0182" unicode="&#x182;" horiz-adv-x="727" 
d="M72 0h301q126 0 204 65t78 189t-79 194.5t-203 70.5h-113v221h198v120h-386v-35v-85v-740zM260 369h53q63 0 103.5 -25.5t40.5 -83.5q0 -59 -40.5 -84.5t-103.5 -25.5h-53v219z" />
    <glyph glyph-name="uni0183" unicode="&#x183;" horiz-adv-x="743" 
d="M672 256q0 114 -72.5 193t-183.5 79q-102 0 -168 -64v276h210v120h-210h-176v-120v-740h174v58h2q30 -33 74 -53t94 -20q111 0 183.5 78.5t72.5 192.5zM484 256q0 -53 -33.5 -86.5t-86.5 -33.5q-52 0 -86 34t-34 86.5t34.5 86.5t85.5 34q50 0 85 -34t35 -87z" />
    <glyph glyph-name="uni0184" unicode="&#x184;" horiz-adv-x="756" 
d="M124 0h302q126 0 204 65t78 189t-79 194.5t-203 70.5h-114v306h-188l-76 -190l76 -125v-510zM312 369h54q63 0 103.5 -25.5t40.5 -83.5q0 -59 -40.5 -84.5t-103.5 -25.5h-54v219z" />
    <glyph glyph-name="uni0185" unicode="&#x185;" horiz-adv-x="772" 
d="M724 256q0 114 -72 193t-183 79q-102 0 -168 -64v396h-177l-76 -226l76 -123v-511h175v58h2q66 -73 168 -73q111 0 183 78.5t72 192.5zM536 256q0 -53 -33 -86.5t-87 -33.5q-52 0 -85.5 34t-33.5 86q0 53 34.5 87t84.5 34q51 0 85.5 -34t34.5 -87z" />
    <glyph glyph-name="uni0186" unicode="&#x186;" horiz-adv-x="820" 
d="M293 655q-43 0 -83.5 -12.5t-59.5 -25.5l-19 -13l-80 160q4 3 11 8t32.5 18.5t54.5 23.5t76 18t97 8q115 0 218 -56.5t166 -155.5t63 -214q0 -87 -37 -167t-98.5 -137t-143.5 -91t-168 -34q-80 0 -147.5 19t-95.5 38l-28 19l80 160q7 -6 21 -14.5t56 -22.5t85 -14
q68 0 122 22t85.5 58t48 77.5t16.5 84.5q0 94 -70.5 168.5t-201.5 74.5z" />
    <glyph glyph-name="uni0189" unicode="&#x189;" horiz-adv-x="776" 
d="M98 489v336h239q172 0 294 -117.5t122 -294.5q0 -178 -121.5 -295.5t-294.5 -117.5h-239v336h-82v153h82zM286 489h109v-153h-109v-168h29q103 0 168.5 69.5t66.5 174.5q0 105 -65.5 175t-169.5 70h-29v-168z" />
    <glyph glyph-name="uni018A" unicode="&#x18a;" horiz-adv-x="847" 
d="M144 825h239q172 0 294 -117.5t122 -294.5q0 -178 -121.5 -295.5t-294.5 -117.5h-239v490l-96 125zM332 168h29q103 0 168.5 69.5t66.5 174.5q0 105 -65.5 175t-169.5 70h-29v-489z" />
    <glyph glyph-name="uni018B" unicode="&#x18b;" horiz-adv-x="728" 
d="M656 0h-302q-126 0 -204 65t-78 189t79 194.5t203 70.5h114v221h-198v120h386v-35v-85v-740zM468 369h-54q-63 0 -103.5 -25.5t-40.5 -83.5q0 -59 40.5 -84.5t103.5 -25.5h54v219z" />
    <glyph glyph-name="uni018C" unicode="&#x18c;" horiz-adv-x="745" 
d="M72 256q0 114 72.5 193t183.5 79q102 0 168 -64v276h-210v120h210h176v-120v-740h-174v58h-2q-30 -33 -74 -53t-94 -20q-111 0 -183.5 78.5t-72.5 192.5zM260 256q0 -53 33.5 -86.5t86.5 -33.5q52 0 86 34t34 86.5t-34.5 86.5t-85.5 34q-50 0 -85 -34t-35 -87z" />
    <glyph glyph-name="uni018D" unicode="&#x18d;" horiz-adv-x="743" 
d="M184 -238l26 142q28 -6 54.5 -12.5t31.5 -8.5t20 -2.5t21.5 1t34.5 6.5q54 9 88.5 57t34.5 116v38q-48 -52 -168 -52q-111 0 -183 78.5t-72 192.5t72 193t183 79q99 0 165 -61l180 -130v-351q0 -83 -46.5 -154t-121.5 -112.5t-162 -48.5q-32 -3 -39 -6q-10 10 -119 35z
M260 318q0 -26 8.5 -48.5t24 -38t38 -24.5t49.5 -9q51 0 85 34t34 86.5t-34.5 86.5t-84.5 34q-51 0 -85.5 -34t-34.5 -87zM303 -273z" />
    <glyph glyph-name="uni018E" unicode="&#x18e;" horiz-adv-x="620" 
d="M74 825v-165h284v-164h-272v-165h272v-166h-284v-165h472v825h-472z" />
    <glyph glyph-name="uni018F" unicode="&#x18f;" horiz-adv-x="836" 
d="M71 353h465q0 24 -6 44t-17 34.5t-25 25t-30 17t-31 9.5t-30 3q-53 0 -84.5 -14.5t-71.5 -57.5l-160 80q100 168 333 168q71 0 136 -27t112.5 -72.5t75.5 -108t28 -131.5q0 -92 -47.5 -170.5t-128.5 -124t-176 -45.5q-100 0 -176.5 37.5t-122 115.5t-45.5 187q0 23 1 30z
M530 231h-244q8 -50 40 -77t81 -27q56 0 88 29t35 75z" />
    <glyph glyph-name="uni0190" unicode="&#x190;" horiz-adv-x="727" 
d="M484 587l148 72q-1 4 -3 10.5t-11 25t-21 36t-34 38t-49 35.5t-67.5 25.5t-88.5 10.5q-117 0 -193.5 -67.5t-76.5 -172.5q0 -98 72 -155q-104 -64 -104 -189q0 -118 86.5 -194.5t219.5 -76.5q51 0 96.5 11t76 29t55.5 39.5t39.5 43.5t24.5 40t14 29l4 11l-174 85
q-1 -5 -2.5 -13.5t-10 -30.5t-21.5 -38.5t-40 -30t-61.5 -13.5t-61.5 12.5t-42 37.5t-15 59q0 53 34 87t84 34q9 0 18 -1.5t14 -3.5l4 -1v123h-40q-39 0 -69.5 30t-30.5 74q0 39 31 65t71 26q22 0 40 -5.5t30.5 -14.5t22 -20t15.5 -22t9.5 -20t4.5 -14z" />
    <glyph glyph-name="florin" unicode="&#x192;" horiz-adv-x="682" 
d="M431 296h127l41 150h-144q-7 44 51 106q49 52 82 54q13 -1 18 -10l25 159q-68 6 -154.5 -50t-145 -132t-58.5 -127h-56l-41 -150h73q5 -44 -23.5 -111.5t-72 -120t-77.5 -56.5l-25 -159q28 8 92 55t133 111t116.5 142.5t38.5 138.5z" />
    <glyph glyph-name="uni0194" unicode="&#x194;" horiz-adv-x="976" 
d="M595 120l-112 161l-112 -161h224zM921 0h-866l312 444l-260 381h224l152 -225l152 225h234l-270 -381z" />
    <glyph glyph-name="uni0195" unicode="&#x195;" horiz-adv-x="1080" 
d="M74 0v860h177v-401h2q69 69 147 69q30 0 60 -6t60 -20t53.5 -35t37.5 -54.5t14 -74.5l1 -90v-112q0 -76 23 -108t78.5 -32t78.5 32t22 108v392h177v-435q1 -128 -65.5 -184.5t-212 -56.5t-212 56.5t-66.5 184.5v194l-1 3q0 40 -25 70t-67 30q-39 0 -72 -31t-33 -69v-290
h-177z" />
    <glyph glyph-name="uni0196" unicode="&#x196;" horiz-adv-x="395" 
d="M54 1008l3 -808v-1q-1 -18 0 -32v-19q3 -67 21.5 -96t69.5 -49q7 -3 20 -3.5t26 -0.5t42.5 0.5t54.5 0.5q12 9 24.5 37.5t18.5 51.5l6 24q-4 6 -37.5 17t-38.5 15q-3 3 -9.5 9t-9.5 9.5t-6.5 8.5t-5 9.5t-1.5 9.5v817h-178z" />
    <glyph glyph-name="uni0197" unicode="&#x197;" horiz-adv-x="636" 
d="M412 350v-350h-188v350h-149v116h149v359h188v-359h149v-116h-149z" />
    <glyph glyph-name="uni019A" unicode="&#x19a;" horiz-adv-x="488" 
d="M156 350h-83v116h83v394h177v-394h82v-116h-82v-350h-177v350z" />
    <glyph glyph-name="uni019B" unicode="&#x19b;" horiz-adv-x="840" 
d="M585 2h204l-305 585l199 105l-62 117l-198 -104l-37 70h-204l81 -155l-212 -112l61 -117l212 112l35 -68l-243 -433h204l143 263z" />
    <glyph glyph-name="uni019C" unicode="&#x19c;" horiz-adv-x="1044" 
d="M253 825l39 -489h5l169 484h112l169 -484h5l39 489h188l-74 -825h-200l-183 476l-183 -476h-200l-74 825h188z" />
    <glyph glyph-name="uni019E" unicode="&#x19e;" horiz-adv-x="699" 
d="M74 0v513h177v-54h2q69 69 147 69q38 0 75.5 -10t72 -31t56 -59.5t21.5 -89.5v-509h-177v290q0 59 -27.5 165t-64.5 106q-40 0 -72.5 -31t-32.5 -69v-290h-177z" />
    <glyph glyph-name="uni019F" unicode="&#x19f;" horiz-adv-x="972" 
d="M695 459q-7 55 -31 99t-70 72.5t-108 28.5q-89 0 -143 -57t-66 -143h418zM277 363q12 -86 64 -141t145 -55q92 0 144.5 55.5t64.5 140.5h-418zM70 413q0 89 33.5 168.5t89.5 136t133 89.5t160 33q114 0 209 -56t151 -154.5t56 -216.5q0 -119 -54 -217t-149.5 -154.5
t-212.5 -56.5q-119 0 -214.5 56.5t-148.5 154t-53 217.5z" />
    <glyph glyph-name="uni01A7" unicode="&#x1a7;" horiz-adv-x="723" 
d="M331 840q-67 0 -131 -19.5t-94 -38.5l-31 -20l76 -150q9 6 25 15.5t60 25.5t82 16q47 0 72.5 -20t25.5 -54q0 -17 -12 -31.5t-41 -31t-51 -26.5t-68 -30q-80 -34 -136.5 -92.5t-56.5 -132.5q0 -71 25.5 -124t70 -83t98.5 -44.5t117 -14.5q54 0 106 11t87 27.5t63 32.5
t41 27l13 11l-94 158q-12 -10 -33 -25.5t-74.5 -41.5t-94.5 -26q-119 0 -119 81q0 17 8.5 31.5t30 29t38 23t54 26t55.5 26.5q75 37 116 92.5t41 119.5q0 111 -82 181.5t-187 70.5z" />
    <glyph glyph-name="uni01A8" unicode="&#x1a8;" horiz-adv-x="547" 
d="M234 528q-44 0 -87 -10t-64 -20l-21 -10l58 -116q60 32 114 32q30 0 42.5 -6.5t12.5 -24.5q0 -4 -1 -8t-4 -7.5t-5.5 -6t-8.5 -5.5t-9.5 -4.5t-11.5 -4.5l-12 -4.5t-13.5 -4.5t-14.5 -4q-31 -9 -54 -20t-48.5 -30t-39.5 -48t-14 -66q0 -175 243 -175q55 0 104.5 17
t71.5 34l22 18l-72 121q-8 -7 -21 -16.5t-47 -26t-59 -16.5q-55 0 -55 37q0 17 14 26.5t47.5 21.5t52.5 22q48 25 76 56.5t28 83.5q0 78 -60.5 121.5t-163.5 43.5z" />
    <glyph glyph-name="uni01A9" unicode="&#x1a9;" horiz-adv-x="643" 
d="M569 655l-293 -35v-5l162 -152v-101l-162 -152v-4l293 -36v-169l-495 67v180l158 164l-158 165v180l495 67v-169z" />
    <glyph glyph-name="uni01B1" unicode="&#x1b1;" horiz-adv-x="1032" 
d="M714 478q0 15 -3 31t-8 30t-11.5 27.5t-13.5 25t-14 21.5t-13.5 17.5t-11.5 13t-8 8.5l-3 3l1 117h331v-117h-122q33 -92 33 -206q0 -115 -48 -218t-132 -166t-182 -63t-182.5 62.5t-133 165.5t-48.5 219q0 114 33 206h-106l1 117h331v-117h-5l1 -1q-2 -2 -5.5 -5
t-13.5 -13t-19.5 -21t-21 -27.5t-19.5 -32.5t-13.5 -36.5t-5.5 -40.5q0 -68 18.5 -122t49 -85.5t66 -48t72.5 -16.5q36 0 71.5 16.5t66.5 48t49.5 85.5t18.5 122z" />
    <glyph glyph-name="uni01B2" unicode="&#x1b2;" horiz-adv-x="790" 
d="M602 675l110 -382q20 -72 2.5 -129.5t-64 -97t-114 -60.5t-146.5 -21q-158 0 -240 78t-82 230v532h188v-477q0 -68 14.5 -107.5t43 -55t76.5 -15.5q36 0 65.5 10t51.5 31t26.5 55t-9.5 82l-110 327h188z" />
    <glyph glyph-name="uni01B3" unicode="&#x1b3;" horiz-adv-x="1074" 
d="M62 825h226l172 -264l172 264h226h154l-86 -143h-164l-208 -312v-370h-188v370z" />
    <glyph glyph-name="uni01B4" unicode="&#x1b4;" horiz-adv-x="918" 
d="M663 382l-335 -642h-204l177 340l-243 433h204l143 -263l122 263h333l-68 -133z" />
    <glyph glyph-name="uni01B5" unicode="&#x1b5;" horiz-adv-x="839" 
d="M494 350l-115 -185h382v-165h-710l216 350h-86v116h158l120 194h-350v165h679l-222 -359h101v-116h-173z" />
    <glyph glyph-name="uni01B6" unicode="&#x1b6;" horiz-adv-x="653" 
d="M401 214l-53 -79h234v-135h-531l143 214h-48v86h107l52 78h-212v135h509l-143 -213h51v-86h-109z" />
    <glyph glyph-name="uni01B7" unicode="&#x1b7;" horiz-adv-x="726" 
d="M243 639l-148 201h273q18 0 50 1t48 1t41.5 -2t38.5 -8t31 -17t27 -29t18.5 -43t13 -61t3.5 -82q0 -98 -73 -155q105 -64 105 -189q0 -118 -86.5 -194.5t-219.5 -76.5q-71 0 -129 21t-90.5 50.5t-54 59.5t-29.5 51l-7 21l174 85q0 -5 1.5 -13.5t10.5 -30.5t22 -38.5
t39.5 -30t61.5 -13.5q53 0 86 29t33 80q0 53 -34.5 87t-84.5 34l-36 -6v123h41q39 0 69 30t30 74q0 39 -30.5 65t-71.5 26q-29 0 -52.5 -5t-36 -12.5t-21 -15t-10.5 -12.5z" />
    <glyph glyph-name="uni01B8" unicode="&#x1b8;" horiz-adv-x="727" 
d="M484 639l148 201h-274q-17 0 -51 1h-72.5t-61 -12t-46.5 -36t-29 -72.5t-10 -120.5q0 -98 72 -155q-104 -64 -104 -189q0 -118 86.5 -194.5t219.5 -76.5q51 0 96.5 11t76 29t55.5 39.5t39.5 43.5t24.5 40t14 29l4 11l-174 85q-1 -5 -2.5 -13.5t-10 -30.5t-21.5 -38.5
t-40 -30t-61.5 -13.5t-61.5 12.5t-42 37.5t-15 59q0 53 34 87t84 34q9 0 18 -1.5t14 -3.5l4 -1v123h-40q-39 0 -69.5 30t-30.5 74q0 39 31 65t71 26q22 0 40 -3t30.5 -7t22 -9.5t15.5 -11t9.5 -9.5t4.5 -7z" />
    <glyph glyph-name="uni01B9" unicode="&#x1b9;" horiz-adv-x="637" 
d="M420 557l126 171h-232q-15 0 -38.5 0.5t-36.5 1t-33 -0.5t-31 -4.5t-26 -10t-23 -16.5t-17.5 -25.5t-14 -36.5t-7.5 -49t-3 -63q0 -84 62 -132q-89 -54 -89 -161q0 -100 73.5 -165t186.5 -65q44 0 82.5 9.5t64.5 25t47 33.5t33.5 36.5t21 34t11.5 24.5l3 10l-148 72
q0 -4 -1 -11.5t-8.5 -26t-18.5 -32.5t-34 -25.5t-52 -11.5q-45 0 -73.5 24.5t-28.5 67.5q0 45 29.5 74t72.5 29q7 0 15 -1t11 -3l4 -1v105h-35q-33 0 -58.5 25.5t-25.5 62.5q0 33 26 55.5t61 22.5q25 0 44.5 -4.5t30.5 -11t18 -12.5t9 -11z" />
    <glyph glyph-name="uni01BB" unicode="&#x1bb;" horiz-adv-x="777" 
d="M375 681q-40 0 -76.5 -39.5t-53.5 -78.5l-17 -39l-157 76q3 10 10 26t33 57.5t57.5 73t86 57.5t117.5 26q81 0 141.5 -20.5t93.5 -51t53.5 -72t26 -75.5t5.5 -71q0 -78 -63 -169h72v-116h-175q-29 -27 -60.5 -52t-47.5 -37l-17 -11h306v-165h-643v47q122 101 236 218
h-188v116h291q86 109 86 169q0 17 -3.5 34t-13.5 41.5t-36 40t-64 15.5z" />
    <glyph glyph-name="uni01BC" unicode="&#x1bc;" horiz-adv-x="701" 
d="M50 164l150 72q12 -42 48 -68t96 -26q52 0 85 34t33 86q0 39 -18 68t-49 45.5t-67.5 24t-79.5 7.5q-81 0 -140 -26l68 444h470v-165h-308l-18 -115q3 0 10.5 0.5t11.5 0.5q42 0 78 -6t71.5 -18.5t63.5 -35t50 -53.5t33.5 -76t11.5 -101q0 -118 -86.5 -194.5t-219.5 -76.5
q-63 0 -115 16t-86.5 42.5t-57 56.5t-35.5 64z" />
    <glyph glyph-name="uni01BD" unicode="&#x1bd;" horiz-adv-x="612" 
d="M51 136l127 61q10 -35 40.5 -57.5t82.5 -22.5q43 0 71.5 29t28.5 73q0 34 -15 58.5t-42 38.5t-58 20.5t-67 6.5q-69 0 -120 -22l59 377h358v-140h-221l-15 -98q3 0 9.5 0.5t9.5 0.5q42 0 78.5 -7t71 -24.5t59 -44.5t39 -70.5t14.5 -100.5q0 -100 -73.5 -165t-186.5 -65
q-43 0 -80.5 9t-64.5 24t-48.5 35t-35 40.5t-21.5 43.5z" />
    <glyph glyph-name="uni01BE" unicode="&#x1be;" horiz-adv-x="671" 
d="M208 261l-148 -71q0 -2 3 -12t11.5 -27.5t20.5 -37t33.5 -39.5t47.5 -36t65.5 -26.5t84.5 -10.5q76 0 140.5 30t104 85.5t39.5 123.5q0 120 -151 191h69v90h-122v77h-164v-77h-101v-90h101q5 -51 46 -78q16 -10 43.5 -23.5t40 -21.5t23.5 -25.5t11 -42.5q0 -36 -23 -59
t-57 -23q-49 0 -78.5 31.5t-39.5 71.5z" />
    <glyph glyph-name="uni01BF" unicode="&#x1bf;" horiz-adv-x="611" 
d="M185 260v-258h-124v701l124 2v-445zM185 260v102l198 121l-198 120v102l365 -222z" />
    <glyph glyph-name="uni01C0" unicode="&#x1c0;" horiz-adv-x="287" 
d="M75 0v860h137v-860h-137z" />
    <glyph glyph-name="uni01C1" unicode="&#x1c1;" horiz-adv-x="517" 
d="M305 0v860h137v-860h-137zM75 0v860h137v-860h-137z" />
    <glyph glyph-name="uni01C2" unicode="&#x1c2;" horiz-adv-x="512" 
d="M187 445h-113v116h113v299h137v-299h114v-116h-114v-62h114v-116h-114v-267h-137v267h-113v116h113v62z" />
    <glyph glyph-name="uni01C3" unicode="&#x1c3;" horiz-adv-x="359" 
d="M115 270l-24 590h177l-24 -590h-129zM179 214q48 0 81.5 -33.5t33.5 -81.5q0 -47 -33.5 -80.5t-81.5 -33.5q-47 0 -80.5 33.5t-33.5 80.5q0 48 33.5 81.5t80.5 33.5z" />
    <glyph glyph-name="uni01C4" unicode="&#x1c4;" horiz-adv-x="1387" 
d="M860 1119l152 -112l154 112l68 -91l-222 -162l-220 162zM1326 825l-409 -660h382v-165h-710l408 660h-350v165h679zM61 825h239q172 0 294 -117.5t122 -294.5q0 -178 -121.5 -295.5t-294.5 -117.5h-239v825zM249 168h29q103 0 168.5 69.5t66.5 174.5q0 105 -65.5 175
t-169.5 70h-29v-489z" />
    <glyph glyph-name="uni01C5" unicode="&#x1c5;" horiz-adv-x="1241" 
d="M779 811l153 -112l153 112l68 -91l-221 -162l-221 162zM62 825h239q146 0 258.5 -86.5t145.5 -225.5h474l-254 -378h234v-135h-531l254 378h-166q-9 -109 -67 -196t-149.5 -134.5t-198.5 -47.5h-239v825zM250 168h29q103 0 168.5 69.5t66.5 174.5q0 105 -65.5 175
t-169.5 70h-29v-489z" />
    <glyph glyph-name="uni01C6" unicode="&#x1c6;" horiz-adv-x="1192" 
d="M651 378v-265l178 265h-178zM767 807l153 -112l153 112l68 -91l-221 -162l-221 162zM51 256q0 114 72 193t183 79q102 0 168 -64v396h177v-347h475l-254 -378h234v-135h-455h-76h-99v58h-2q-30 -33 -74 -53t-94 -20q-74 0 -132.5 36.5t-90.5 98t-32 136.5zM239 256
q0 -35 14.5 -62t42 -42.5t63.5 -15.5q34 0 61 15.5t42.5 42.5t15.5 62q0 53 -34.5 87t-84.5 34q-51 0 -85.5 -34t-34.5 -87z" />
    <glyph glyph-name="uni01C7" unicode="&#x1c7;" horiz-adv-x="1089" 
d="M1014 825v-592q0 -121 -66 -184.5t-190 -63.5q-34 0 -66 8t-54 19.5t-39.5 23.5t-25.5 20l-9 8l60 157q2 -1 4 -3t9 -8t14.5 -11t18 -11.5t20 -11.5t21 -8t21.5 -3q43 0 68.5 28.5t25.5 87.5v544h188zM262 825v-660h284v-165h-472v825h188z" />
    <glyph glyph-name="uni01C8" unicode="&#x1c8;" horiz-adv-x="833" 
d="M659 830q43 0 74 -31t31 -74t-31 -74t-74 -31t-74 31t-31 74t31 74t74 31zM568 513v-558q0 -70 -49 -70q-10 0 -21 3.5t-18 7.5l-6 4l-55 -143q2 -1 13 -6l16.5 -7.5t18.5 -6.5t25 -6t30 -4t38 -2q50 0 88 17.5t58 47t29.5 62t9.5 69.5v592h-177zM257 825v-660h284v-165
h-472v825h188z" />
    <glyph glyph-name="uni01C9" unicode="&#x1c9;" horiz-adv-x="558" 
d="M384 830q44 0 74.5 -31t30.5 -74t-30.5 -74t-74.5 -31t-74.5 31t-30.5 74t30.5 74t74.5 31zM293 513v-558q0 -70 -49 -70q-10 0 -21 3.5t-17 7.5l-7 4l-55 -143q2 -1 13 -6l16.5 -7.5t18.5 -6.5t25 -6t30 -4t38 -2q50 0 88 17.5t58 47t29.5 62t9.5 69.5v592h-177zM69 0
v860h177v-860h-177z" />
    <glyph glyph-name="uni01CA" unicode="&#x1ca;" horiz-adv-x="1322" 
d="M1248 825v-592q0 -121 -66.5 -184.5t-191.5 -63.5q-33 0 -65 8t-54 19.5t-39.5 23.5t-25.5 20l-8 8l60 157q6 -6 17 -15.5t39.5 -25t49.5 -15.5q44 0 70 28.5t26 87.5v544h188zM262 512v-512h-188v825h188l328 -512h2v512h188v-825h-188l-328 512h-2z" />
    <glyph glyph-name="uni01CB" unicode="&#x1cb;" horiz-adv-x="1085" 
d="M910.5 830q43.5 0 74.5 -31t31 -74t-31 -74t-74.5 -31t-74 31t-30.5 74t30.5 74t74 31zM820 513v-558q0 -70 -50 -70q-9 0 -20.5 3.5t-17.5 7.5l-6 4l-56 -143q3 -1 13.5 -6t16 -7.5t19 -6.5t25 -6t29.5 -4t39 -2q50 0 87.5 17.5t58 47t29.5 62t9 69.5v592h-176zM258 512
v-512h-188v825h188l328 -512h2v512h188v-825h-188l-328 512h-2z" />
    <glyph glyph-name="uni01CC" unicode="&#x1cc;" horiz-adv-x="930" 
d="M757.5 830q43.5 0 74 -31t30.5 -74t-30.5 -74t-74 -31t-74.5 31t-31 74t31 74t74.5 31zM666 513v-558q0 -70 -48 -70q-10 0 -21.5 3.5t-17.5 7.5l-7 4l-54 -143q2 -1 12.5 -6t16 -7.5t19 -6.5t25 -6t29.5 -4t38 -2q51 0 88.5 17.5t58 47t30 62t9.5 69.5v592h-178zM68 0
v513h176v-54h2q70 69 148 69q29 0 59 -6t60 -20t53.5 -35t37.5 -54.5t14 -74.5v-338h-176v290q0 40 -25.5 70t-66.5 30q-40 0 -73 -31t-33 -69v-290h-176z" />
    <glyph glyph-name="uni01CD" unicode="&#x1cd;" horiz-adv-x="943" 
d="M692 1061l-220 -162l-222 162l68 91l154 -112l152 112zM558 825l334 -825h-202l-62 165h-314l-60 -165h-202l332 825h174zM564 330l-92 240h-2l-92 -240h186z" />
    <glyph glyph-name="uni01CE" unicode="&#x1ce;" horiz-adv-x="741" 
d="M610 749l-222 -162l-220 162l68 91l152 -112l154 112zM70 256q0 -114 72.5 -192.5t183.5 -78.5q50 0 94 20t74 53h2v-58h174v513h-176v-49q-66 64 -168 64q-111 0 -183.5 -79t-72.5 -193zM258 256q0 53 35 87t85 34q51 0 85.5 -34t34.5 -86.5t-34 -86.5t-86 -34
q-53 0 -86.5 33.5t-33.5 86.5z" />
    <glyph glyph-name="uni01CF" unicode="&#x1cf;" horiz-adv-x="552" 
d="M123 1147l153 -112l153 112l68 -91l-221 -162l-221 162zM363 825v-825h-188v825h188z" />
    <glyph glyph-name="uni01D0" unicode="&#x1d0;" horiz-adv-x="561" 
d="M188 513v-513h176v513h-176zM128 830l152 -112l154 112l68 -91l-222 -162l-220 162z" />
    <glyph glyph-name="uni01D1" unicode="&#x1d1;" horiz-adv-x="961" 
d="M706 1061l-220 -162l-222 162l68 91l154 -112l152 112zM65 413q0 179 122 303t294 124q173 0 294 -123.5t121 -303.5q0 -181 -119 -304.5t-296 -123.5q-181 0 -298.5 122.5t-117.5 305.5zM268 413q0 -65 20 -118.5t70 -90.5t123 -37q105 0 158.5 72t53.5 174
q0 101 -54.5 173.5t-157.5 72.5q-102 0 -157.5 -72.5t-55.5 -173.5z" />
    <glyph glyph-name="uni01D2" unicode="&#x1d2;" horiz-adv-x="744" 
d="M599 749l-221 -162l-221 162l68 91l153 -112l153 112zM64 256q0 119 89 195.5t221 76.5q129 0 217.5 -77t88.5 -195t-87 -194.5t-219 -76.5q-138 0 -224 76t-86 195zM252 256q0 -26 9 -48t24.5 -38t38 -25t48.5 -9q52 0 86 34t34 86.5t-34.5 86.5t-85.5 34q-50 0 -85 -34
t-35 -87z" />
    <glyph glyph-name="uni01D3" unicode="&#x1d3;" horiz-adv-x="792" 
d="M620 990l-221 -162l-221 162l68 91l153 -112l153 112zM718 825v-532q0 -152 -82 -230t-240 -78t-240 78t-82 230v532h188v-477q0 -100 31.5 -139t102.5 -39t102.5 39t31.5 139v477h188z" />
    <glyph glyph-name="uni01D4" unicode="&#x1d4;" horiz-adv-x="702" 
d="M573 705l-221 -162l-221 162l68 91l153 -112l153 112zM250 513v-244q0 -76 23 -108t78 -32t78 32t23 108v244h177v-287q0 -128 -66.5 -184.5t-211.5 -56.5t-211.5 56.5t-66.5 184.5v287h177z" />
    <glyph glyph-name="uni01DD" unicode="&#x1dd;" horiz-adv-x="698" 
d="M72 281h372q0 54 -35 80t-77 26q-29 0 -48.5 -5t-36.5 -16.5t-39 -35.5l-128 64q80 134 266 134q116 0 199 -79.5t83 -191.5t-83 -192t-199 -80q-122 0 -199 70.5t-77 201.5q0 18 2 24zM438 183h-194q2 -20 10.5 -35.5t21 -26t29 -16t35.5 -5.5q30 0 52 11t33.5 29.5
t12.5 42.5z" />
    <glyph glyph-name="uni01E2" unicode="&#x1e2;" horiz-adv-x="1056" 
d="M332 165l-70 -165h-202l376 825h560v-165h-284v-164h272v-165h-272v-166h284v-165h-472v165h-192zM524 330v302h-2l-124 -302h126zM436 1040h408v-120h-408v120z" />
    <glyph glyph-name="uni01E3" unicode="&#x1e3;" horiz-adv-x="1013" 
d="M147 357l-56 121q7 6 21.5 14t65 22t108.5 14q131 0 212 -64q78 64 182 64q122 0 198.5 -70.5t76.5 -201.5q0 -18 -1 -24h-372q0 -54 35 -80t76 -26q43 0 68 11.5t57 45.5l128 -64q-80 -134 -266 -134q-129 0 -213 94q-3 -4 -8 -10t-24 -22.5t-42 -29t-62 -22.5t-83 -10
q-82 0 -136 41.5t-54 109.5q0 71 49 118t134 47q101 0 157 -39v37q0 39 -35 63.5t-77 24.5q-41 0 -75.5 -7.5t-48.5 -15.5zM587 330h195q-6 40 -31.5 61.5t-65.5 21.5q-44 0 -70 -23t-28 -60zM234 151q0 -27 22 -43.5t57 -16.5t60 18.5t25 41.5t-25 39.5t-60 16.5
q-36 0 -57.5 -14.5t-21.5 -41.5zM284 737h408v-120h-408v120z" />
    <glyph glyph-name="uni01E4" unicode="&#x1e4;" horiz-adv-x="935" 
d="M809 191q-34 -69 -91.5 -116.5t-123 -68.5t-135.5 -21q-109 0 -201.5 57t-146.5 155.5t-54 214.5q0 117 51.5 215t144 155.5t206.5 57.5q201 0 318 -141l-123 -135q-66 106 -184 106q-87 0 -148.5 -75.5t-61.5 -182.5q0 -105 61.5 -179.5t148.5 -74.5q63 0 112 33h-108
v99h173q2 13 2 27h-190v145h381v-172h38v-99h-69z" />
    <glyph glyph-name="uni01E5" unicode="&#x1e5;" horiz-adv-x="756" 
d="M65 -126l145 71q10 -17 26.5 -31t46.5 -24.5t66 -10.5q50 0 86 30h-134v72h172q1 9 1 18v38q-47 -52 -168 -52q-74 0 -132.5 36.5t-90.5 98t-32 136.5q0 114 72 193t183 79q99 0 165 -61h3v46h177v-527v-5h54v-72h-64q-24 -89 -102 -136.5t-190 -47.5q-220 0 -284 149z
M239 256q0 -35 14.5 -62t42 -42.5t63.5 -15.5q34 0 61 15.5t42.5 42.5t15.5 62q0 53 -34.5 87t-84.5 34q-51 0 -85.5 -34t-34.5 -87z" />
    <glyph glyph-name="Gcaron" unicode="&#x1e6;" horiz-adv-x="926" 
d="M854 462v-179q-16 -76 -55 -134.5t-91.5 -93.5t-112 -52.5t-121.5 -17.5q-110 0 -202.5 57t-146 155.5t-53.5 214.5q0 117 51.5 215t144 155.5t206.5 57.5q201 0 318 -141l-124 -135q-66 106 -184 106q-87 0 -148.5 -75.5t-61.5 -182.5q0 -105 62 -179.5t148 -74.5
q72 0 126 43.5t54 115.5h-190v145h380zM698 1046l-222 -162l-220 162l68 91l152 -112l154 112z" />
    <glyph glyph-name="gcaron" unicode="&#x1e7;" horiz-adv-x="743" 
d="M86 -126l144 71q11 -17 27.5 -31t46 -24.5t66.5 -10.5q20 0 40 6.5t40 19.5t32 37.5t12 56.5v38q-47 -52 -168 -52q-110 0 -182 78.5t-72 192.5t72 193t182 79q100 0 166 -61h2v46h178v-527q0 -125 -83.5 -193t-218.5 -68q-220 0 -284 149zM260 256q0 -53 33 -86.5
t87 -33.5q34 0 61 15.5t42 42.5t15 62q0 53 -34 87t-84 34q-51 0 -85.5 -34t-34.5 -87zM624 734l-222 -162l-220 162l68 91l152 -112l154 112z" />
    <glyph glyph-name="uni01E8" unicode="&#x1e8;" horiz-adv-x="860" 
d="M806 0h-260l-304 350v-350h-188v825h188v-337l284 337h228l-332 -391zM614 987l-222 -162l-220 162l68 91l152 -112l154 112z" />
    <glyph glyph-name="uni01E9" unicode="&#x1e9;" horiz-adv-x="721" 
d="M642 513l-244 -245l268 -268h-228l-206 205v-205h-176v860h176v-526l180 179h230zM576 987l-222 -162l-220 162l68 91l152 -112l154 112z" />
    <glyph glyph-name="uni01EA" unicode="&#x1ea;" horiz-adv-x="962" 
d="M268 413q0 -32 5.5 -61t16 -57t28 -51t40.5 -40.5t54.5 -27t69.5 -9.5q54 0 95.5 21t66.5 56.5t37.5 78t12.5 90.5q0 31 -6 61t-17 57.5t-29 50.5t-40.5 40.5t-53.5 27t-66 9.5q-70 0 -119.5 -36.5t-72 -91t-22.5 -118.5zM66 413q0 89 33 168.5t89 136t133 89.5t161 33
q113 0 208 -56t150.5 -154.5t55.5 -216.5q0 -119 -53.5 -217t-149 -154.5t-211.5 -56.5q-7 -8 -17 -21.5t-26.5 -50.5t-16.5 -68q0 -18 12 -28.5t26 -10.5q13 0 26 7.5t19 14.5l5 8l72 -54q-1 -3 -4.5 -8t-16.5 -17t-27.5 -21.5t-38.5 -17.5t-49 -8q-21 0 -42 6.5
t-40.5 19.5t-31.5 36.5t-12 54.5q0 66 85 164q-151 26 -245 143t-94 279z" />
    <glyph glyph-name="uni01EB" unicode="&#x1eb;" horiz-adv-x="746" 
d="M254 256q0 -26 8.5 -48t24 -38t38 -25t49.5 -9q51 0 84.5 34t33.5 86.5t-34 86.5t-84 34q-51 0 -85.5 -34t-34.5 -87zM66 256q0 119 88.5 195.5t219.5 76.5q130 0 218 -77t88 -195t-86.5 -194.5t-219.5 -76.5q-2 -3 -6 -8t-14 -21t-18 -31.5t-14 -37.5t-6 -42
q0 -18 11.5 -28.5t24.5 -10.5q14 0 27 7.5t19 14.5l6 8l72 -54q-1 -2 -3 -4.5t-8.5 -10t-14 -14t-19.5 -15t-25 -14.5t-31 -10t-37 -4q-20 0 -41 6.5t-40.5 19.5t-32 36.5t-12.5 54.5q0 66 87 165q-107 20 -170 91.5t-63 172.5z" />
    <glyph glyph-name="uni01EC" unicode="&#x1ec;" horiz-adv-x="961" 
d="M268 1038h408v-120h-408v120zM268 413q0 -65 20 -118.5t70 -90.5t123 -37q105 0 158.5 72t53.5 174q0 101 -54.5 173.5t-157.5 72.5q-102 0 -157.5 -72.5t-55.5 -173.5zM65 413q0 179 122 303t294 124q173 0 294 -123.5t121 -303.5q0 -181 -119 -304.5t-296 -123.5
q-7 -8 -16.5 -21.5t-26 -50.5t-16.5 -68q0 -18 11.5 -28.5t25.5 -10.5t26.5 7.5t18.5 14.5l6 8l72 -54q-2 -3 -5.5 -8t-16 -17t-27.5 -21.5t-38.5 -17.5t-49.5 -8q-47 0 -86.5 29t-39.5 88q0 66 86 164q-152 26 -246 143t-94 279z" />
    <glyph glyph-name="uni01ED" unicode="&#x1ed;" horiz-adv-x="743" 
d="M164 723h408v-120h-408v120zM252 256q0 -53 33 -86.5t87 -33.5q52 0 85.5 34t33.5 86q0 53 -34.5 87t-84.5 34q-51 0 -85.5 -34t-34.5 -87zM64 256q0 119 89 195.5t220 76.5q129 0 217.5 -77t88.5 -195t-86.5 -194.5t-219.5 -76.5q-7 -8 -16.5 -21.5t-26 -50.5t-16.5 -68
q0 -18 11.5 -28.5t25.5 -10.5t26.5 7.5t18.5 14.5l6 8l72 -54q-2 -3 -5.5 -8t-16 -17t-27.5 -21.5t-38.5 -17.5t-49.5 -8q-47 0 -86.5 29t-39.5 88q0 66 86 165q-70 13 -123 49.5t-81.5 92t-28.5 122.5z" />
    <glyph glyph-name="uni01EE" unicode="&#x1ee;" horiz-adv-x="720" 
d="M240 639l-148 201h273q18 0 50 1t48 1t41.5 -2t38.5 -8t31 -17t27 -29t18.5 -43t13 -61t3.5 -82q0 -98 -73 -155q105 -64 105 -189q0 -118 -86.5 -194.5t-219.5 -76.5q-71 0 -129 21t-90.5 50.5t-54 59.5t-28.5 51l-8 21l174 85q0 -5 1.5 -13.5t10.5 -30.5t22 -38.5
t39.5 -30t61.5 -13.5q53 0 86 29t33 80q0 53 -34.5 87t-84.5 34l-36 -6v123h41q39 0 69 30t30 74q0 39 -30.5 65t-71.5 26q-29 0 -52.5 -5t-36 -12.5t-21 -15t-11.5 -12.5zM590 1045l-221 -162l-221 162l68 91l153 -112l153 112z" />
    <glyph glyph-name="uni01EF" unicode="&#x1ef;" horiz-adv-x="631" 
d="M214 557l-126 171h232q15 0 38.5 0.5t36.5 1t33 -0.5t31 -4.5t26 -10t23 -16.5t17.5 -25.5t14 -36.5t7.5 -49t3 -63q0 -84 -62 -132q89 -54 89 -161q0 -100 -73.5 -165t-186.5 -65q-44 0 -82.5 9.5t-64.5 25t-47 33.5t-33.5 36.5t-21 34t-11.5 24.5l-3 10l148 72
q0 -2 0.5 -6t3.5 -15t7.5 -21.5t13.5 -22.5t20.5 -21t29.5 -15t39 -6q45 0 73.5 24.5t28.5 67.5q0 45 -29.5 74t-72.5 29q-7 0 -15 -1t-11 -3l-4 -1v105h35q33 0 58.5 25.5t25.5 62.5q0 33 -26 55.5t-61 22.5q-25 0 -44.5 -4.5t-30.5 -11t-18 -12.5t-9 -11zM547 937
l-221 -162l-221 162l68 91l153 -112l153 112z" />
    <glyph glyph-name="uni01F0" unicode="&#x1f0;" horiz-adv-x="559" 
d="M135 848l153 -112l153 112l68 -91l-221 -162l-221 162zM199 513v-558q0 -70 -49 -70q-9 0 -20.5 3.5t-17.5 7.5l-7 4l-55 -143q3 -1 13.5 -6t16 -7.5t19 -6.5t25 -6t29.5 -4t38 -2q51 0 88.5 17.5t57.5 47t29.5 62t9.5 69.5v592h-177z" />
    <glyph glyph-name="uni01F1" unicode="&#x1f1;" horiz-adv-x="1392" 
d="M1328 825l-408 -660h382v-165h-710l408 660h-350v165h678zM64 825h238q113 0 208 -52.5t151.5 -147.5t56.5 -212q0 -118 -56.5 -213t-151.5 -147.5t-208 -52.5h-238v825zM252 168h28q104 0 169.5 69.5t66.5 174.5q0 105 -66 175t-170 70h-28v-489z" />
    <glyph glyph-name="uni01F2" unicode="&#x1f2;" horiz-adv-x="1248" 
d="M66 825h238q146 0 259 -86.5t146 -225.5h473l-254 -378h234v-135h-531l254 378h-166q-8 -109 -66 -196t-149.5 -134.5t-199.5 -47.5h-238v825zM254 168h28q104 0 169.5 69.5t66.5 174.5q0 105 -66 175t-170 70h-28v-489z" />
    <glyph glyph-name="uni01F3" unicode="&#x1f3;" horiz-adv-x="1176" 
d="M650 378v-265l178 265h-178zM50 256q0 114 72.5 193t183.5 79q102 0 168 -64v396h176v-347h476l-254 -378h234v-135h-456h-76h-98v58h-2q-30 -33 -74 -53t-94 -20q-74 0 -132.5 36.5t-91 98t-32.5 136.5zM238 256q0 -53 33.5 -86.5t86.5 -33.5q52 0 86 34t34 86.5
t-34.5 86.5t-85.5 34q-50 0 -85 -34t-35 -87z" />
    <glyph glyph-name="uni01F4" unicode="&#x1f4;" horiz-adv-x="925" 
d="M854 462v-179q-32 -147 -140 -222.5t-241 -75.5q-167 0 -284.5 125t-117.5 302q0 180 115 304t287 124q201 0 318 -141l-123 -135q-66 106 -184 106q-87 0 -148.5 -75.5t-61.5 -182.5q0 -105 61.5 -179.5t148.5 -74.5q72 0 125.5 43.5t53.5 115.5h-190v145h381zM362 939
l203 176l91 -115l-238 -138z" />
    <glyph glyph-name="uni01F5" unicode="&#x1f5;" horiz-adv-x="741" 
d="M84 -126l146 71q10 -17 26.5 -31t46 -24.5t65.5 -10.5q21 0 41 6.5t40 19.5t32.5 37.5t12.5 56.5v38q-48 -52 -168 -52q-111 0 -183.5 78.5t-72.5 192.5t72.5 193t183.5 79q99 0 164 -61h4v46h176v-527q0 -125 -83 -193t-219 -68q-219 0 -284 149zM258 256q0 -26 9 -48
t24.5 -38t38 -25t48.5 -9q52 0 86 34t34 86.5t-34.5 86.5t-85.5 34q-50 0 -85 -34t-35 -87zM270 668l204 176l90 -115l-238 -138z" />
    <glyph glyph-name="uni01F6" unicode="&#x1f6;" horiz-adv-x="1247" 
d="M263 331v-331h-188v825h188v-329h265v43h1v286h188v-735q5 -82 37 -117.5t96 -35.5q70 0 102 43t32 145v414h188v-489q0 -298 -322 -298q-167 0 -244.5 55.5t-77.5 201.5v322h-265z" />
    <glyph glyph-name="uni01F7" unicode="&#x1f7;" horiz-adv-x="697" 
d="M206 303v-303h-146v825l146 2v-524zM206 303l1 120l233 143l-233 141l-1 120l430 -261z" />
    <glyph glyph-name="uni01F8" unicode="&#x1f8;" horiz-adv-x="856" 
d="M575 976l-203 176l-91 -115l238 -138zM263 512v-512h-188v825h188l328 -512h2v512h188v-825h-188l-328 512h-2z" />
    <glyph glyph-name="uni01F9" unicode="&#x1f9;" horiz-adv-x="699" 
d="M531 664l-203 176l-91 -115l238 -138zM251 0v290q0 38 32.5 69t72.5 31q41 0 66.5 -30t25.5 -70v-290h177v338q0 51 -21.5 89.5t-56 59.5t-72 31t-75.5 10q-78 0 -147 -69h-2v54h-177v-513h177z" />
    <glyph glyph-name="AEacute" unicode="&#x1fc;" horiz-adv-x="1054" 
d="M330 165l-70 -165h-202l378 825h560v-165h-284v-164h272v-165h-272v-166h284v-165h-472v165h-194zM524 330v302h-2l-126 -302h128zM496 947l202 176l92 -115l-238 -138z" />
    <glyph glyph-name="aeacute" unicode="&#x1fd;" horiz-adv-x="1006" 
d="M144 357l-56 121q2 2 7 5.5t23.5 12t39 15t54.5 12t70 5.5q55 0 112.5 -15t99.5 -49q79 64 182 64q122 0 199 -70.5t77 -201.5q0 -18 -2 -24h-372q0 -37 19.5 -62t43 -34.5t49.5 -9.5q42 0 67 11.5t57 45.5l128 -64q-80 -134 -266 -134q-62 0 -117.5 25t-94.5 69
q-3 -4 -8 -10t-24.5 -22.5t-42 -29t-62 -22.5t-83.5 -10q-82 0 -136 41.5t-54 109.5q0 46 21.5 83.5t63.5 59.5t99 22q100 0 156 -39v37q0 39 -35 63.5t-77 24.5q-25 0 -49 -3t-39.5 -7.5t-27.5 -9t-17 -7.5zM584 330h194q-5 40 -31 61.5t-65 21.5q-45 0 -70.5 -23
t-27.5 -60zM230 151q0 -27 22 -43.5t58 -16.5q17 0 32.5 5t27 13.5t18 19.5t6.5 22q0 23 -25 39.5t-59 16.5q-24 0 -42 -6.5t-28 -19t-10 -30.5zM436 617l204 176l90 -115l-238 -138z" />
    <glyph glyph-name="Oslashacute" unicode="&#x1fe;" horiz-adv-x="952" 
d="M104 59l56 69q-100 118 -100 285q0 89 33.5 168.5t89.5 136t133 89.5t160 33q110 0 206 -55l54 68l112 -86l-58 -73q102 -120 102 -281q0 -119 -54 -217t-149.5 -154.5t-212.5 -56.5q-115 0 -208 53l-52 -65zM264 413q0 -70 22 -125l280 352q-40 19 -90 19
q-69 0 -118.5 -36.5t-71.5 -91t-22 -118.5zM688 413q0 67 -24 123l-280 -351q39 -18 92 -18q55 0 96.5 21t66.5 56.5t37 78t12 90.5zM420 947l202 176l92 -115l-238 -138z" />
    <glyph glyph-name="oslashacute" unicode="&#x1ff;" horiz-adv-x="770" 
d="M722 484l-84 -69q54 -68 54 -159q0 -118 -86.5 -194.5t-219.5 -76.5q-123 0 -204 61l-90 -72l-44 54l82 67q-52 69 -52 161q0 119 88.5 195.5t219.5 76.5q116 0 202 -63l90 73zM266 256q0 -26 6 -46l182 146q-31 21 -68 21q-51 0 -85.5 -34t-34.5 -87zM386 136
q51 0 84.5 34t33.5 86q0 23 -8 45l-180 -146q31 -19 70 -19zM330 651l204 176l90 -115l-238 -138z" />
    <glyph glyph-name="uni0200" unicode="&#x200;" horiz-adv-x="948" 
d="M452 928l-173 196l-82 -104l199 -169zM663 928l-173 196l-82 -104l199 -169zM567 330l-92 240h-2l-92 -240h186zM561 825l333 -825h-202l-61 165h-314l-61 -165h-202l333 825h174z" />
    <glyph glyph-name="uni0201" unicode="&#x201;" horiz-adv-x="742" 
d="M378 671l-173 196l-82 -104l199 -169zM589 671l-173 196l-82 -104l199 -169zM259 256q0 -53 33 -86.5t87 -33.5q52 0 85.5 34t33.5 86q0 53 -34.5 87t-84.5 34q-51 0 -85.5 -34t-34.5 -87zM71 256q0 114 72 193t183 79q102 0 168 -64v49h177v-513h-175v58h-2
q-66 -73 -168 -73q-111 0 -183 78.5t-72 192.5z" />
    <glyph glyph-name="uni0202" unicode="&#x202;" horiz-adv-x="948" 
d="M370 875l-126 31q9 81 72 131t159 50t159 -50t72 -131l-126 -31q0 4 -1.5 11t-8.5 25t-17.5 31.5t-31 24.5t-46.5 11q-42 0 -68 -26t-31 -52zM567 330l-92 240h-2l-92 -240h186zM561 825l333 -825h-202l-61 165h-314l-61 -165h-202l333 825h174z" />
    <glyph glyph-name="uni0203" unicode="&#x203;" horiz-adv-x="742" 
d="M283 594l-126 31q9 81 72 131t159 50t159 -50t72 -131l-126 -31q0 4 -1.5 11t-8.5 25t-17.5 31.5t-31 24.5t-46.5 11t-46.5 -10.5t-31 -25.5t-17.5 -30.5t-9 -26.5zM259 256q0 -53 33 -86.5t87 -33.5q52 0 85.5 34t33.5 86q0 53 -34.5 87t-84.5 34q-51 0 -85.5 -34
t-34.5 -87zM71 256q0 114 72 193t183 79q102 0 168 -64v49h177v-513h-175v58h-2q-66 -73 -168 -73q-111 0 -183 78.5t-72 192.5z" />
    <glyph glyph-name="uni0204" unicode="&#x204;" horiz-adv-x="609" 
d="M540 825v-165h-284v-164h272v-165h-272v-166h284v-165h-472v825h472zM330 945l-173 196l-82 -104l199 -169zM541 945l-173 196l-82 -104l199 -169z" />
    <glyph glyph-name="uni0205" unicode="&#x205;" horiz-adv-x="683" 
d="M619 232h-372q0 -54 35 -80t76 -26q43 0 68 11.5t57 45.5l128 -64q-80 -134 -266 -134q-116 0 -199 79.5t-83 191.5t83 192t199 80q122 0 198.5 -70.5t76.5 -201.5q0 -18 -1 -24zM252 330h195q-6 40 -31.5 61.5t-65.5 21.5q-44 0 -70 -23t-28 -60zM368 630l-173 196
l-82 -104l199 -169zM579 630l-173 196l-82 -104l199 -169z" />
    <glyph glyph-name="uni0206" unicode="&#x206;" horiz-adv-x="611" 
d="M542 825v-165h-284v-164h272v-165h-272v-166h284v-165h-472v825h472zM200 882l-126 31q10 81 73 131t158.5 50t158.5 -50t72 -131l-126 -31q0 4 -1.5 11t-8.5 25t-17 31.5t-30.5 24.5t-46.5 11q-20 0 -36 -5.5t-26.5 -15t-18.5 -20t-12.5 -21.5t-7.5 -20.5t-4 -14.5z" />
    <glyph glyph-name="uni0207" unicode="&#x207;" horiz-adv-x="683" 
d="M619 232h-372q0 -54 35 -80t76 -26q43 0 68 11.5t57 45.5l128 -64q-80 -134 -266 -134q-116 0 -199 79.5t-83 191.5t83 192t199 80q122 0 198.5 -70.5t76.5 -201.5q0 -18 -1 -24zM252 330h195q-6 40 -31.5 61.5t-65.5 21.5q-44 0 -70 -23t-28 -60zM240 567l-126 31
q9 81 72 131t159 50t159 -50t72 -131l-126 -31q0 4 -1.5 11t-8.5 25t-17.5 31.5t-31 24.5t-46.5 11q-42 0 -68 -26t-31 -52z" />
    <glyph glyph-name="uni0208" unicode="&#x208;" horiz-adv-x="570" 
d="M387 825v-825h-188v825h188zM307 932l-173 196l-82 -104l199 -169zM518 932l-173 196l-82 -104l199 -169z" />
    <glyph glyph-name="uni0209" unicode="&#x209;" horiz-adv-x="572" 
d="M210 513v-513h178v513h-178zM308 645l-173 196l-82 -104l199 -169zM519 645l-173 196l-82 -104l199 -169z" />
    <glyph glyph-name="uni020A" unicode="&#x20a;" horiz-adv-x="578" 
d="M380 825v-825h-188v825h188zM184 877l-126 31q9 81 72 131t159 50t159 -50t72 -131l-126 -31q0 4 -1.5 11t-8.5 25t-17.5 31.5t-31 24.5t-46.5 11q-42 0 -68 -26t-31 -52z" />
    <glyph glyph-name="uni020B" unicode="&#x20b;" horiz-adv-x="583" 
d="M198 513v-513h177v513h-177zM186 555l-126 31q10 81 73 131t158.5 50t158.5 -50t72 -131l-126 -31q0 4 -1.5 11t-8.5 25t-17 31.5t-30.5 24.5t-46.5 11q-20 0 -36 -5.5t-26.5 -15t-18.5 -20.5t-12.5 -21.5t-7.5 -20t-4 -14.5z" />
    <glyph glyph-name="uni020C" unicode="&#x20c;" horiz-adv-x="961" 
d="M65 413q0 179 122 303t294 124q173 0 294 -123.5t121 -303.5q0 -181 -119 -304.5t-296 -123.5q-181 0 -298.5 122.5t-117.5 305.5zM268 413q0 -65 20 -118.5t70 -90.5t123 -37q105 0 158.5 72t53.5 174q0 101 -54.5 173.5t-157.5 72.5q-102 0 -157.5 -72.5t-55.5 -173.5z
M430 928l-172 196l-82 -104l198 -169zM642 928l-174 196l-82 -104l200 -169z" />
    <glyph glyph-name="uni020D" unicode="&#x20d;" horiz-adv-x="743" 
d="M64 256q0 119 89 195.5t220 76.5q129 0 217.5 -77t88.5 -195t-86.5 -194.5t-219.5 -76.5q-138 0 -223.5 76t-85.5 195zM252 256q0 -53 33 -86.5t87 -33.5q52 0 85.5 34t33.5 86q0 53 -34.5 87t-84.5 34q-51 0 -85.5 -34t-34.5 -87zM379 671l-173 196l-82 -104l199 -169z
M590 671l-173 196l-82 -104l199 -169z" />
    <glyph glyph-name="uni020E" unicode="&#x20e;" horiz-adv-x="961" 
d="M65 413q0 179 122 303t294 124q173 0 294 -123.5t121 -303.5q0 -181 -119 -304.5t-296 -123.5q-181 0 -298.5 122.5t-117.5 305.5zM268 413q0 -65 20 -118.5t70 -90.5t123 -37q105 0 158.5 72t53.5 174q0 101 -54.5 173.5t-157.5 72.5q-102 0 -157.5 -72.5t-55.5 -173.5z
M372 875l-126 31q10 81 73 131t158.5 50t158.5 -50t72 -131l-126 -31q0 4 -1.5 11t-8.5 25t-17 31.5t-30.5 24.5t-47 11t-47 -10.5t-31 -26t-17 -30.5t-8.5 -25z" />
    <glyph glyph-name="uni020F" unicode="&#x20f;" horiz-adv-x="744" 
d="M64 256q0 119 89 195.5t221 76.5q129 0 217.5 -77t88.5 -195t-87 -194.5t-219 -76.5q-138 0 -224 76t-86 195zM252 256q0 -26 9 -48t24.5 -38t38 -25t48.5 -9q52 0 86 34t34 86.5t-34.5 86.5t-85.5 34q-50 0 -85 -34t-35 -87zM270 594l-126 31q9 81 72 131t158.5 50
t158.5 -50t73 -131l-126 -31q-1 4 -2.5 11t-8.5 25t-17 31.5t-30.5 24.5t-47 11t-47 -10.5t-31 -25.5t-17 -30.5t-8.5 -25.5z" />
    <glyph glyph-name="uni0210" unicode="&#x210;" horiz-adv-x="784" 
d="M52 825h296q119 0 193.5 -63.5t74.5 -181.5q0 -91 -45 -152.5t-123 -86.5l284 -341h-240l-252 326v-326h-188v825zM240 459h22q27 0 44.5 1t41 7t37.5 17t23.5 32t9.5 51q0 25 -6 43.5t-18.5 30t-26 19t-33.5 10.5t-35 4t-37 1h-22v-216zM342 928l-174 196l-82 -104
l200 -169zM552 928l-172 196l-82 -104l198 -169z" />
    <glyph glyph-name="uni0211" unicode="&#x211;" horiz-adv-x="577" 
d="M62 0v513h176v-74h2l7.5 10t19.5 21t32 27t43.5 21.5t55.5 9.5q18 0 36.5 -3.5t31.5 -8t23 -9t15 -8.5l6 -3l-74 -150q-1 1 -2.5 2t-6 3.5t-9.5 5.5t-13.5 6t-17 5.5t-20 4t-23.5 1.5q-32 0 -55 -14t-33 -34t-14 -34t-4 -22v-270h-176zM310 671l-172 196l-82 -104
l198 -169zM522 671l-174 196l-82 -104l200 -169z" />
    <glyph glyph-name="uni0212" unicode="&#x212;" horiz-adv-x="785" 
d="M53 825h295q119 0 194 -63.5t75 -181.5q0 -91 -45.5 -152.5t-123.5 -86.5l284 -341h-239l-252 326v-326h-188v825zM241 459h22q26 0 44 1t41 7t37 17t24 32t10 51t-10 51t-24 32t-37 17t-41 7t-44 1h-22v-216zM221 875l-126 31q9 81 72 131t159 50t159 -50t72 -131
l-126 -31q0 4 -1.5 11t-8.5 25t-17.5 31.5t-31 24.5t-46.5 11q-42 0 -68 -26t-32 -52z" />
    <glyph glyph-name="uni0213" unicode="&#x213;" horiz-adv-x="590" 
d="M65 0v513h177v-74h2q2 4 6.5 10t19.5 21t32 27t44 21.5t55 9.5q29 0 57 -8t42 -16l13 -8l-74 -150q-33 28 -92 28q-32 0 -55 -14t-32.5 -34t-13.5 -34t-4 -22v-270h-177zM190 594l-126 31q9 81 72 131t159 50t159 -50t72 -131l-126 -31q0 4 -1.5 11t-8.5 25t-17.5 31.5
t-31 24.5t-46.5 11t-46.5 -10.5t-31 -25.5t-17.5 -30.5t-8 -26.5z" />
    <glyph glyph-name="uni0214" unicode="&#x214;" horiz-adv-x="792" 
d="M718 825v-532q0 -152 -82 -230t-240 -78t-240 78t-82 230v532h188v-477q0 -100 31.5 -139t102.5 -39t102.5 39t31.5 139v477h188zM356 928l-172 196l-82 -104l198 -169zM568 928l-174 196l-82 -104l200 -169z" />
    <glyph glyph-name="uni0215" unicode="&#x215;" horiz-adv-x="698" 
d="M248 513v-244q0 -76 23 -108t78 -32t78 32t23 108v244h177v-287q0 -128 -66.5 -184.5t-211.5 -56.5t-211.5 56.5t-66.5 184.5v287h177zM341 671l-173 196l-82 -104l199 -169zM552 671l-173 196l-82 -104l199 -169z" />
    <glyph glyph-name="uni0216" unicode="&#x216;" horiz-adv-x="792" 
d="M718 825v-532q0 -152 -82 -230t-240 -78t-240 78t-82 230v532h188v-477q0 -100 31.5 -139t102.5 -39t102.5 39t31.5 139v477h188zM292 875l-126 31q10 81 73 131t158.5 50t158.5 -50t72 -131l-126 -31q0 4 -1.5 11t-8.5 25t-17 31.5t-30.5 24.5t-47 11t-47 -10.5t-31 -26
t-17 -30.5t-8.5 -25z" />
    <glyph glyph-name="uni0217" unicode="&#x217;" horiz-adv-x="698" 
d="M248 513v-244q0 -76 23 -108t78 -32t78 32t23 108v244h177v-287q0 -128 -66.5 -184.5t-211.5 -56.5t-211.5 56.5t-66.5 184.5v287h177zM244 594l-126 31q9 81 72 131t159 50t159 -50t72 -131l-126 -31q0 4 -1.5 11t-8.5 25t-17.5 31.5t-31 24.5t-46.5 11t-46.5 -10.5
t-31 -25.5t-17.5 -30.5t-8 -26.5z" />
    <glyph glyph-name="Scommaaccent" unicode="&#x218;" horiz-adv-x="672" 
d="M364 840q67 0 131 -19.5t95 -38.5l30 -20l-76 -150q-9 6 -25 15.5t-60 25.5t-82 16q-47 0 -72.5 -20t-25.5 -54q0 -17 12 -31.5t41 -31t51 -26.5t68 -30q80 -34 136.5 -92.5t56.5 -132.5q0 -71 -25.5 -124t-70 -83t-98.5 -44.5t-117 -14.5q-54 0 -106 11t-87 27.5
t-63 32.5t-41 27l-13 11l94 158q12 -10 33 -25.5t74.5 -41.5t94.5 -26q119 0 119 81q0 17 -8.5 31.5t-30 29t-38 23t-54 26t-55.5 26.5q-75 37 -116 92.5t-41 119.5q0 111 82 181.5t187 70.5zM335 -40q-36 0 -62 -26.5t-26 -63.5q0 -29 19 -51t48 -29q-5 -29 -20 -56.5
t-27 -40.5l-12 -13l40 -31q130 107 130 221q0 38 -26.5 64t-63.5 26z" />
    <glyph glyph-name="scommaaccent" unicode="&#x219;" horiz-adv-x="492" 
d="M283 528q44 0 87 -10t64 -20l21 -10l-58 -116q-60 32 -114 32q-30 0 -42.5 -6.5t-12.5 -24.5q0 -4 1 -8t4 -7.5t5.5 -6t8.5 -5.5t9.5 -4.5t11.5 -4.5l12 -4.5t13.5 -4.5t14.5 -4q31 -9 54 -20t48.5 -30t39.5 -48t14 -66q0 -175 -243 -175q-55 0 -104.5 17t-71.5 34
l-22 18l72 121q8 -7 21 -16.5t47 -26t59 -16.5q55 0 55 37q0 17 -14 26.5t-47.5 21.5t-52.5 22q-48 25 -76 56.5t-28 83.5q0 78 60.5 121.5t163.5 43.5zM245 -40q-36 0 -62 -26.5t-26 -63.5q0 -29 19 -51t48 -29q-5 -29 -20 -56.5t-27 -40.5l-12 -13l40 -31q130 107 130 221
q0 38 -26.5 64t-63.5 26z" />
    <glyph glyph-name="uni021A" unicode="&#x21a;" horiz-adv-x="596" 
d="M8 660v165h580v-165h-196v-660h-188v660h-196zM297 -40q-36 0 -62 -26.5t-26 -63.5q0 -29 19 -51t48 -29q-5 -29 -20 -56.5t-27 -40.5l-12 -13l40 -31q130 107 130 221q0 38 -26.5 64t-63.5 26z" />
    <glyph glyph-name="uni021B" unicode="&#x21b;" horiz-adv-x="395" 
d="M90 513v191h177v-191h108v-135h-108v-163q0 -71 40 -71q10 0 21 4t17 8l6 4l44 -143q-57 -32 -130 -32q-50 0 -86 17.5t-54.5 47t-26.5 62t-8 69.5v197h-74v135h74zM196 -40q38 0 64 -26t26 -64q0 -114 -130 -221l-40 31q47 45 59 110q-29 7 -48 29t-19 51q0 37 26 63.5
t62 26.5z" />
    <glyph glyph-name="uni021C" unicode="&#x21c;" horiz-adv-x="721" 
d="M244 587l-148 72q1 4 3 10.5t11 25t20.5 36t34 38t49 35.5t67.5 25.5t88 10.5q118 0 194.5 -67.5t76.5 -172.5q0 -98 -73 -155q105 -64 105 -189q0 -115 -86 -199.5t-220 -116.5q-51 -12 -95.5 -19t-75.5 -8t-57 0t-42 4t-27 6.5t-15 6.5l-5 2l150 123q12 0 132 28
q70 16 111.5 66.5t41.5 106.5q0 53 -34.5 87t-84.5 34q-9 0 -18 -7t-14 -14l-4 -7v123l41 22q39 0 69 30t30 74q0 39 -30.5 65t-71.5 26q-21 0 -39.5 -5.5t-30.5 -14.5t-22 -20t-15.5 -22t-9.5 -20t-5 -14z" />
    <glyph glyph-name="uni021D" unicode="&#x21d;" horiz-adv-x="628" 
d="M215 555l-126 62q1 6 5 16.5t20.5 37t39.5 46.5t67.5 36.5t99.5 16.5q100 0 165 -57t65 -147q0 -83 -62 -131q90 -55 90 -161q0 -98 -73.5 -170t-186.5 -99q-59 -13 -108.5 -19t-78 -4.5t-48.5 5.5t-27 8l-8 4l128 104q10 0 112 24q40 9 70 33t45 54t15 60q0 45 -29.5 74
t-71.5 29q-8 0 -15.5 -6t-11.5 -12l-4 -6v105l35 18q33 0 58.5 26t25.5 63q0 33 -26 55t-61 22q-24 0 -44 -9t-30.5 -21.5t-18 -25.5t-9.5 -22z" />
    <glyph glyph-name="uni021E" unicode="&#x21e;" horiz-adv-x="793" 
d="M264 331v-331h-188v825h188v-329h266v329h188v-825h-188v331h-266zM620 970l-220 -162l-222 162l68 91l154 -112l152 112z" />
    <glyph glyph-name="uni021F" unicode="&#x21f;" horiz-adv-x="700" 
d="M74 0v860h178v-401h2q68 69 146 69q30 0 60 -6t60 -20t53.5 -35t38 -54.5t14.5 -74.5v-338h-178v290q0 40 -25 70t-67 30q-39 0 -71.5 -31t-32.5 -69v-290h-178zM602 970l-220 -162l-222 162l68 91l154 -112l152 112z" />
    <glyph glyph-name="uni0220" unicode="&#x220;" horiz-adv-x="856" 
d="M263 512v-512h-188v825h188l328 -512h2v512h188v-954h-188l-328 641h-2z" />
    <glyph glyph-name="uni0226" unicode="&#x226;" horiz-adv-x="946" 
d="M478.5 1103q38.5 0 65 -27t26.5 -65t-26.5 -65t-65 -27t-65.5 27t-27 65t27 65t65.5 27zM560 825l333 -825h-202l-61 165h-314l-61 -165h-202l333 825h174zM566 330l-92 240h-2l-92 -240h186z" />
    <glyph glyph-name="uni0227" unicode="&#x227;" horiz-adv-x="741" 
d="M378 778q38 0 65 -27t27 -65t-27 -65t-65 -27t-65 27t-27 65t27 65t65 27zM70 256q0 -114 72.5 -192.5t183.5 -78.5q50 0 94 20t74 53h2v-58h174v513h-176v-49q-66 64 -168 64q-111 0 -183.5 -79t-72.5 -193zM258 256q0 53 35 87t85 34q51 0 85.5 -34t34.5 -86.5
t-34 -86.5t-86 -34q-53 0 -86.5 33.5t-33.5 86.5z" />
    <glyph glyph-name="uni022E" unicode="&#x22e;" horiz-adv-x="962" 
d="M66 413q0 89 33 168.5t89 136t133 89.5t161 33q113 0 208 -56t150.5 -154.5t55.5 -216.5q0 -119 -53.5 -217t-149 -154.5t-211.5 -56.5q-120 0 -215.5 56.5t-148 154t-52.5 217.5zM268 413q0 -32 5.5 -61t16 -57t28 -51t40.5 -40.5t54.5 -27t69.5 -9.5q54 0 95.5 21
t66.5 56.5t37.5 78t12.5 90.5q0 31 -6 61t-17 57.5t-29 50.5t-40.5 40.5t-53.5 27t-66 9.5q-70 0 -119.5 -36.5t-72 -91t-22.5 -118.5zM480 1103q38 0 65 -27t27 -65t-27 -65t-65 -27t-65 27t-27 65t27 65t65 27z" />
    <glyph glyph-name="uni022F" unicode="&#x22f;" horiz-adv-x="746" 
d="M66 256q0 119 88.5 195.5t219.5 76.5q130 0 218 -77t88 -195t-86.5 -194.5t-219.5 -76.5q-137 0 -222.5 76t-85.5 195zM254 256q0 -26 8.5 -48t24 -38t38 -25t49.5 -9q51 0 84.5 34t33.5 86.5t-34 86.5t-84 34q-51 0 -85.5 -34t-34.5 -87zM375.5 778q38.5 0 65.5 -27
t27 -65t-27 -65t-65.5 -27t-65 27t-26.5 65t26.5 65t65 27z" />
    <glyph glyph-name="uni0232" unicode="&#x232;" horiz-adv-x="911" 
d="M58 825h226l172 -264l172 264h226l-304 -455v-370h-188v370zM250 1022h408v-120h-408v120z" />
    <glyph glyph-name="uni0233" unicode="&#x233;" horiz-adv-x="791" 
d="M528 513h204l-403 -773h-204l177 340l-243 433h204l143 -263zM191 702h408v-120h-408v120z" />
    <glyph glyph-name="uni0237" unicode="&#x237;" horiz-adv-x="430" 
d="M201 513h177v-592q0 -37 -9.5 -69.5t-29.5 -62t-58 -47t-88 -17.5q-20 0 -38 2t-30 4t-25 6t-18.5 6.5l-16.5 7.5t-13 6l55 143q23 -15 45 -15q49 0 49 70v558z" />
    <glyph glyph-name="uni0238" unicode="&#x238;" horiz-adv-x="1164" 
d="M904 256q0 53 -34.5 87t-85.5 34q-39 0 -70 -22t-43 -59v-80q8 -24 24 -42t39 -28t50 -10q54 0 87 33.5t33 86.5zM72 256q0 114 72 193t182 79q101 0 166 -62v394h2h175h2v-394q66 62 167 62q110 0 182 -79t72 -193q0 -75 -32 -136.5t-90.5 -98t-131.5 -36.5
q-50 0 -93.5 19.5t-72.5 51.5v-56h-4h-172h-4v56q-29 -32 -72.5 -51.5t-93.5 -19.5q-110 0 -182 78.5t-72 192.5zM260 256q0 -53 33 -86.5t87 -33.5q40 0 70.5 21.5t41.5 58.5v80q-11 37 -42 59t-70 22q-51 0 -85.5 -34t-34.5 -87z" />
    <glyph glyph-name="uni0239" unicode="&#x239;" horiz-adv-x="1166" 
d="M907 257q0 53 -33.5 86.5t-86.5 33.5q-43 0 -74.5 -24t-40.5 -63v-66q6 -26 22.5 -46t40.5 -31t52 -11q33 0 60.5 15.5t43.5 43t16 62.5zM72 257q0 114 72 192.5t183 78.5q50 0 94 -20t74 -53v58h2h173h2v-58q19 22 44 38t57.5 25.5t66.5 9.5q110 0 182.5 -78.5
t72.5 -192.5t-72.5 -193t-182.5 -79q-103 0 -168 64v-309h-177v309q-66 -64 -168 -64q-111 0 -183 79t-72 193zM260 257q0 -53 34.5 -87t85.5 -34q41 0 72.5 24t42.5 64v66q-10 39 -41.5 63t-73.5 24q-54 0 -87 -33.5t-33 -86.5z" />
    <glyph glyph-name="uni023A" unicode="&#x23a;" horiz-adv-x="955" 
d="M535 423l-57 147h-2l-92 -240h54zM720 439l178 -439h-202l-62 165h-201l-173 -165h-202l332 825h174l110 -270l120 115l83 -82z" />
    <glyph glyph-name="uni023B" unicode="&#x23b;" horiz-adv-x="877" 
d="M540 170q42 0 82.5 13t59.5 25l20 13l80 -160q-4 -3 -11.5 -8t-33 -18.5t-54.5 -23.5t-75.5 -18t-97.5 -8q-85 0 -165.5 32.5t-143.5 90.5l-84 -56l-67 95l77 50q-63 100 -63 214q0 87 37 167t98 137t143 91t168 34q51 0 97 -8t76.5 -19t53.5 -22t34 -19l11 -8l-80 -160
q-3 2 -8 5.5t-21.5 12.5t-34.5 15.5t-45 12t-53 5.5q-68 0 -122 -22t-86 -58t-48 -77.5t-16 -84.5q0 -55 24 -105l468 310l67 -95l-458 -304q69 -49 171 -49z" />
    <glyph glyph-name="uni023C" unicode="&#x23c;" horiz-adv-x="638" 
d="M389 383q-51 0 -86.5 -37t-35.5 -89q0 -14 2 -27l252 122l67 -95l-244 -118q21 -9 45 -9q10 0 21 1.5t19 3.5t15.5 4.5t13 5t9.5 4.5t6 4l2 1l60 -123q-7 -5 -20 -12.5t-57.5 -20.5t-94.5 -13q-106 0 -189 71l-57 -27l-67 95l52 25q-23 51 -23 106q0 74 39.5 137
t105 99.5t139.5 36.5q23 0 45 -2.5t38.5 -7t31.5 -9.5t25 -10t17.5 -9.5t10.5 -6.5l4 -3l-60 -121q-34 24 -86 24z" />
    <glyph glyph-name="uni023D" unicode="&#x23d;" horiz-adv-x="649" 
d="M314 350v-185h284v-165h-472v350h-76v116h76v359h188v-359h78v-116h-78z" />
    <glyph glyph-name="uni0240" unicode="&#x240;" horiz-adv-x="653" 
d="M582 -32v-135l-355 167h-176l254 378h-212v135h509l-254 -378z" />
    <glyph glyph-name="uni0241" unicode="&#x241;" horiz-adv-x="669" 
d="M206 338l-146 71q0 2 2.5 12t11 27.5t20.5 37t33.5 39.5t47.5 36t65.5 26.5t85.5 10.5q75 0 139.5 -30t104.5 -85.5t40 -123.5q0 -127 -170 -199q-22 -10 -28 -27.5t-6 -48.5v-83h-166v136q0 41 8.5 65t39.5 44q15 10 42.5 23.5t40 21.5t24 25.5t11.5 42.5q0 36 -23.5 59
t-58.5 23q-25 0 -46.5 -10t-35.5 -26t-22.5 -32.5t-13.5 -34.5z" />
    <glyph glyph-name="uni0242" unicode="&#x242;" horiz-adv-x="588" 
d="M185 286l-125 61q0 3 5 18t20.5 40t39 47t66 38.5t95.5 16.5q99 0 170.5 -57.5t71.5 -145.5q0 -108 -144 -169q-19 -9 -24.5 -23.5t-5.5 -41.5v-70h-140v115q0 14 0.5 22.5t2.5 19.5t6.5 19t12 16.5t18.5 15.5q14 9 37 20.5t34 18t20 21.5t9 36q0 30 -19.5 50t-48.5 20
q-42 0 -67 -27t-34 -61z" />
    <glyph glyph-name="uni0243" unicode="&#x243;" horiz-adv-x="810" 
d="M358 145h58q138 0 138 92q0 55 -34 79t-104 24h-58v-45h62v-114h-62v-36zM358 502h14q63 0 94.5 22t31.5 72q0 84 -126 84h-14v-178zM170 825h256q55 0 99.5 -11t80 -35t55 -65.5t19.5 -98.5q0 -59 -26 -105t-78 -72q176 -31 176 -208q0 -104 -71.5 -167t-198.5 -63h-312
v181h-112v114h112v530z" />
    <glyph glyph-name="uni0244" unicode="&#x244;" horiz-adv-x="977" 
d="M358 338q1 -95 32.5 -131.5t101 -36.5t101 36.5t32.5 131.5h-267zM814 338v-45q0 -152 -82 -230t-240 -78q-106 0 -177.5 34.5t-108 103t-36.5 170.5v45h-97v155h97v332h188v-332h268v332h188v-332h90v-155h-90z" />
    <glyph glyph-name="uni0245" unicode="&#x245;" horiz-adv-x="958" 
d="M553 825l346 -825h-212l-208 542l-208 -542h-212l346 825h148z" />
    <glyph glyph-name="uni0246" unicode="&#x246;" horiz-adv-x="633" 
d="M358 660h-117v-164h41zM525 796v-136h-70l-85 -164h143v-165h-229l-43 -83v-83h284v-165h-412l-3 -4l-57 3v1v825h381l80 172l66 -95z" />
    <glyph glyph-name="uni0247" unicode="&#x247;" horiz-adv-x="688" 
d="M340 330l52 71q-22 12 -51 12q-44 0 -70 -23t-28 -60h97zM268 232h-30q0 -19 5 -35zM409 232l-76 -105q8 -1 16 -1q22 0 37.5 2.5t30 9t27.5 17t30 28.5l128 -64q-80 -134 -266 -134q-49 0 -95 16l-35 -48l-105 49l41 57q-41 38 -64.5 89t-23.5 108q0 112 83 192t199 80
q72 0 130 -25l63 86l105 -49l-78 -107q55 -69 55 -177q0 -18 -1 -24h-201z" />
    <glyph glyph-name="uni0248" unicode="&#x248;" horiz-adv-x="628" 
d="M500 402v-169q0 -121 -66 -184.5t-190 -63.5q-34 0 -66 8t-54 19.5t-39.5 23.5t-25.5 20l-9 8l60 157q7 -6 18 -15.5t39.5 -25t50.5 -15.5q43 0 68.5 28.5t25.5 87.5v121h-76v123h76v300h188v-300h78v-123h-78z" />
    <glyph glyph-name="uni0249" unicode="&#x249;" horiz-adv-x="504" 
d="M205 682q0 36 25.5 62t60 26t59.5 -26t25 -62t-25 -62t-59.5 -26t-60 26t-25.5 62zM199 513h177v-250h78v-123h-78v-219q0 -29 -5.5 -55.5t-19 -52.5t-34 -45t-53 -31t-73.5 -12q-20 0 -38 2t-30 4t-25 6t-18.5 6.5t-16 7.5t-13.5 6l55 143q23 -15 45 -15q49 0 49 70v185
h-87v123h87v250z" />
    <glyph glyph-name="uni024C" unicode="&#x24c;" horiz-adv-x="898" 
d="M356 459h22q19 0 32 0.5t30.5 3t29.5 6.5t25 12t21 19.5t13 28.5t5 38q0 25 -6 43.5t-18.5 30t-26 19t-33.5 10.5t-35 4t-37 1h-22v-216zM168 825h296q119 0 193.5 -63.5t74.5 -181.5q0 -61 -21 -110t-58.5 -81t-88.5 -48l284 -341h-240l-252 326v-326h-188v326h-118v116
l118 7v376z" />
    <glyph glyph-name="uni024D" unicode="&#x24d;" horiz-adv-x="611" 
d="M116 194h-69v114h69v205h177v-74h2q2 4 6.5 10t19.5 21t32 27t44 21.5t55 9.5q29 0 57 -8t42 -16l13 -8l-74 -150q-33 28 -92 28q-70 0 -96 -66h61v-114h-70v-194h-177v194z" />
    <glyph glyph-name="uni024E" unicode="&#x24e;" horiz-adv-x="942" 
d="M78 825h226l45 -69h254l45 69h226l-46 -69h59v-129h-145l-172 -257v-370h-188v370l-172 257h-155v129h69zM433 627l43 -66l43 66h-86z" />
    <glyph glyph-name="uni024F" unicode="&#x24f;" horiz-adv-x="953" 
d="M618 513h204l-107 -205h177v-129h-245l-229 -439h-204l178 340l-56 99h-276v129h204l-116 205h204l112 -205h58z" />
    <glyph glyph-name="uni0250" unicode="&#x250;" horiz-adv-x="743" 
d="M672 257q0 -114 -72.5 -193t-183.5 -79q-102 0 -168 64v-49h-176v513h174v-58h2q20 22 45 38t57.5 25.5t65.5 9.5q111 0 183.5 -78.5t72.5 -192.5zM484 257q0 53 -33.5 86.5t-86.5 33.5q-52 0 -86 -34t-34 -86.5t34.5 -86.5t85.5 -34q50 0 85 34t35 87z" />
    <glyph glyph-name="uni0251" unicode="&#x251;" horiz-adv-x="743" 
d="M72 256q0 114 72 193t182 79q103 0 168 -64v49h178v-513h-176v58h-2q-29 -33 -73 -53t-95 -20q-110 0 -182 78.5t-72 192.5zM260 256q0 -53 33 -86.5t87 -33.5q34 0 61 15.5t42 42.5t15 62q0 53 -34 87t-84 34q-51 0 -85.5 -34t-34.5 -87z" />
    <glyph glyph-name="uni0252" unicode="&#x252;" horiz-adv-x="742" 
d="M671 256q0 114 -72 193t-183 79q-102 0 -168 -64v49h-177v-513h175v58h2q66 -73 168 -73q111 0 183 78.5t72 192.5zM483 256q0 -53 -33 -86.5t-87 -33.5q-52 0 -85.5 34t-33.5 86q0 53 34.5 87t84.5 34q51 0 85.5 -34t34.5 -87z" />
    <glyph glyph-name="uni0253" unicode="&#x253;" horiz-adv-x="740" 
d="M482 256q0 26 -9.5 48.5t-25.5 38.5t-38 25t-47 9q-33 0 -60 -15.5t-43 -43t-16 -62.5q0 -52 33.5 -86t85.5 -34q54 0 87 33.5t33 86.5zM670 256q0 -114 -72 -192.5t-183 -78.5q-50 0 -94 20t-74 53h-2v-58h-175v730v27.5t1.5 25.5t4.5 23t9 20t15 16t23 11.5t32 6.5h177
q120 -15 177 -99l-111 -75q-11 29 -51.5 38t-99.5 -10v-250q66 64 168 64q111 0 183 -79t72 -193z" />
    <glyph glyph-name="uni0254" unicode="&#x254;" horiz-adv-x="557" 
d="M196 130q51 0 86.5 37t35.5 89q0 53 -35.5 90t-86.5 37q-23 0 -44.5 -6t-31.5 -12l-10 -6l-60 123q7 5 20 12.5t57.5 20.5t94.5 13q55 0 107 -21.5t91 -57t62.5 -86t23.5 -105.5q0 -74 -39.5 -137t-105 -99.5t-139.5 -36.5q-50 0 -93 12t-61 24l-18 12l60 121
q34 -24 86 -24z" />
    <glyph glyph-name="uni0258" unicode="&#x258;" horiz-adv-x="697" 
d="M71 232h372q0 -54 -35 -80t-76 -26q-43 0 -68 11.5t-57 45.5l-128 -64q80 -134 266 -134q116 0 199 79.5t83 191.5t-83 192t-199 80q-122 0 -198.5 -70.5t-76.5 -201.5q0 -18 1 -24zM438 330h-195q6 40 31.5 61.5t65.5 21.5q44 0 70 -23t28 -60z" />
    <glyph glyph-name="uni0259" unicode="&#x259;" horiz-adv-x="698" 
d="M72 281h372q0 54 -35 80t-77 26q-29 0 -48.5 -5t-36.5 -16.5t-39 -35.5l-128 64q80 134 266 134q116 0 199 -79.5t83 -191.5t-83 -192t-199 -80q-122 0 -199 70.5t-77 201.5q0 18 2 24zM438 183h-194q2 -20 10.5 -35.5t21 -26t29 -16t35.5 -5.5q30 0 52 11t33.5 29.5
t12.5 42.5z" />
    <glyph glyph-name="uni025B" unicode="&#x25b;" horiz-adv-x="650" 
d="M427 512l126 61l-5.5 16.5t-20 37t-40 47t-67.5 37t-99 16.5q-101 0 -166 -57.5t-65 -146.5q0 -84 62 -132q-89 -54 -89 -161q0 -100 73.5 -165t186.5 -65q44 0 82.5 9.5t64.5 25t47.5 33.5t34 36.5t21 34t11.5 24.5l3 10l-148 72q0 -4 -1.5 -11.5t-9 -26t-18.5 -32.5
t-33.5 -25.5t-52.5 -11.5q-45 0 -73 24.5t-28 67.5q0 45 29 74t72 29q8 0 15.5 -1t11.5 -3l4 -1v105h-35q-33 0 -58.5 25.5t-25.5 62.5q0 22 12 40t32 28t42 10q25 0 45 -9t30.5 -22t18 -25.5t9.5 -21.5z" />
    <glyph glyph-name="uni025C" unicode="&#x25c;" horiz-adv-x="649" 
d="M222 512l-125 61q1 6 4.5 16.5t20.5 37t40 47t67.5 37t99.5 16.5q66 0 118.5 -26t82 -72.5t29.5 -105.5q0 -84 -62 -132q89 -54 89 -161q0 -100 -73.5 -165t-186.5 -65q-44 0 -82.5 9.5t-64.5 25t-47 33.5t-33.5 36.5t-21 34t-11.5 24.5l-3 10l148 72q0 -2 0.5 -6
t3.5 -15t7.5 -21.5t13.5 -22.5t20.5 -21t29.5 -15t39 -6q45 0 73 24.5t28 67.5q0 45 -29 74t-72 29q-7 0 -15 -1t-11 -3l-4 -1v105h35q33 0 58.5 25.5t25.5 62.5q0 33 -26 55.5t-61 22.5q-25 0 -44.5 -9t-30.5 -22t-18 -25.5t-9 -21.5z" />
    <glyph glyph-name="uni025F" unicode="&#x25f;" horiz-adv-x="588" 
d="M216 513h177v-195h128v-147h-128v-250q0 -37 -9.5 -69.5t-29.5 -62t-58 -47t-88 -17.5q-20 0 -38 2t-30 4t-25 6t-18.5 6.5l-16.5 7.5t-13 6l55 143q23 -15 45 -15q49 0 49 70v216h-139v147h139v195z" />
    <glyph glyph-name="uni0261" unicode="&#x261;" horiz-adv-x="741" 
d="M84 -126l146 71q10 -17 26.5 -31t46 -24.5t65.5 -10.5q21 0 41 6.5t40 19.5t32.5 37.5t12.5 56.5v38q-48 -52 -168 -52q-111 0 -183.5 78.5t-72.5 192.5t72.5 193t183.5 79q99 0 164 -61h4v46h176v-527q0 -125 -83 -193t-219 -68q-219 0 -284 149zM258 256q0 -26 9 -48
t24.5 -38t38 -25t48.5 -9q52 0 86 34t34 86.5t-34.5 86.5t-85.5 34q-50 0 -85 -34t-35 -87z" />
    <glyph glyph-name="uni0262" unicode="&#x262;" horiz-adv-x="809" 
d="M737 408v-153q-14 -64 -47 -114t-78 -79.5t-95 -44.5t-104 -15q-92 0 -171 48.5t-124.5 132t-45.5 182.5q0 100 43.5 183t122.5 132t175 49q172 0 271 -120l-105 -115q-56 90 -156 90q-74 0 -126.5 -64t-52.5 -155q0 -89 52.5 -152.5t126.5 -63.5q61 0 106.5 37t45.5 98
h-162v124h324z" />
    <glyph glyph-name="uni0265" unicode="&#x265;" horiz-adv-x="700" 
d="M626 860v-860h-178v401h-2q-68 -69 -146 -69q-21 0 -42.5 3t-44 10t-42.5 17t-37.5 25.5t-30.5 34.5t-21 44.5t-8 55.5v338h178v-290q0 -40 25 -70t67 -30q39 0 71.5 31t32.5 69v290h178z" />
    <glyph glyph-name="uni0268" unicode="&#x268;" horiz-adv-x="488" 
d="M72 399h344v-114h-344v114zM157 0v526h180v-526h-180zM164 690q0 36 25 62t60 26t60 -26t25 -62t-25 -62t-60 -26t-60 26t-25 62z" />
    <glyph glyph-name="uni0269" unicode="&#x269;" horiz-adv-x="401" 
d="M58 753l2 -553v-1q-1 -18 0 -32v-19q3 -67 21.5 -96t70.5 -49q6 -3 19 -3.5t26 -0.5t42.5 0.5t54.5 0.5q12 9 24.5 37.5t18.5 51.5l7 24q-5 6 -38.5 17t-38.5 15q-3 3 -9.5 9t-9.5 9.5t-6.5 8.5t-5 9.5t-2.5 9.5v562h-176z" />
    <glyph glyph-name="uni026A" unicode="&#x26a;" horiz-adv-x="310" 
d="M235 703v-701h-160v701h160z" />
    <glyph glyph-name="uni026B" unicode="&#x26b;" horiz-adv-x="676" 
d="M532 549l93 -81q-1 -3 -4 -8t-11.5 -19t-18.5 -27t-26 -29t-33 -27t-39 -19t-45 -8q-12 0 -23 1v-332h-177v413q-11 3 -20 3q-16 0 -30.5 -8t-24 -19.5t-16.5 -23t-10 -19.5l-3 -8l-93 81q1 3 4 8t11.5 19t18.5 27t26 29t33 27t39 19t45 8q10 0 20 -1v305h177v-384
q13 -5 23 -5q26 0 47 19.5t29 39.5z" />
    <glyph glyph-name="uni026D" unicode="&#x26d;" horiz-adv-x="503" 
d="M56 1008l2 -808v-1v-32v-19q3 -67 22 -96t70 -49q9 -3 47 -4t110 0t90 1q13 9 25.5 37.5t18.5 51.5l6 24q-3 5 -46.5 11t-87 11.5t-47.5 9.5q-3 3 -9.5 9t-9.5 9.5t-7 8.5t-5.5 9.5t-1.5 9.5v817h-177z" />
    <glyph glyph-name="uni026E" unicode="&#x26e;" horiz-adv-x="770" 
d="M69 0v860h177v-132h198q14 0 38 0.5t37 1t33 -0.5t31 -4.5t25.5 -10t23 -16.5t18 -25.5t14 -36.5t7.5 -49t3 -63q0 -84 -62 -132q89 -54 89 -161q0 -100 -73.5 -165t-186.5 -65q-120 0 -195 69v-70h-177zM246 681v-474l79 39q1 -4 2 -11.5t8.5 -26t18.5 -32.5t34 -25.5
t52 -11.5q45 0 73 24.5t28 67.5q0 45 -29 74t-72 29q-7 0 -15 -1t-12 -3l-3 -1v105h34q33 0 59 25.5t26 62.5q0 33 -26 55.5t-61 22.5q-25 0 -45 -4.5t-30.5 -11t-17.5 -12.5t-9 -11l-3 -4z" />
    <glyph glyph-name="uni026F" unicode="&#x26f;" horiz-adv-x="1024" 
d="M950 528v-513h-178v54h-2q-68 -69 -146 -69q-57 0 -105.5 23t-74.5 71q-78 -94 -170 -94q-37 0 -71 10t-63.5 31t-47.5 59.5t-18 89.5v338h178v-290q0 -41 22.5 -68.5t67.5 -27.5q26 0 45 12t27 29.5t10 38.5v306h176v-290q0 -41 23 -68.5t67 -27.5q41 0 61.5 25.5
t20.5 60.5v300h178z" />
    <glyph glyph-name="uni0270" unicode="&#x270;" horiz-adv-x="1024" 
d="M950 528v-698h-178v239h-2q-68 -69 -146 -69q-57 0 -105.5 23t-74.5 71q-78 -94 -170 -94q-37 0 -71 10t-63.5 31t-47.5 59.5t-18 89.5v338h178v-290q0 -41 22.5 -68.5t67.5 -27.5q26 0 45 12t27 29.5t10 38.5v306h176v-290q0 -41 23 -68.5t67 -27.5q41 0 61.5 25.5
t20.5 60.5v300h178z" />
    <glyph glyph-name="uni0274" unicode="&#x274;" horiz-adv-x="750" 
d="M235 437v-435h-160v701h160l279 -435h1v435h160v-701h-160l-279 435h-1z" />
    <glyph glyph-name="uni0275" unicode="&#x275;" horiz-adv-x="844" 
d="M600 405q-10 73 -55.5 121.5t-122.5 48.5q-76 0 -122 -48.5t-56 -121.5h356zM244 323q5 -34 17.5 -63t33.5 -52.5t53.5 -37t73.5 -13.5q78 0 122.5 47t55.5 119h-356zM69 366q0 75 28 142.5t76 116t113 76.5t136 28q97 0 178 -47.5t128 -131.5t47 -184
q0 -101 -45.5 -184.5t-126.5 -131.5t-181 -48q-101 0 -182.5 48t-126 131t-44.5 185z" />
    <glyph glyph-name="uni0276" unicode="&#x276;" horiz-adv-x="929" 
d="M621 562v-140h231v-140h-231v-141h241v-140h-444q-96 0 -177 44t-129 125t-48 181t48 181t129 125.5t177 44.5h444v-140h-241zM461 559h-25q-88 0 -143.5 -59.5t-55.5 -147.5q0 -89 55.5 -148.5t143.5 -59.5h25v415z" />
    <glyph glyph-name="uni0277" unicode="&#x277;" horiz-adv-x="1078" 
d="M142 736q396 94 794 0v-1l70 -508q17 -124 -55.5 -182.5t-222.5 -58.5q-123 0 -188 40q-65 -41 -190 -41q-150 0 -222.5 58.5t-55.5 182.5l70 509v1zM293 641l-45 -372q-8 -73 18 -106.5t83 -33.5q56 0 78.5 32t22.5 108v211h177v-210q0 -76 23 -108t78 -32q58 0 84 33.5
t17 106.5l-44 369q-259 27 -492 2z" />
    <glyph glyph-name="uni0278" unicode="&#x278;" horiz-adv-x="846" 
d="M501 219q51 24 77 76.5t26 117.5q0 63 -26.5 115.5t-76.5 76.5v-386zM341 221v382q-48 -26 -73.5 -77.5t-25.5 -112.5q0 -42 10 -78t32.5 -67t56.5 -47zM341 766v120h160v-119q120 -27 197.5 -125t77.5 -229q0 -66 -20.5 -126t-56.5 -106t-87 -78.5t-111 -45.5v-123h-160
v124q-122 27 -196.5 124.5t-74.5 230.5q0 129 76.5 226.5t194.5 126.5z" />
    <glyph glyph-name="uni0279" unicode="&#x279;" horiz-adv-x="581" 
d="M510 528v-513h-177v74h-2q-2 -4 -6.5 -10t-19.5 -21t-32 -27t-44 -21.5t-55 -9.5q-29 0 -57 8t-41 16l-14 8l74 150q33 -28 92 -28q32 0 55 14t32.5 34t13.5 34t4 22v270h177z" />
    <glyph glyph-name="uni027A" unicode="&#x27a;" horiz-adv-x="575" 
d="M512 750v-735h-178v74h-2q-2 -4 -6.5 -10t-19.5 -21t-32 -27t-43.5 -21.5t-54.5 -9.5q-30 0 -58 8t-41 16l-13 8l74 150q3 -3 10 -7.5t31 -12.5t51 -8q31 0 54 14t33 34t13.5 34t3.5 22v492h178z" />
    <glyph glyph-name="uni027C" unicode="&#x27c;" horiz-adv-x="575" 
d="M64 0v735h176v-74h2l7.5 10t19.5 21t32 27t43.5 21.5t55.5 9.5q18 0 36.5 -3.5t31.5 -8t23 -9t15 -8.5l6 -3l-74 -150q-1 1 -2.5 2t-6 3.5t-9.5 5.5t-13.5 6t-17 5.5t-20 4t-23.5 1.5q-32 0 -55 -14t-33 -34t-14 -34t-4 -22v-492h-176z" />
    <glyph glyph-name="uni0280" unicode="&#x280;" horiz-adv-x="697" 
d="M60 703h251q101 0 164.5 -54t63.5 -154q0 -77 -38.5 -129.5t-104.5 -73.5l241 -290h-203l-214 277v-277h-160v701zM220 392h18q23 0 38 1t34.5 6t31.5 14.5t20.5 27.5t8.5 43t-8.5 43t-20.5 27t-31.5 14.5t-34.5 6.5t-38 1h-18v-184z" />
    <glyph glyph-name="uni0281" unicode="&#x281;" horiz-adv-x="702" 
d="M640 2h-251q-102 0 -165.5 54t-63.5 154q0 77 39 129.5t105 73.5l-242 290h204l214 -277v277h160v-701zM480 313h-19q-22 0 -37 -1t-35 -6t-32 -14.5t-20.5 -27.5t-8.5 -43t8.5 -43t20.5 -27t32 -14.5t35 -6.5t37 -1h19v184z" />
    <glyph glyph-name="uni0287" unicode="&#x287;" horiz-adv-x="499" 
d="M365 176v-191h-177v191h-108v135h108v163q0 71 -40 71q-10 0 -21 -4t-17 -8l-6 -4l-44 143q57 32 130 32q50 0 86 -17.5t54.5 -47t26.5 -62t8 -69.5v-197h74v-135h-74z" />
    <glyph glyph-name="uni0288" unicode="&#x288;" horiz-adv-x="493" 
d="M131 649v191h177v-191h108v-135h-108v-299q0 -71 40 -71q10 0 21 4t17 8l6 4l44 -143q-57 -32 -130 -32q-50 0 -86 17.5t-54.5 47t-26.5 62t-8 69.5v333h-74v135h74z" />
    <glyph glyph-name="uni0289" unicode="&#x289;" horiz-adv-x="823" 
d="M72 377h679v-97h-679v97zM312 513v-244q0 -76 23 -108t78 -32t78 32t23 108v244h177v-287q0 -128 -66.5 -184.5t-211.5 -56.5t-211.5 56.5t-66.5 184.5v287h177z" />
    <glyph glyph-name="uni028A" unicode="&#x28a;" horiz-adv-x="900" 
d="M618 405q0 17 -4 34.5t-10.5 31.5t-14 27.5t-15.5 24t-14.5 18t-10.5 11.5l-4 4h1v99h281v-100h-103q28 -78 28 -174q0 -98 -41 -185.5t-112.5 -141t-154.5 -53.5t-155 53t-113.5 140.5t-41.5 186.5q0 96 29 174h-90l1 100h280v-100h-4h2q-4 -3 -9.5 -8t-20 -21
t-25.5 -32.5t-20 -41t-9 -47.5q0 -57 16 -103t42 -73t56 -41t61 -14t61 14t56 41t42 73t16 103z" />
    <glyph glyph-name="uni028B" unicode="&#x28b;" horiz-adv-x="692" 
d="M522 588l93 -325q17 -62 2 -110.5t-54.5 -82t-96.5 -51.5t-125 -18q-134 0 -203.5 66t-69.5 196v452h160v-405q0 -86 26.5 -119t86.5 -33q31 0 56.5 8.5t44 26.5t22.5 47t-9 70l-93 278h160z" />
    <glyph glyph-name="uni028C" unicode="&#x28c;" horiz-adv-x="793" 
d="M522 0l-126 279l-124 -279h-210l274 513h120l276 -513h-210z" />
    <glyph glyph-name="uni028D" unicode="&#x28d;" horiz-adv-x="1149" 
d="M692 513h120l276 -513h-204l-126 277l-122 -277h-122l-124 277l-124 -277h-204l274 513h120l118 -265z" />
    <glyph glyph-name="uni028E" unicode="&#x28e;" horiz-adv-x="790" 
d="M262 0h-204l404 773h204l-178 -340l244 -433h-204l-144 263z" />
    <glyph glyph-name="uni028F" unicode="&#x28f;" horiz-adv-x="800" 
d="M62 703h192l146 -224l146 224h192l-258 -387v-314h-160v314z" />
    <glyph glyph-name="uni0292" unicode="&#x292;" horiz-adv-x="637" 
d="M216 557l-125 171h232q15 0 38.5 0.5t36.5 1t33 -0.5t31 -4.5t26 -10t23 -16.5t17.5 -25.5t14 -36.5t7.5 -49t3 -63q0 -84 -62 -132q89 -54 89 -161q0 -100 -73.5 -165t-186.5 -65q-44 0 -82.5 9.5t-64.5 25t-47 33.5t-33.5 36.5t-21 34t-11.5 24.5l-3 10l148 72
q0 -2 0.5 -6t3.5 -15t7.5 -21.5t13.5 -22.5t20.5 -21t29.5 -15t39 -6q45 0 73 24.5t28 67.5q0 45 -29 74t-72 29q-7 0 -15 -1t-11 -3l-4 -1v105h35q33 0 58.5 25.5t25.5 62.5q0 33 -26 55.5t-61 22.5q-25 0 -44.5 -4.5t-30.5 -11t-18 -12.5t-9 -11z" />
    <glyph glyph-name="uni0294" unicode="&#x294;" horiz-adv-x="669" 
d="M206 338l-146 71q0 2 2.5 12t11 27.5t20.5 37t33.5 39.5t47.5 36t65.5 26.5t85.5 10.5q75 0 139.5 -30t104.5 -85.5t40 -123.5q0 -127 -170 -199q-22 -10 -28 -27.5t-6 -48.5v-83h-166v136q0 41 8.5 65t39.5 44q15 10 42.5 23.5t40 21.5t24 25.5t11.5 42.5q0 36 -23.5 59
t-58.5 23q-25 0 -46.5 -10t-35.5 -26t-22.5 -32.5t-13.5 -34.5z" />
    <glyph glyph-name="uni0295" unicode="&#x295;" horiz-adv-x="673" 
d="M464 338l148 71q0 2 -3 12t-11.5 27.5t-20.5 37t-33.5 39.5t-47.5 36t-65.5 26.5t-84.5 10.5q-56 0 -108 -17.5t-91 -48.5t-62 -76t-23 -97q0 -127 168 -199q23 -10 29.5 -27.5t6.5 -48.5v-83h164v136q0 20 -1 32t-5 27.5t-14 27.5t-26 22q-15 9 -35.5 19.5t-33 17
t-25.5 17t-18.5 25t-5.5 34.5q0 36 23 59t57 23q49 0 78.5 -31.5t39.5 -71.5z" />
    <glyph glyph-name="uni0296" unicode="&#x296;" horiz-adv-x="656" 
d="M200 261l-147 -71q0 -4 6 -21.5t24 -47t45.5 -55.5t77.5 -45.5t113 -19.5q116 0 200 68t84 171q0 127 -169 199q-23 10 -29 27.5t-6 48.5v83h-165v-136q0 -27 2 -42.5t13 -34t32 -32.5q16 -10 43 -23.5t40 -21.5t24 -25.5t11 -42.5q0 -36 -23.5 -59t-57.5 -23
q-49 0 -78.5 31.5t-39.5 71.5z" />
    <glyph glyph-name="uni0297" unicode="&#x297;" horiz-adv-x="639" 
d="M407 146q32 0 62.5 14t44.5 28l15 14l60 -176q-3 -4 -8.5 -9.5t-24.5 -20t-41 -25.5t-57 -20t-72 -9q-65 0 -126.5 37t-107.5 99.5t-74 150t-28 182.5q0 127 47 236.5t124.5 172.5t164.5 63q27 0 53 -4.5t45.5 -12t37 -16.5t29.5 -18t21 -16.5t13 -11.5l4 -5l-60 -176
q-6 6 -16 15.5t-42 25t-64 15.5q-51 0 -91.5 -24t-64 -63.5t-36 -85.5t-12.5 -93q0 -48 12.5 -93.5t36.5 -85.5t64 -64t91 -24z" />
    <glyph glyph-name="uni0298" unicode="&#x298;" horiz-adv-x="972" 
d="M486.5 518q43.5 0 74.5 -31t31 -74t-31 -74t-74.5 -31t-74 31t-30.5 74t30.5 74t74 31zM70 413q0 89 33.5 168.5t89.5 136t133 89.5t160 33q114 0 209 -56t151 -154.5t56 -216.5q0 -119 -54 -217t-149.5 -154.5t-212.5 -56.5q-119 0 -214.5 56.5t-148.5 154t-53 217.5z
M274 413q0 -32 5 -61t15.5 -57t28 -51t40.5 -40.5t54.5 -27t68.5 -9.5q55 0 96.5 21t66.5 56.5t37 78t12 90.5q0 31 -5.5 61t-16.5 57.5t-29 50.5t-40.5 40.5t-53.5 27t-67 9.5q-69 0 -118.5 -36.5t-71.5 -91t-22 -118.5z" />
    <glyph glyph-name="uni0299" unicode="&#x299;" horiz-adv-x="635" 
d="M70 703h217q48 0 85.5 -9.5t67.5 -29.5t46.5 -55.5t16.5 -83.5q0 -106 -87 -151q149 -26 149 -177q0 -88 -61 -141.5t-168 -53.5h-266v701zM230 429h12q54 0 80.5 18.5t26.5 60.5q0 72 -107 72h-12v-151zM230 125h50q117 0 117 78q0 47 -29 67.5t-88 20.5h-50v-166z" />
    <glyph glyph-name="uni029C" unicode="&#x29c;" horiz-adv-x="696" 
d="M235 283v-281h-160v701h160v-280h226v280h160v-701h-160v281h-226z" />
    <glyph glyph-name="uni029D" unicode="&#x29d;" horiz-adv-x="763" 
d="M322 682q0 36 25 62t59.5 26t60 -26t25.5 -62t-25.5 -62t-60 -26t-59.5 26t-25 62zM316 513h177v-385h201v-108h-201v-99q0 -29 -5.5 -55.5t-19.5 -52.5t-34.5 -45t-53 -31t-72.5 -12q-20 0 -38.5 2t-30 4t-24.5 6t-19 6.5t-16.5 7.5t-12.5 6q-28 26 -47 56t-30 56
t-16 58t-5.5 54.5t3 52.5t6.5 44.5t8 39.5q2 7 2 10h84h144v385zM316 20h-137q6 -76 43 -120q23 -15 45 -15q49 0 49 70v65z" />
    <glyph glyph-name="uni029E" unicode="&#x29e;" horiz-adv-x="725" 
d="M82 347l244 245l-268 268h228l204 -205v205h178v-860h-178v526l-178 -179h-230z" />
    <glyph glyph-name="uni029F" unicode="&#x29f;" horiz-adv-x="533" 
d="M226 703v-561h241v-140h-401v701h160z" />
    <glyph glyph-name="uni02A1" unicode="&#x2a1;" horiz-adv-x="672" 
d="M208 338l-147 71q0 4 6 21.5t24 47t45.5 55.5t77.5 45.5t113 19.5q116 0 200 -68t84 -171q0 -120 -151 -191h68v-90h-121v-77h-165v77h-100v90h101q4 51 46 78q16 10 43 23.5t40 21.5t24 25.5t11 42.5q0 36 -23.5 59t-57.5 23q-49 0 -78.5 -31.5t-39.5 -71.5z" />
    <glyph glyph-name="uni02A2" unicode="&#x2a2;" horiz-adv-x="673" 
d="M464 338l148 71q0 2 -3 12t-11.5 27.5t-20.5 37t-33.5 39.5t-47.5 36t-65.5 26.5t-84.5 10.5q-56 0 -108 -17.5t-91 -48.5t-62 -76t-23 -97q0 -120 151 -191h-69v-90h122v-77h164v77h101v90h-101q-5 51 -46 78q-15 9 -35.5 19.5t-33 17t-25.5 17t-18.5 25t-5.5 34.5
q0 36 23 59t57 23q49 0 78.5 -31.5t39.5 -71.5z" />
    <glyph glyph-name="uni02A3" unicode="&#x2a3;" horiz-adv-x="1176" 
d="M650 378v-265l178 265h-178zM50 256q0 114 72.5 193t183.5 79q102 0 168 -64v396h176v-347h476l-254 -378h234v-135h-456h-76h-98v58h-2q-30 -33 -74 -53t-94 -20q-74 0 -132.5 36.5t-91 98t-32.5 136.5zM238 256q0 -53 33.5 -86.5t86.5 -33.5q52 0 86 34t34 86.5
t-34.5 86.5t-85.5 34q-50 0 -85 -34t-35 -87z" />
    <glyph glyph-name="uni02A4" unicode="&#x2a4;" horiz-adv-x="1121" 
d="M257 256q0 -53 33 -86.5t87 -33.5q52 0 85.5 34t33.5 86.5t-34.5 86.5t-84.5 34q-51 0 -85.5 -34t-34.5 -87zM69 256q0 114 72 193t183 79q102 0 168 -64v396h177v-132h126q14 0 38 0.5t37 1t33 -0.5t31 -4.5t25.5 -10t23 -16.5t18 -25.5t14 -36.5t7.5 -49t3 -63
q0 -84 -62 -132q89 -54 89 -161q0 -100 -73.5 -165t-186.5 -65q-68 0 -123 23v-24h-175v58h-2q-30 -33 -74 -53t-94 -20q-111 0 -183 78.5t-72 192.5zM669 584v-342l7 4q1 -4 2 -11.5t8.5 -26t18.5 -32.5t34 -25.5t52 -11.5q45 0 73 24.5t28 67.5q0 45 -29 74t-72 29
q-7 0 -15 -1t-12 -3l-3 -1v105h34q33 0 59 25.5t26 62.5q0 33 -26 55.5t-61 22.5q-25 0 -45 -4.5t-30.5 -11t-17.5 -12.5t-9 -11l-3 -4z" />
    <glyph glyph-name="uni02A6" unicode="&#x2a6;" horiz-adv-x="857" 
d="M131 513v191h177v-191h108v-71q25 42 78 64t125 22q44 0 87 -10t64 -20l21 -10l-58 -116q-60 32 -114 32q-30 0 -42.5 -6.5t-12.5 -24.5q0 -4 1 -8t4 -7.5t5.5 -6t8.5 -5.5t9.5 -4.5t11.5 -4.5l12 -4.5t13.5 -4.5t14.5 -4q31 -9 54 -20t48.5 -30t39.5 -48t14 -66
q0 -175 -243 -175h-121h-130q-50 0 -86 17.5t-54.5 47t-26.5 62t-8 69.5v197h-74v135h74zM396 378h-88v-163q0 -71 40 -71q10 0 21 4t17 8l6 4q109 -44 166 -44q55 0 55 37q0 17 -14 26.5t-47.5 21.5t-52.5 22q-48 25 -76 56.5t-28 83.5q0 8 1 15z" />
    <glyph glyph-name="uni02AA" unicode="&#x2aa;" horiz-adv-x="776" 
d="M70 0v860h176v-730h218q16 0 26.5 2t20 10.5t9.5 24.5q0 17 -14 26.5t-48 21.5t-52 22q-49 25 -76.5 56.5t-27.5 83.5t27.5 89.5t78 56.5t118.5 19q44 0 86.5 -10t63.5 -20l22 -10l-58 -116q-61 32 -114 32q-30 0 -43 -6.5t-13 -24.5q0 -4 1.5 -8t4.5 -7.5t5.5 -6t8 -5.5
t9.5 -4.5t11.5 -4.5t12 -4.5t14 -4.5t13.5 -4q31 -9 54.5 -20t49 -30t39 -48t13.5 -66q0 -175 -242 -175l-222 1h-172z" />
    <glyph glyph-name="uni02AB" unicode="&#x2ab;" horiz-adv-x="790" 
d="M62 1008l2 -808v-1v-32v-19h1q2 -67 21 -96t70 -49q7 -3 19.5 -3.5t26 -0.5t43 0.5t53.5 0.5h410v135h-234l254 378h-489v495h-177zM273 144l-1 1q-3 3 -9.5 9t-9.5 9.5t-7 8.5t-5.5 9.5t-1.5 9.5v187h192z" />
    <glyph glyph-name="uni02AC" unicode="&#x2ac;" horiz-adv-x="1001" 
d="M400 435h-102l-234 436h174l106 -235l105 235h103l105 -235l106 235h174l-234 -436h-102l-101 225zM400 2h-102l-234 436h174l106 -236l105 236h103l105 -236l106 236h174l-234 -436h-102l-101 225z" />
    <glyph glyph-name="uni02AD" unicode="&#x2ad;" horiz-adv-x="1009" 
d="M934 752v-322h-117v169h-625v-169h-117v322h859zM934 322v-322h-117v169h-625v-169h-117v322h859z" />
    <glyph glyph-name="uni02B9" unicode="&#x2b9;" horiz-adv-x="314" 
d="M125 865l-78 -335l91 -19l129 333z" />
    <glyph glyph-name="uni02BA" unicode="&#x2ba;" horiz-adv-x="502" 
d="M313 865l-78 -335l91 -19l129 333zM125 865l-78 -335l91 -19l129 333z" />
    <glyph glyph-name="uni02BC" unicode="&#x2bc;" horiz-adv-x="274" 
d="M71 860h132l-20 -279h-92z" />
    <glyph glyph-name="uni02C2" unicode="&#x2c2;" horiz-adv-x="572" 
d="M517 149l-262 177l262 177l-93 73l-369 -250l369 -250z" />
    <glyph glyph-name="uni02C3" unicode="&#x2c3;" horiz-adv-x="572" 
d="M55 149l262 177l-262 177l93 73l369 -250l-369 -250z" />
    <glyph glyph-name="uni02C4" unicode="&#x2c4;" horiz-adv-x="614" 
d="M130 385l177 262l177 -262l73 93l-250 369l-250 -369z" />
    <glyph glyph-name="uni02C5" unicode="&#x2c5;" horiz-adv-x="606" 
d="M480 847l-177 -262l-177 262l-73 -93l250 -369l250 369z" />
    <glyph glyph-name="circumflex" unicode="&#x2c6;" horiz-adv-x="582" 
d="M70 678l221 162l221 -162l-68 -91l-153 112l-153 -112z" />
    <glyph glyph-name="caron" unicode="&#x2c7;" horiz-adv-x="582" 
d="M138 840l153 -112l153 112l68 -91l-221 -162l-221 162z" />
    <glyph glyph-name="uni02C9" unicode="&#x2c9;" horiz-adv-x="562" 
d="M77 1066h408v-120h-408v120z" />
    <glyph glyph-name="uni02CA" unicode="&#x2ca;" horiz-adv-x="412" 
d="M59 976l203 176l91 -115l-238 -138z" />
    <glyph glyph-name="uni02CB" unicode="&#x2cb;" horiz-adv-x="412" 
d="M150 1152l203 -176l-56 -77l-238 138z" />
    <glyph glyph-name="uni02CD" unicode="&#x2cd;" horiz-adv-x="558" 
d="M75 -62h408v-120h-408v120z" />
    <glyph glyph-name="breve" unicode="&#x2d8;" horiz-adv-x="602" 
d="M406 840l126 -31q-9 -81 -72 -131t-159 -50t-159 50t-72 131l126 31q0 -4 1.5 -11t8.5 -25t17.5 -31.5t31 -24.5t46.5 -11t46.5 10.5t31 25.5t17.5 30.5t8 26.5z" />
    <glyph glyph-name="dotaccent" unicode="&#x2d9;" horiz-adv-x="324" 
d="M162 791q38 0 65 -27t27 -65t-27 -65t-65 -27t-65 27t-27 65t27 65t65 27z" />
    <glyph glyph-name="ring" unicode="&#x2da;" horiz-adv-x="462" 
d="M70 733q0 62 46.5 102t114.5 40q69 0 115 -40t46 -102q0 -63 -45 -103t-116 -40q-72 0 -116.5 40t-44.5 103zM170 733q0 -27 17 -45.5t44 -18.5q26 0 43.5 18.5t17.5 45.5q0 26 -18 44t-43 18t-43 -18.5t-18 -43.5z" />
    <glyph glyph-name="ogonek" unicode="&#x2db;" horiz-adv-x="403" 
d="M70 -158q0 35 26 81t52 75l26 28l58 -26q-7 -8 -16.5 -21.5t-26 -50.5t-16.5 -68q0 -18 11.5 -28.5t25.5 -10.5t26.5 7.5t18.5 15.5l6 7l72 -54q-2 -3 -5.5 -8t-16 -17t-27.5 -21.5t-38.5 -17.5t-49.5 -8q-47 0 -86.5 29t-39.5 88z" />
    <glyph glyph-name="tilde" unicode="&#x2dc;" horiz-adv-x="602" 
d="M292 642q-40 19 -76 19q-14 0 -25.5 -11.5t-15.5 -23.5l-4 -11h-101q1 7 3.5 18.5t13 41t24 52.5t39 41.5t56.5 18.5q17 0 43 -6.5t43 -13.5l18 -7q40 -19 76 -19q14 0 25.5 11.5t15.5 23.5l4 11h101q-1 -7 -3.5 -18.5t-13 -41t-24 -52.5t-39 -41.5t-56.5 -18.5
q-17 0 -43 6.5t-43 13.5z" />
    <glyph glyph-name="hungarumlaut" unicode="&#x2dd;" horiz-adv-x="606" 
d="M96 664l173 196l82 -104l-199 -169zM307 664l173 196l82 -104l-199 -169z" />
    <glyph glyph-name="uni02ED" unicode="&#x2ed;" horiz-adv-x="663" 
d="M75 991h513v-153h-513v153zM75 751h513v-153h-513v153z" />
    <glyph glyph-name="uni02EE" unicode="&#x2ee;" horiz-adv-x="447" 
d="M244 860h132l-20 -279h-92zM71 860h132l-20 -279h-92z" />
    <glyph glyph-name="uni0370" unicode="&#x370;" horiz-adv-x="606" 
d="M261 825v-329h272v-165h-272v-331h-188v825h188z" />
    <glyph glyph-name="uni0371" unicode="&#x371;" horiz-adv-x="537" 
d="M233 702v-139v-141h231v-140h-231v-140v-141h-160v701h160z" />
    <glyph glyph-name="uni0372" unicode="&#x372;" horiz-adv-x="728" 
d="M74 660v165h580v-165v-104h-95v104h-101v-660h-188v660h-101v-104h-95v104z" />
    <glyph glyph-name="uni0373" unicode="&#x373;" horiz-adv-x="641" 
d="M74 563v140h493v-140v-89h-81v89h-86v-561h-159v561h-86v-89h-81v89z" />
    <glyph glyph-name="uni0374" unicode="&#x374;" horiz-adv-x="261" 
d="M62 732l21 268l116 -21l-62 -264z" />
    <glyph glyph-name="uni0375" unicode="&#x375;" horiz-adv-x="261" 
d="M62 -129l21 268l116 -21l-62 -264z" />
    <glyph glyph-name="uni0376" unicode="&#x376;" horiz-adv-x="856" 
d="M593 512v-512h188v825h-188l-328 -512h-2v512h-188v-825h188l328 512h2z" />
    <glyph glyph-name="uni0377" unicode="&#x377;" horiz-adv-x="750" 
d="M515 436v-435h160v701h-160l-279 -435h-1v435h-160v-701h160l279 435h1z" />
    <glyph glyph-name="uni037A" unicode="&#x37a;" horiz-adv-x="314" 
d="M157 166q-36 0 -61 -25t-25 -61q0 -111 126 -216l38 32q-5 5 -12.5 13.5t-23 36t-21.5 55.5q29 7 47 28t18 51q0 35 -25 60.5t-61 25.5z" />
    <glyph glyph-name="uni037B" unicode="&#x37b;" horiz-adv-x="557" 
d="M196 130q51 0 86.5 37t35.5 89q0 53 -35.5 90t-86.5 37q-23 0 -44.5 -6t-31.5 -12l-10 -6l-60 123q7 5 20 12.5t57.5 20.5t94.5 13q55 0 107 -21.5t91 -57t62.5 -86t23.5 -105.5q0 -74 -39.5 -137t-105 -99.5t-139.5 -36.5q-50 0 -93 12t-61 24l-18 12l60 121
q34 -24 86 -24z" />
    <glyph glyph-name="uni037C" unicode="&#x37c;" horiz-adv-x="575" 
d="M369 337q-33 0 -55.5 -22.5t-22.5 -55.5t22.5 -55.5t55.5 -22.5t55.5 22.5t22.5 55.5t-22.5 55.5t-55.5 22.5zM370 130q-51 0 -86.5 37t-35.5 89q0 53 35.5 90t86.5 37q14 0 28.5 -2.5t24.5 -6t17.5 -7t11.5 -6.5l4 -2l60 123q-7 5 -20 12.5t-57.5 20.5t-94.5 13
q-55 0 -107 -21.5t-91 -57t-62.5 -86t-23.5 -105.5q0 -74 39.5 -137t105 -99.5t139.5 -36.5q50 0 93 12t61 24l18 12l-60 121q-34 -24 -86 -24z" />
    <glyph glyph-name="uni037D" unicode="&#x37d;" horiz-adv-x="574" 
d="M205.5 337q32.5 0 55.5 -22.5t23 -55.5t-23 -55.5t-55.5 -22.5t-55.5 22.5t-23 55.5t23 55.5t55.5 22.5zM205 130q50 0 86 37t36 89q0 53 -36 90t-86 37q-24 0 -45.5 -6t-31.5 -12l-9 -6l-60 123q7 5 19.5 12.5t57 20.5t95.5 13q113 0 198.5 -79.5t85.5 -190.5
q0 -112 -85.5 -192.5t-198.5 -80.5q-51 0 -94 12t-61 24l-17 12l60 121q33 -24 86 -24z" />
    <glyph glyph-name="uni037E" unicode="&#x37e;" horiz-adv-x="314" 
d="M157 166q36 0 61 -25t25 -61q0 -111 -126 -216l-38 32q5 5 13 13.5t23.5 36t20.5 55.5q-28 7 -46 28t-18 51q0 35 25 60.5t60 25.5zM71 386q0 36 25 62t59.5 26t60 -26t25.5 -62t-25.5 -62t-60 -26t-59.5 26t-25 62z" />
    <glyph glyph-name="tonos" unicode="&#x384;" horiz-adv-x="334" 
d="M46 738l112 244l130 -67l-160 -224z" />
    <glyph glyph-name="dieresistonos" unicode="&#x385;" horiz-adv-x="541" 
d="M204 738l112 244l130 -67l-160 -224zM152 709q38 0 65 -27t27 -65t-27 -65t-65 -27t-65 27t-27 65t27 65t65 27zM389 709q38 0 65 -27t27 -65t-27 -65t-65 -27t-65 27t-27 65t27 65t65 27z" />
    <glyph glyph-name="Alphatonos" unicode="&#x386;" horiz-adv-x="956" 
d="M156 738l112 244l130 -67l-160 -224zM565 825l333 -825h-202l-61 165h-314l-61 -165h-202l333 825h174zM571 330l-92 240h-2l-92 -240h186z" />
    <glyph glyph-name="anoteleia" unicode="&#x387;" horiz-adv-x="328" 
d="M164 540q38 0 65 -27t27 -65t-27 -65t-65 -27t-65 27t-27 65t27 65t65 27z" />
    <glyph glyph-name="Epsilontonos" unicode="&#x388;" horiz-adv-x="812" 
d="M63 738l112 244l130 -67l-160 -224zM749 825v-165h-284v-164h272v-165h-272v-166h284v-165h-472v825h472z" />
    <glyph glyph-name="Etatonos" unicode="&#x389;" horiz-adv-x="998" 
d="M63 738l112 244l130 -67l-160 -224zM481 331v-331h-188v825h188v-329h266v329h188v-825h-188v331h-266z" />
    <glyph glyph-name="Iotatonos" unicode="&#x38a;" horiz-adv-x="526" 
d="M62 738l112 244l130 -67l-160 -224zM464 825v-825h-188v825h188z" />
    <glyph glyph-name="Omicrontonos" unicode="&#x38c;" horiz-adv-x="972" 
d="M49 738l112 244l131 -67l-160 -224zM92 413q0 89 33 168.5t89.5 136t133 89.5t160.5 33q113 0 208.5 -56t151 -154.5t55.5 -216.5q0 -119 -54 -217t-149.5 -154.5t-211.5 -56.5q-120 0 -215.5 56.5t-148 154t-52.5 217.5zM295 413q0 -48 12 -90.5t36.5 -78t66.5 -56.5
t98 -21q54 0 96 21t66.5 56.5t37 78t12.5 90.5q0 31 -5.5 61t-17 57.5t-29 50.5t-40.5 40.5t-54 27t-66 9.5q-69 0 -119 -36.5t-72 -91t-22 -118.5z" />
    <glyph glyph-name="Upsilontonos" unicode="&#x38e;" horiz-adv-x="1097" 
d="M49 738l112 244l131 -67l-160 -224zM252 825h226l172 -264l172 264h226l-304 -455v-370h-188v370z" />
    <glyph glyph-name="Omegatonos" unicode="&#x38f;" horiz-adv-x="1120" 
d="M195 738l113 244l130 -67l-160 -224zM342 296q0 -27 9.5 -55.5t23.5 -49t28 -38t24 -26.5l10 -9h-1l-1 -116h-364v117h134q-37 92 -37 205q0 116 53 219t146 166t200 63q109 0 202 -63t146.5 -166t53.5 -219q0 -113 -36 -205h116l-1 -117h-364v117h5l-1 1q4 3 11.5 9
t26 25t33 38.5t26 48t11.5 55.5q0 68 -21 127t-54 97.5t-73 60t-79 21.5t-79 -21.5t-73.5 -60t-54 -97.5t-20.5 -127z" />
    <glyph glyph-name="iotadieresistonos" unicode="&#x390;" horiz-adv-x="553" 
d="M210 983l112 244l130 -67l-160 -224zM158 954q38 0 65 -27t27 -65t-27 -65t-65 -27t-65 27t-27 65t27 65t65 27zM395 954q38 0 65 -27t27 -65t-27 -65t-65 -27t-65 27t-27 65t27 65t65 27zM182 753l2 -553v-1q-1 -18 0 -32v-19q3 -67 21.5 -96t70.5 -49q6 -3 19 -3.5
t26 -0.5t42.5 0.5t54.5 0.5q12 9 24.5 37.5t18.5 51.5l7 24q-4 5 -21 11t-34.5 11.5t-21.5 9.5q-3 3 -9.5 9t-9.5 9.5t-6.5 8.5t-5 9.5t-2.5 9.5v562h-176z" />
    <glyph glyph-name="Alpha" unicode="&#x391;" horiz-adv-x="940" 
d="M557 825l333 -825h-202l-61 165h-314l-61 -165h-202l333 825h174zM563 330l-92 240h-2l-92 -240h186z" />
    <glyph glyph-name="Beta" unicode="&#x392;" horiz-adv-x="714" 
d="M66 825h256q55 0 99.5 -11t80 -35t55 -65.5t19.5 -98.5q0 -59 -26 -105t-78 -72q176 -31 176 -208q0 -104 -71.5 -167t-198.5 -63h-312v825zM254 502h14q63 0 94.5 22t31.5 72q0 84 -126 84h-14v-178zM254 145h58q138 0 138 92q0 55 -34 79t-104 24h-58v-195z" />
    <glyph glyph-name="Gamma" unicode="&#x393;" horiz-adv-x="609" 
d="M256 660h284v165h-472v-825h190z" />
    <glyph glyph-name="uni0394" unicode="&#x394;" horiz-adv-x="940" 
d="M688 2h-435l-203 -2l333 825h174l333 -825zM631 164l-160 427l-2 -21l-163 -409z" />
    <glyph glyph-name="Epsilon" unicode="&#x395;" horiz-adv-x="619" 
d="M546 825v-165h-284v-164h272v-165h-272v-166h284v-165h-472v825h472z" />
    <glyph glyph-name="Zeta" unicode="&#x396;" horiz-adv-x="838" 
d="M788 825l-410 -660h334l48 -165h-710l408 660h-301l-49 165h680z" />
    <glyph glyph-name="Eta" unicode="&#x397;" horiz-adv-x="791" 
d="M262 331v-331h-188v825h188v-329h266v329h188v-825h-188v331h-266z" />
    <glyph glyph-name="Theta" unicode="&#x398;" horiz-adv-x="944" 
d="M338 459h276v-96h-276v96zM56 413q0 89 33.5 168.5t89.5 136t133 89.5t160 33q114 0 209 -56t151 -154.5t56 -216.5q0 -119 -54 -217t-149.5 -154.5t-212.5 -56.5q-119 0 -214.5 56.5t-148.5 154t-53 217.5zM260 413q0 -32 5 -61t15.5 -57t28 -51t40.5 -40.5t54.5 -27
t68.5 -9.5q55 0 96.5 21t66.5 56.5t37 78t12 90.5q0 31 -5.5 61t-16.5 57.5t-29 50.5t-40.5 40.5t-53.5 27t-67 9.5q-69 0 -118.5 -36.5t-71.5 -91t-22 -118.5z" />
    <glyph glyph-name="Iota" unicode="&#x399;" horiz-adv-x="337" 
d="M262 825v-825h-188v825h188z" />
    <glyph glyph-name="Kappa" unicode="&#x39a;" horiz-adv-x="871" 
d="M811 0h-259l-304 350v-350h-188v825h188v-337l283 337h228l-332 -391z" />
    <glyph glyph-name="Lambda" unicode="&#x39b;" horiz-adv-x="941" 
d="M470 570l-2 -1l-218 -570l-200 1l334 825h174l332 -825h-204z" />
    <glyph glyph-name="Mu" unicode="&#x39c;" horiz-adv-x="1030" 
d="M784 0l-39 489h-5l-169 -484h-112l-169 484h-5l-39 -489h-188l74 825h200l183 -476l183 476h200l74 -825h-188z" />
    <glyph glyph-name="Nu" unicode="&#x39d;" horiz-adv-x="855" 
d="M262 512v-512h-188v825h188l328 -512h2v512h188v-825h-188l-328 512h-2z" />
    <glyph glyph-name="Xi" unicode="&#x39e;" horiz-adv-x="613" 
d="M502 501l-1 -167h-390v167h391zM543 168l-1 -167h-472v167h473zM543 825l-1 -167h-472v167h473z" />
    <glyph glyph-name="Omicron" unicode="&#x39f;" horiz-adv-x="944" 
d="M56 413q0 89 33.5 168.5t89.5 136t133 89.5t160 33q114 0 209 -56t151 -154.5t56 -216.5q0 -119 -54 -217t-149.5 -154.5t-212.5 -56.5q-119 0 -214.5 56.5t-148.5 154t-53 217.5zM260 413q0 -32 5 -61t15.5 -57t28 -51t40.5 -40.5t54.5 -27t68.5 -9.5q55 0 96.5 21
t66.5 56.5t37 78t12 90.5q0 31 -5.5 61t-16.5 57.5t-29 50.5t-40.5 40.5t-53.5 27t-67 9.5q-69 0 -118.5 -36.5t-71.5 -91t-22 -118.5z" />
    <glyph glyph-name="Pi" unicode="&#x3a0;" horiz-adv-x="791" 
d="M262 660v-660h-188v825h188h266h188v-825h-188v660h-266z" />
    <glyph glyph-name="Rho" unicode="&#x3a1;" horiz-adv-x="716" 
d="M66 825h302q126 0 204 -65t78 -189t-79 -194.5t-203 -70.5h-114v-306h-188v825zM254 456h54q40 0 70.5 9t52 34.5t21.5 65.5q0 59 -40.5 84.5t-103.5 25.5h-54v-219z" />
    <glyph glyph-name="Sigma" unicode="&#x3a3;" horiz-adv-x="629" 
d="M562 655l-293 -35v-5l162 -152v-101l-162 -152v-4l293 -36v-169l-495 67v180l158 164l-158 165v180l495 67v-169z" />
    <glyph glyph-name="Tau" unicode="&#x3a4;" horiz-adv-x="702" 
d="M61 660v165h580v-165h-196v-660h-188v660h-196z" />
    <glyph glyph-name="Upsilon" unicode="&#x3a5;" horiz-adv-x="892" 
d="M48 825h226l172 -264l172 264h226l-304 -455v-370h-188v370z" />
    <glyph glyph-name="Phi" unicode="&#x3a6;" horiz-adv-x="944" 
d="M564 186q60 27 90 89t30 138q0 74 -30.5 136t-89.5 91v-454zM376 188v449q-57 -30 -86.5 -91t-29.5 -133q0 -48 11 -90.5t38 -79t67 -55.5zM376 828v69h188v-67q92 -21 165.5 -79.5t116 -147t42.5 -190.5q0 -156 -90.5 -271.5t-233.5 -146.5v-72h-188v72
q-144 32 -232 147t-88 271q0 152 90.5 267t229.5 148z" />
    <glyph glyph-name="Chi" unicode="&#x3a7;" horiz-adv-x="959" 
d="M912 0h-242l-196 281l-194 -281h-234l312 444l-260 381h224l152 -225l152 225h234l-270 -381z" />
    <glyph glyph-name="Psi" unicode="&#x3a8;" horiz-adv-x="879" 
d="M811 825v-532q0 -125 -75 -202.5t-202 -98.5v-91h-188v92q-127 21 -202.5 98t-75.5 202v532h188v-477q0 -120 90 -160v637h188v-637q89 39 89 160v477h188z" />
    <glyph glyph-name="uni03A9" unicode="&#x3a9;" horiz-adv-x="1122" 
d="M343 296q0 -27 9.5 -55.5t23.5 -49t28 -38t24 -26.5l10 -9h-1l-1 -116h-364v117h134q-37 92 -37 205q0 116 53 219t146 166t200 63q109 0 202 -63t146.5 -166t53.5 -219q0 -113 -36 -205h116l-1 -117h-364v117h5l-1 1q4 3 11.5 9t26 25t33 38.5t26 48t11.5 55.5
q0 68 -21 127t-54 97.5t-73 60t-79 21.5t-79 -21.5t-73.5 -60t-54 -97.5t-20.5 -127z" />
    <glyph glyph-name="Iotadieresis" unicode="&#x3aa;" horiz-adv-x="553" 
d="M158 1103q38 0 65 -27t27 -65t-27 -65t-65 -27t-65 27t-27 65t27 65t65 27zM395 1103q38 0 65 -27t27 -65t-27 -65t-65 -27t-65 27t-27 65t27 65t65 27zM370 825v-825h-188v825h188z" />
    <glyph glyph-name="Upsilondieresis" unicode="&#x3ab;" horiz-adv-x="910" 
d="M336 1103q38 0 65 -27t27 -65t-27 -65t-65 -27t-65 27t-27 65t27 65t65 27zM573 1103q38 0 65 -27t27 -65t-27 -65t-65 -27t-65 27t-27 65t27 65t65 27zM57 825h226l172 -264l172 264h226l-304 -455v-370h-188v370z" />
    <glyph glyph-name="alphatonos" unicode="&#x3ac;" horiz-adv-x="763" 
d="M294 631l112 244l130 -67l-160 -224zM244 256q0 -53 33 -86.5t87 -33.5q34 0 61 15.5t42 42.5t15 62q0 53 -34 87t-84 34q-51 0 -85.5 -34t-34.5 -87zM56 256q0 114 72 193t182 79q103 0 168 -64l52 49h178l-88 -255l88 -258h-176l-52 58h-2q-29 -33 -73 -53t-95 -20
q-110 0 -182 78.5t-72 192.5z" />
    <glyph glyph-name="epsilontonos" unicode="&#x3ad;" horiz-adv-x="633" 
d="M200 796l112 244l130 -67l-159 -224zM418 512l126 61q-1 6 -4.5 16.5t-20.5 37t-40 47t-67.5 37t-99.5 16.5q-100 0 -165 -57.5t-65 -146.5q0 -84 62 -132q-89 -54 -89 -161q0 -100 73.5 -165t186.5 -65q44 0 82.5 9.5t64.5 25t47 33.5t33.5 36.5t21 34t11.5 24.5l3 10
l-148 72q0 -4 -1 -11.5t-8.5 -26t-18.5 -32.5t-34 -25.5t-52 -11.5q-45 0 -73.5 24.5t-28.5 67.5q0 45 29.5 74t72.5 29q7 0 15 -1t11 -3l4 -1v105h-35q-21 0 -40 11t-31.5 32t-12.5 45q0 33 26 55.5t61 22.5q25 0 44.5 -9t30.5 -22t18 -25.5t9 -21.5z" />
    <glyph glyph-name="etatonos" unicode="&#x3ae;" horiz-adv-x="704" 
d="M245 606l113 244l130 -67l-160 -224zM76 0v513h178v-54h2q68 69 146 69q30 0 60 -6t60 -20t53.5 -35t38 -54.5t14.5 -74.5v-509h-178v290q0 31 -10 92.5t-33 120t-49 58.5q-39 0 -71.5 -31t-32.5 -69v-290h-178z" />
    <glyph glyph-name="iotatonos" unicode="&#x3af;" horiz-adv-x="397" 
d="M67 881l113 244l130 -67l-160 -224zM56 753l2 -553v-1q-1 -18 0 -32v-19q3 -67 21.5 -96t70.5 -49q6 -3 19 -3.5t26 -0.5t42.5 0.5t54.5 0.5q12 9 24.5 37.5t18.5 51.5l7 24q-5 6 -38.5 17t-38.5 15q-3 3 -9.5 9t-9.5 9.5t-6.5 8.5t-5 9.5t-2.5 9.5v562h-176z" />
    <glyph glyph-name="upsilondieresistonos" unicode="&#x3b0;" horiz-adv-x="690" 
d="M466 749q38 0 65 -27t27 -65.5t-27 -65t-65 -26.5t-65 26.5t-27 65t27 65.5t65 27zM229 749q38 0 65 -27t27 -65.5t-27 -65t-65 -26.5t-65 26.5t-27 65t27 65.5t65 27zM281 778l112 244l130 -67l-160 -224zM244 513v-244q0 -76 23 -108t78 -32t78 32t23 108l-82 244h177
l82 -287q0 -128 -66.5 -184.5t-211.5 -56.5t-211.5 56.5t-66.5 184.5v287h177z" />
    <glyph glyph-name="alpha" unicode="&#x3b1;" horiz-adv-x="752" 
d="M50 256q0 114 72 193t183 79q102 0 168 -64l52 49h177l-87 -255l87 -258h-175l-52 58h-2q-66 -73 -168 -73q-111 0 -183 78.5t-72 192.5zM238 256q0 -53 33 -86.5t87 -33.5q52 0 85.5 34t33.5 86q0 53 -34.5 87t-84.5 34q-51 0 -85.5 -34t-34.5 -87z" />
    <glyph glyph-name="beta" unicode="&#x3b2;" horiz-adv-x="681" 
d="M305 -15v162q52 0 85.5 32.5t33.5 84.5q0 57 -31.5 91t-87.5 34v135q45 0 76.5 30t31.5 76q0 45 -24 70.5t-67 25.5q-28 0 -52 -24.5t-24 -65.5v-770h-177v459v135v162q0 110 75 181.5t178 71.5q115 -2 186.5 -71.5t71.5 -173.5q0 -114 -100 -170q132 -61 132 -205
q0 -118 -86.5 -194t-220.5 -76z" />
    <glyph glyph-name="gamma" unicode="&#x3b3;" horiz-adv-x="811" 
d="M556 513h204l-403 -773h-204l177 340l-138 302l-141 12l36 119h204l143 -263z" />
    <glyph glyph-name="delta" unicode="&#x3b4;" horiz-adv-x="742" 
d="M558 553l-25 -142q-25 6 -47 11.5t-32 7t-17 4t-18 1t-17.5 -2t-31.5 -5.5q-53 -9 -87.5 -57t-34.5 -116v-38q47 52 168 52q111 0 183 -78.5t72 -192.5t-72 -193t-183 -79q-99 0 -165 61l-180 130v351q0 83 46 154t121.5 112.5t162.5 48.5q32 3 39 6q9 -10 118 -35z
M483 -3q0 35 -15 62t-42.5 42.5t-62.5 15.5q-52 0 -85.5 -34t-33.5 -86.5t34.5 -86.5t84.5 -34q51 0 85.5 34t34.5 87zM440 588z" />
    <glyph glyph-name="epsilon" unicode="&#x3b5;" horiz-adv-x="638" 
d="M421 512l126 61l-5.5 16.5t-20 37t-40 47t-67.5 37t-99 16.5q-101 0 -166 -57.5t-65 -146.5q0 -84 62 -132q-89 -54 -89 -161q0 -100 73.5 -165t186.5 -65q44 0 82.5 9.5t64.5 25t47.5 33.5t34 36.5t21 34t11.5 24.5l3 10l-148 72q0 -4 -1.5 -11.5t-9 -26t-18.5 -32.5
t-33.5 -25.5t-52.5 -11.5q-45 0 -73 24.5t-28 67.5q0 45 29 74t72 29q8 0 15.5 -1t11.5 -3l4 -1v105h-35q-33 0 -58.5 25.5t-25.5 62.5q0 22 12 40t32 28t42 10q25 0 45 -9t30.5 -22t18 -25.5t9.5 -21.5z" />
    <glyph glyph-name="zeta" unicode="&#x3b6;" horiz-adv-x="688" 
d="M337 136q34 0 68 7t52 14l17 8l119 -58q11 5 16 -5q16 -33 22.5 -60.5t3 -57.5t-19.5 -59q-11 -20 -37.5 -34.5t-50.5 -13t-29 23.5q-5 23 5.5 43t26.5 33t34 33t24 41q3 9 -21 14q-93 -64 -230 -64q-69 0 -120.5 17.5t-79.5 43t-45 61.5t-22 64.5t-5 60.5q0 45 25.5 96
t62 90t72.5 72t62 51l25 18h-260v140h547v-40q-15 -12 -39.5 -33t-86.5 -79.5t-109.5 -110t-87 -110t-39.5 -94.5q0 -11 1.5 -22t7 -28.5t15.5 -30t29.5 -22t46.5 -9.5z" />
    <glyph glyph-name="eta" unicode="&#x3b7;" horiz-adv-x="699" 
d="M74 0v513h177v-54h2q69 69 147 69q38 0 75.5 -10t72 -31t56 -59.5t21.5 -89.5v-509h-177v290q0 59 -27.5 165t-64.5 106q-40 0 -72.5 -31t-32.5 -69v-290h-177z" />
    <glyph glyph-name="theta" unicode="&#x3b8;" horiz-adv-x="842" 
d="M599 405q-10 73 -55.5 121.5t-122.5 48.5q-76 0 -122 -48.5t-56 -121.5h356zM243 323q5 -34 17.5 -63t33.5 -52.5t53.5 -37t73.5 -13.5q78 0 122.5 47t55.5 119h-356zM68 366q0 75 28 142.5t76 116t113 76.5t136 28q97 0 178 -47.5t128 -131.5t47 -184
q0 -101 -45.5 -184.5t-126.5 -131.5t-181 -48q-101 0 -182.5 48t-126 131t-44.5 185z" />
    <glyph glyph-name="iota" unicode="&#x3b9;" horiz-adv-x="399" 
d="M56 753l3 -553v-1q-1 -18 0 -32v-19q3 -67 21.5 -96t69.5 -49q7 -3 20 -3.5t26 -0.5t42.5 0.5t54.5 0.5q12 9 24.5 37.5t18.5 51.5l6 24q-4 6 -37.5 17t-38.5 15q-3 3 -9.5 9t-9.5 9.5t-6.5 8.5t-5 9.5t-1.5 9.5v562h-178z" />
    <glyph glyph-name="kappa" unicode="&#x3ba;" horiz-adv-x="753" 
d="M696 1h-220l-259 297v-297h-160v701h160v-286l241 286h193l-282 -332z" />
    <glyph glyph-name="lambda" unicode="&#x3bb;" horiz-adv-x="790" 
d="M528 0h204l-404 773h-204l178 -340l-244 -433h204l144 263z" />
    <glyph glyph-name="uni03BC" unicode="&#x3bc;" horiz-adv-x="700" 
d="M250 513v-244q0 -76 22.5 -108t78 -32t78.5 32t23 108v244h176v-287q0 -128 -66 -184.5t-212 -56.5q-57 0 -102 8v-181h-176v701h178z" />
    <glyph glyph-name="nu" unicode="&#x3bd;" horiz-adv-x="778" 
d="M264 513l152 -353l98 353h210l-275 -513h-120l-275 513h210z" />
    <glyph glyph-name="xi" unicode="&#x3be;" horiz-adv-x="648" 
d="M442 598l128 128q-36 1 -232 1h-288v-129h72q-15 -35 -15 -75q0 -84 62 -132q-89 -54 -89 -161q0 -100 73.5 -165t186.5 -65q97 0 163 25l2 7l89 63l4 -122l-48 -82l-83 4l36 130q33 12 55.5 29.5t29.5 29.5l6 11l-148 72q0 -29 -105 -29q-45 0 -73 24.5t-28 67.5
q0 45 29 74t72 29q8 0 15.5 -1t11.5 -2l4 -2v105h-35q-33 0 -58.5 25.5t-25.5 62.5q0 30 21 51.5t52 26.5h13v1z" />
    <glyph glyph-name="omicron" unicode="&#x3bf;" horiz-adv-x="842" 
d="M68 364q0 75 28 142.5t76 116t113 76.5t136 28q97 0 178 -47.5t128 -131.5t47 -184q0 -101 -45.5 -184.5t-126.5 -131.5t-181 -48q-101 0 -182.5 48t-126 131t-44.5 185zM240 364q0 -41 10.5 -77t31 -66.5t56.5 -48t83 -17.5q31 0 57.5 8t46 23t34.5 34.5t24 43t14 48.5
t5 52q0 40 -11 77t-32.5 66.5t-57 47.5t-80.5 18q-58 0 -100.5 -31t-61.5 -77.5t-19 -100.5z" />
    <glyph glyph-name="pi" unicode="&#x3c0;" horiz-adv-x="873" 
d="M326 562v-561h-160v560h-93v141h93h160h226h160h88v-141h-88v-441l49 -119h-160l-49 119v442h-226z" />
    <glyph glyph-name="rho" unicode="&#x3c1;" horiz-adv-x="846" 
d="M242 364q0 -41 10.5 -77t31 -66.5t56.5 -48t83 -17.5q31 0 57.5 8t46 23t34.5 34.5t24 43t14 48.5t5 52q0 40 -11 77t-32.5 66.5t-57 47.5t-80.5 18q-58 0 -100.5 -31t-61.5 -77.5t-19 -100.5zM70 364q0 75 28 142.5t76 116t113 76.5t136 28q97 0 178 -47.5t128 -131.5
t47 -184q0 -101 -45.5 -184.5t-126.5 -131.5t-181 -48t-182 48v-308h-171v612v12z" />
    <glyph glyph-name="sigma1" unicode="&#x3c2;" horiz-adv-x="711" 
d="M455 158q36 0 70.5 11t50.5 22l17 11l66 -235q-1 3 -6 8l4 -8q-72 -165 -261 -195l-36 9q57 20 118 97.5t78 139.5q-15 0 -20.5 0.5t-23 -2t-25 -4t-27 -5.5t-30.5 -6q-66 -12 -135.5 15t-123 78.5t-87.5 124t-34 144.5q1 99 54 183.5t140.5 133t185.5 48.5
q43 0 82.5 -6.5t65 -16t45.5 -19t29 -16.5l9 -7l-68 -136q-7 5 -18.5 12.5t-47.5 19.5t-72 12q-58 0 -103.5 -19t-72.5 -49.5t-41 -66t-14 -71.5q0 -37 14 -72.5t41 -66t72.5 -49.5t103.5 -19zM659 -33h1h-1z" />
    <glyph glyph-name="sigma" unicode="&#x3c3;" horiz-adv-x="896" 
d="M223 364q0 -41 10 -77t31 -66.5t57 -48t83 -17.5q46 0 81.5 17.5t56.5 48t31.5 66.5t10.5 77q0 55 -18.5 101t-60.5 77t-101 31v0q-59 0 -101 -31t-61 -77.5t-19 -100.5zM404 727h442l-36 -123l-132 -10q79 -99 79 -230q0 -101 -46 -184.5t-127 -131.5t-180 -48
q-76 0 -142.5 28t-112.5 77t-72.5 116t-26.5 143q0 100 48 184t129 131.5t177 47.5z" />
    <glyph glyph-name="tau" unicode="&#x3c4;" horiz-adv-x="639" 
d="M73 563v140h493v-140h-167v-542q7 -8 13 -21q3 -9 22.5 -10.5t39.5 -0.5t35.5 -11t12.5 -41q-1 -21 -15.5 -30.5t-42.5 -14.5q-3 -1 -18.5 -4t-22.5 -4.5t-22.5 -4.5t-25 -3.5t-23.5 -2t-24 -0.5t-21 3t-19.5 6t-15.5 10q-15 15 -25 58t-3 52h-4v561h-167zM279 1l-26 1
q12 -2 26 -1z" />
    <glyph glyph-name="upsilon" unicode="&#x3c5;" horiz-adv-x="692" 
d="M522 588l93 -325q17 -62 2 -110.5t-54.5 -82t-96.5 -51.5t-125 -18q-134 0 -203.5 66t-69.5 196v452h160v-405q0 -86 26.5 -119t86.5 -33q31 0 56.5 8.5t44 26.5t22.5 47t-9 70l-93 278h160z" />
    <glyph glyph-name="phi" unicode="&#x3c6;" horiz-adv-x="837" 
d="M180 535q2 -5 6 -17.5t5 -15t4 -11.5t4.5 -11t4 -8t5 -9t6 -8.5t8.5 -10.5t10 -11t12 -14q9 -10 26 -23v307h256q107 0 173.5 -55.5t66.5 -160.5t-67 -165t-173 -60h-96v-260h-160v269q-64 24 -139 91q-41 36 -52.5 84t-8.5 118q1 20 4.5 36t10 30.5t16 27.5t23.5 26
q7 6 19.5 10.5t25.5 6t24.5 2t21 0.5h10.5q14 2 13 -8q-1 -8 -32 -63q-37 -67 -27 -97zM431 389h45q54 0 88.5 22t34.5 71q0 50 -34.5 72t-88.5 22h-45v-187z" />
    <glyph glyph-name="chi" unicode="&#x3c7;" horiz-adv-x="867" 
d="M806 142v-140h-8h-205h-2l-166 239l-165 -239h-199l266 377l-126 184h-118v140h23h190l129 -191l129 191h199l-229 -324l172 -237h110z" />
    <glyph glyph-name="psi" unicode="&#x3c8;" horiz-adv-x="782" 
d="M707 710v-452q0 -107 -64 -172.5t-172 -83.5v-78h-159v78q-108 18 -172.5 84t-64.5 172v452h160v-406q0 -101 77 -136v542h159v-542q76 34 76 136v406h160z" />
    <glyph glyph-name="omega" unicode="&#x3c9;" horiz-adv-x="1085" 
d="M252 550v-281q0 -76 23 -108t78 -32t78 32t23 108v211h177v-210q0 -76 23 -108t78 -32t78 32t23 108v280h177v-323q0 -128 -66.5 -184.5t-211.5 -56.5q-124 0 -189 40q-65 -41 -190 -41q-145 0 -211.5 56.5t-66.5 184.5v324h177z" />
    <glyph glyph-name="iotadieresis" unicode="&#x3ca;" horiz-adv-x="516" 
d="M139.5 974q38.5 0 65.5 -27t27 -65t-27 -65t-65.5 -27t-65 27t-26.5 65t26.5 65t65 27zM376.5 974q38.5 0 65 -27t26.5 -65t-26.5 -65t-65 -27t-65.5 27t-27 65t27 65t65.5 27zM170 753l2 -553v-1v-32v-19q3 -67 22 -96t70 -49q7 -3 19.5 -3.5t26 -0.5t43 0.5t53.5 0.5
q13 9 25.5 37.5t18.5 51.5l6 24q-4 6 -38 17t-38 15q-3 3 -9.5 9t-9.5 9.5t-7 8.5t-5.5 9.5t-1.5 9.5v562h-177z" />
    <glyph glyph-name="upsilondieresis" unicode="&#x3cb;" horiz-adv-x="679" 
d="M191.5 945q38.5 0 65.5 -27t27 -65t-27 -65t-65.5 -27t-65 27t-26.5 65t26.5 65t65 27zM428.5 945q38.5 0 65 -27t26.5 -65t-26.5 -65t-65 -27t-65.5 27t-27 65t27 65t65.5 27zM516 588l93 -325q17 -62 2 -110.5t-54.5 -82t-97 -51.5t-124.5 -18q-134 0 -204 66t-70 196
v452h160v-405q0 -86 26.5 -119t87.5 -33q31 0 56 8.5t44 26.5t22.5 47t-8.5 70l-93 278h160z" />
    </font>
</defs>
</svg>
